<?xml version="1.0" encoding="utf-8"?>
<!-- Generator: Adobe Illustrator 22.1.0, SVG Export Plug-In . SVG Version: 6.00 Build 0)  -->
<svg version="1.1" id="Layer_1" xmlns="http://www.w3.org/2000/svg" xmlns:xlink="http://www.w3.org/1999/xlink" x="0px" y="0px"
	 viewBox="0 0 86 128" style="enable-background:new 0 0 86 128;" xml:space="preserve">
<style type="text/css">
	.st0{fill:#1B1A16;}
	.st1{fill:#D7CFCA;}
	.st2{fill:#D6CEC9;}
	.st3{fill:#F7F6F4;}
	.st4{fill:#FDFCFC;}
	.st5{fill:#211F1B;}
</style>
<path class="st0" d="M1.7,64.8c0-19.9,0-39.8,0-59.7c0-0.6,0.2-0.8,0.8-0.8c27.3,0,54.6,0,82,0c0.6,0,0.8,0.2,0.8,0.8
	c0,39.8,0,79.6,0,119.3c0,0.7-0.1,0.8-0.8,0.8c-27.3,0-54.6,0-81.9,0c-0.7,0-0.8-0.2-0.8-0.8C1.7,104.5,1.7,84.6,1.7,64.8z
	 M53.1,59.2c0,1,0.1,1.9,0.4,2.9c1.4,5,8,8.8,13.3,3.8c2.4-2.3,3.2-5.2,2.7-8.4c-0.6-4.6-5.1-7.8-9.7-6.8
	C55.8,51.5,53.1,55,53.1,59.2z M51.1,59c0-0.7-0.1-1.3-0.2-2c-1-5.4-7.6-8.3-12.1-5.4c-4.1,2.6-5.4,7.8-3.1,12.1
	c2.5,4.5,7.7,5.8,11.7,2.8C50,64.7,51,62.1,51.1,59z M32.2,50.7c-0.7,0.1-1.3,0.2-1.9,0.3c-3.2,0.4-6.3,0-9.5-0.5
	c-0.5-0.1-0.7,0-0.7,0.5c-0.3,2.6-0.6,5.1-0.9,7.7c0,0.2-0.1,0.4,0.2,0.5c0.2,0.1,0.4,0,0.6-0.1c1.7-1,3.4-1.5,5.4-1.5
	c0.5,0,0.7,0.1,0.7,0.7c0,2.7,0,5.4,0,8.1c0,1.4,0,1.4-1.4,1.4c-1.3,0-2.7-0.2-4-0.8c0.5-0.2,0.8-0.3,1.2-0.5
	c1.3-0.7,1.8-2.2,1.3-3.5c-0.6-1.4-2.1-2.2-3.6-1.7c-1.1,0.3-1.8,1-2.1,2.1c-0.3,1.2,0,2.2,1,2.9c0.4,0.3,0.8,0.6,1.2,0.8
	c3.2,1.6,6.5,1.6,9.8,0.5c2.1-0.7,3.4-2.3,3.5-4.7c0.1-2-1.1-3.8-3.2-4.7c-2.2-1-4.6-1.1-7-0.6c-1.1,0.2-2.1,0.6-3.1,1.2
	c0.1-0.9,0.2-1.6,0.3-2.4c0.1-1,0.1-1,1.1-0.9c2,0.2,3.9,0.3,5.9,0.1C29.5,55.2,31.8,53.1,32.2,50.7z M43.7,37.2
	c0.3,0.2,0.8,0,0.8,0.7c0,3.4,0,6.8,0,10.2c0,0.7-0.4,1-1,0.9c-0.6,0-0.9-0.4-0.9-1.3c0-7.4,0-14.9-0.1-22.3c0-0.4,0.1-0.8,0.2-1.2
	c0.2-0.6,0.7-0.7,1.3-0.5c0.5,0.2,0.8,0.6,1,1.1c1.1,1.9,1.4,4.1,1.7,6.2c0.1,0.9,0.2,1.9,0.5,2.8c0.2-3.4,0.1-6.8,0-10.3
	c-0.6,0.4-0.9,0.9-1.3,1.3c-0.3,0.4-0.5,0.4-0.7-0.1c-0.9-1.7-2.5-2-4-0.7c-0.8,0.7-1.2,1.5-1.6,2.4c-0.6,1.8-0.9,3.6-1.1,5.4
	c-0.3,3.4-0.1,6.9,0.1,10.3c0.2,1.8,0.5,3.6,1.4,5.2c0.6,1.2,1.7,1.8,3,1.8c1.3,0,2.2-0.6,2.8-1.7c0.1-0.2,0.2-0.4,0.4-0.7
	c0.5,0.8,1,1.5,1.5,2.3c0.3-0.3,0.2-0.6,0.2-0.8c0-3.3,0-6.7,0-10c0-0.5-0.1-1,0.7-1.1C47.1,36.9,45.4,37,43.7,37.2z M27.7,48.9
	C27.7,48.9,27.7,48.9,27.7,48.9c3.2,0.1,6.3,0.1,9.5,0.1c0.4,0,0.4-0.2,0.4-0.5c0-3.1,0-6.3,0-9.4c0-0.1,0.1-0.4-0.2-0.4
	c-0.2,0-0.2,0.2-0.2,0.4c-0.2,1-0.3,2.1-0.5,3.1c-0.4,1.9-0.8,3.8-1.9,5.4c-0.3,0.5-0.7,0.9-1.3,1.1c-0.7,0.2-0.9,0.1-0.9-0.7
	c0-3.7,0-7.4,0-11.1c0-0.2-0.1-0.4,0.1-0.5c0.3,0.1,0.6,0.2,0.8,0.5c1.4,1.6,1.1,3.8,1.8,5.7c0-4.2,0-8.4,0-12.7
	c-0.3,0.1-0.2,0.4-0.2,0.5c-0.1,1.3-0.4,2.6-0.8,3.9c-0.2,0.6-0.5,1.1-1,1.5c-0.3,0.2-0.6,0.3-0.6-0.3c0-3.7,0-7.4,0-11.1
	c0-0.4,0.2-0.5,0.5-0.5c1-0.1,1.8,0.4,2.2,1.3c1,2.1,1.4,4.3,1.8,6.5c0.1,0.6,0.1,1.2,0.4,1.7c0.2-0.1,0.2-0.2,0.2-0.3c0-3,0-6,0-9
	c0-0.5-0.3-0.4-0.6-0.4c-2.6,0-5.2,0-7.8,0c-0.2,0-0.4-0.1-0.5,0.1c0,0-0.3,0-0.1,0.2c0.4,0.2,0.2,0.6,0.2,0.8c0,7.7,0,15.3,0,23
	c0,1,0,1-1,1.1C27.8,48.7,27.7,48.7,27.7,48.9z M59.5,23.5c0,0,0,0.1,0,0.1c0.1,0,0.2,0.1,0.3,0.1c0.6-0.1,0.7,0.2,0.7,0.8
	c0,0.9,0,1.8,0,2.7c0,2.6,0,5.2,0,7.7c0,4.3,0,8.6,0,12.8c0,0.7-0.1,1.1-0.9,1.1c0,0,0,0.1,0,0.1c0,0,0.1,0.1,0.1,0.1
	c3.1,0.1,6.1,0.1,9.2,0c0.4,0,0.5-0.2,0.5-0.5c0-2.9,0-5.7,0-8.6c0-0.5,0.1-1-0.2-1.5C68.9,38.6,69,38.8,69,39
	c-0.3,2.6-0.8,5.1-1.8,7.6c-0.3,0.7-0.7,1.4-1.3,1.9c-0.4,0.3-0.9,0.3-1.4,0.2c-0.4-0.1-0.2-0.6-0.2-0.9c0-7.7,0-15.4,0-23.1
	c0-0.9,0-0.9,0.9-1c0.2,0,0.3,0.1,0.4-0.2C63.6,23.5,61.6,23.5,59.5,23.5z M17,49c3.3,0,6.4,0,9.5,0c0.4,0,0.4-0.2,0.4-0.5
	c0.1-3.3,0.1-6.5,0-9.8c0-0.1,0-0.2-0.2-0.2c-0.1,0.8-0.2,1.5-0.4,2.3c-0.4,2.4-1,4.8-2.2,6.9c-0.4,0.6-0.8,1-1.6,1
	c-0.4,0-0.6-0.1-0.6-0.5c0-7.9,0-15.9,0-23.8c0-0.5,0.2-0.6,0.6-0.6c0.3,0,0.6,0.1,1-0.1c-0.7-0.3-5.7-0.2-6.1,0
	c0.9,0.3,0.9,0.3,0.9,1.4c0,7.5,0,15,0,22.5c0,0.7,0,1.3-1,1.2C17.3,48.7,17.2,48.8,17,49z M59,48.9c-0.7-0.1-0.7-0.6-0.7-1.1
	c-0.1-0.5-0.1-0.9-0.2-1.4c-0.3-3.2-0.7-6.4-1-9.6c-0.4-3.9-0.8-7.9-1.2-11.8c-0.1-1.5-0.1-1.5-1.6-1.5c-0.5,0-0.6,0.2-0.7,0.6
	c-0.3,1.9-0.6,3.7-0.8,5.6c-0.8,5.4-1.6,10.8-2.4,16.2c-0.2,1.2-0.1,2.6-1.8,2.9c1,0.3,3,0.2,3.4-0.1c-0.9-0.4-1.4-0.9-1.3-1.7
	c0.1-1.1,0.3-2.1,0.4-3.2c0-0.3,0.2-0.5,0.5-0.4c0.6,0,1.3,0,1.9,0c0.4,0,0.6,0.1,0.6,0.5c0.1,1.2,0.2,2.4,0.3,3.7
	c0.1,0.7,0,1.2-0.8,1.1c0,0,0,0.1,0,0.1C55.4,48.9,57.2,48.9,59,48.9z M38.1,75.2c0.1,1.3,0.1,2.4,0.2,3.5c0.1,1.3,0,1.3,1.4,1.2
	c0.3,0,0.4-0.1,0.4-0.4c-0.1-1.8-0.3-3.6-0.4-5.3c0-0.3-0.1-0.4-0.4-0.4c-0.5,0-1,0-1.6,0c-0.3,0-0.4,0.1-0.5,0.4
	c-0.4,1-0.8,2.1-1.2,3.1c-0.1,0.2,0,0.5-0.3,0.6c-0.3-0.8-0.5-1.6-0.8-2.4c-0.7-1.8-0.7-1.8-2.6-1.7c-0.3,0-0.4,0.1-0.5,0.4
	c-0.1,1.6-0.3,3.2-0.4,4.7c-0.1,1-0.1,1,0.9,1c0.5,0,0.6-0.1,0.6-0.6c0.1-1.3,0.2-2.6,0.3-4c0.2,0,0.2,0.2,0.2,0.3
	c0.3,1.2,0.8,2.4,1.2,3.6c0.1,0.3,0.2,0.6,0.7,0.6c0.4-0.1,0.9,0.2,1.1-0.5C36.9,78,37.5,76.6,38.1,75.2z M71.5,97
	c-0.2-0.1-0.2-0.2-0.3-0.3c-0.5-1.1-1-2.3-1.5-3.4c-0.1-0.2-0.1-0.5-0.4-0.4c-0.5,0.1-1,0.1-1.5,0c-0.1,0-0.2,0-0.3,0.2
	c0,0.1,0,0.2,0.2,0.2c0.5,0,0.5,0.4,0.5,0.7c0.1,1.3,0.1,2.5,0,3.8c0,0.4,0,0.7-0.5,0.7c-0.1,0-0.2,0.1-0.2,0.2
	c0,0.1,0.1,0.2,0.2,0.2c0.5-0.1,0.9-0.1,1.4,0c0.1,0,0.2,0,0.3-0.2c0-0.1,0-0.2-0.2-0.2c-0.2,0-0.5-0.1-0.5-0.4c0-1.2,0-2.4,0-3.5
	c0.2,0.1,0.3,0.2,0.3,0.3c0.6,1.2,1.1,2.5,1.7,3.7c0.1,0.1,0.1,0.4,0.3,0.4c0.2,0,0.3-0.2,0.3-0.4c0.2-0.5,0.4-1,0.7-1.5
	c0.4-0.9,0.8-1.7,1.2-2.6c0.1,1.2,0.1,2.3,0.1,3.4c0,0.3,0,0.6-0.4,0.6c-0.1,0-0.3,0-0.3,0.2c0,0.2,0.2,0.2,0.4,0.2
	c0.6-0.1,1.3-0.1,1.9,0c0.1,0,0.3,0.1,0.3-0.1c0-0.2,0-0.2-0.2-0.3c-0.4,0-0.5-0.3-0.5-0.7c0-1.3,0-2.6,0-3.9c0-0.3,0-0.6,0.5-0.7
	c0.2,0,0.2-0.1,0.2-0.3c0-0.1-0.2-0.1-0.3-0.1c-0.3,0-0.7,0.1-1,0c-0.5-0.1-0.6,0.1-0.8,0.5C72.6,94.6,72.1,95.8,71.5,97z
	 M68.3,79.9c-0.8-2-1.5-4-2.4-5.8c-0.3-0.6-1.3-0.1-1.9-0.2c-0.2,0-0.4,0-0.5,0.3c-0.7,1.8-1.4,3.7-2.1,5.5
	c-0.1,0.1-0.1,0.3,0.1,0.3c0.5,0,1,0.1,1.5-0.1c0.3-0.1,0.3-0.6,0.4-0.9c0.1-0.2,0.1-0.6,0.5-0.6c0.6,0,1.2,0,1.8,0
	c0.3,0,0.4,0.2,0.4,0.4c0.2,1.1,0.9,1.3,1.9,1.2C67.9,79.9,68.1,79.9,68.3,79.9z M43.1,71.6c8.4,0,16.9,0,25.3,0
	c0.3,0,0.8,0.2,0.8-0.2c0-0.3-0.5-0.2-0.7-0.2c-16.8,0-33.7,0-50.5,0c-0.1,0-0.3,0-0.4,0c-0.1,0-0.4-0.1-0.4,0.2
	c0,0.3,0.2,0.2,0.4,0.2c0.2,0,0.3,0,0.5,0C26.4,71.6,34.8,71.6,43.1,71.6z M18.4,76.8c0,0.9,0,1.7,0,2.6c0,0.4,0.1,0.5,0.5,0.5
	c1.4,0,2.7,0,4.1,0c0.4,0,0.5-0.2,0.5-0.5c0-0.3,0-0.6-0.5-0.6c-0.8,0-1.6,0-2.4,0c-0.3,0-0.4-0.1-0.4-0.4c0-0.2,0-0.4,0-0.5
	c-0.1-0.4,0.1-0.6,0.5-0.6c0.6,0,1.2,0,1.8,0c0.4,0,0.5-0.1,0.5-0.5c0-0.4-0.1-0.6-0.5-0.6c-0.6,0-1.3,0-1.9,0
	c-0.6,0-0.4-0.4-0.4-0.7c0-0.3-0.2-0.7,0.4-0.7c0.7,0,1.4,0,2.1,0c0.5,0,0.5-0.2,0.5-0.6c0-0.4-0.1-0.6-0.5-0.6c-1.3,0-2.5,0-3.8,0
	c-0.4,0-0.5,0.1-0.5,0.5C18.4,75.2,18.4,76,18.4,76.8z M48.6,76.8c0,0.9,0,1.8,0,2.6c0,0.3,0,0.5,0.4,0.5c1.4,0,2.8,0,4.1,0
	c0.5,0,0.4-0.2,0.4-0.5c0-0.4,0-0.6-0.5-0.6c-0.6,0-1.2,0-1.8,0c-1,0-1,0-1-1c0-0.4,0.1-0.5,0.5-0.5c0.7,0,1.3,0,2,0
	c0.5,0,0.4-0.3,0.4-0.6c0-0.3,0.1-0.6-0.4-0.6c-0.7,0-1.3,0-2,0c-0.6,0-0.5-0.3-0.5-0.6c0-0.3-0.2-0.8,0.5-0.7c0.7,0,1.4,0,2.1,0
	c0.5,0,0.5-0.3,0.5-0.6c0-0.3,0-0.5-0.5-0.5c-1.3,0-2.6,0-3.9,0c-0.3,0-0.4,0.1-0.4,0.4C48.6,75.1,48.6,75.9,48.6,76.8z M28.6,92.9
	c-0.1,0-0.4,0-0.7-0.1c-0.1,0-0.2,0-0.3,0.1c0,0.1,0,0.2,0.2,0.2c0.5,0,0.5,0.4,0.5,0.8c0,1.3,0,2.6,0,3.9c0,0.3,0,0.5-0.2,0.7
	c-0.2,0.2-0.1,0.3,0.2,0.3c0.7,0,1.4,0,2.1,0c2.4,0,3.8-1.5,3.5-3.9c-0.1-1.1-0.8-1.9-1.9-2.1C30.9,92.7,29.8,92.9,28.6,92.9z
	 M63.7,95.7c0.4,0.8,1,1.5,1.3,2.3c0.3,0.9,1,0.9,1.8,0.9c0.1,0,0.2,0,0.3-0.1c0-0.1,0-0.2-0.1-0.2c-0.8-0.6-1.1-1.5-1.7-2.3
	c-0.3-0.4-0.3-0.6,0.2-0.8c0.7-0.4,0.9-1.2,0.7-1.8c-0.2-0.7-0.8-0.7-1.4-0.8c-1,0-1.9,0.2-2.9,0c-0.1,0-0.3,0-0.3,0.2
	c0,0.1,0.1,0.2,0.2,0.2c0.4,0,0.4,0.4,0.5,0.7c0.1,1.3,0.1,2.6,0,3.9c0,0.3,0,0.6-0.5,0.7c-0.2,0-0.3,0.1-0.2,0.3
	c0,0.1,0.2,0.1,0.3,0.1c0.7-0.1,1.3-0.1,2,0c0.1,0,0.3,0,0.3-0.2c0-0.2-0.1-0.2-0.2-0.2c-0.4,0-0.5-0.3-0.5-0.6c0-1.4,0-2.7,0-4.1
	c0-0.2,0-0.4,0.2-0.4c0.6-0.2,1.3,0.2,1.4,0.8C65.1,95.1,64.8,95.5,63.7,95.7z M43,97.1c-1.2-1.3-2.1-2.6-3.1-3.9
	c-0.1-0.2-0.3-0.4-0.6-0.4c-0.4,0.1-0.7,0.1-1.1,0c-0.2,0-0.3,0-0.3,0.2c0,0.1,0.1,0.2,0.2,0.2c0.5,0,0.5,0.4,0.5,0.7
	c0,1.3,0,2.6,0,3.9c0,0.3,0,0.6-0.4,0.6c-0.2,0-0.3,0.1-0.2,0.3c0,0.1,0.1,0.2,0.3,0.1c0.4-0.1,0.9-0.1,1.3,0c0.2,0,0.3,0,0.3-0.2
	c0-0.1-0.1-0.2-0.2-0.2c-0.3,0-0.4-0.1-0.5-0.4c0-1.2,0-2.4,0-3.8c0.4,0.6,0.8,1,1.2,1.5c0.8,1,1.5,1.9,2.3,2.9
	c0.2,0.3,0.6,0.4,0.8,0.3c0.3-0.1,0.1-0.4,0.1-0.6c0-1.5,0-3,0-4.5c0-0.3,0-0.7,0.5-0.7c0.1,0,0.2,0,0.2-0.2c0-0.2-0.1-0.2-0.3-0.2
	c-0.5,0.1-0.9,0.1-1.3,0c-0.1,0-0.3,0-0.3,0.2c0,0.1,0.1,0.2,0.2,0.2c0.3,0,0.5,0.2,0.5,0.5C43,94.8,43,95.9,43,97.1z M51,96.6
	c0,0-0.1-0.1-0.1-0.1c-0.7,0-1.3,0-2,0c-0.1,0-0.4-0.1-0.4,0.2c0,0.2,0.2,0.2,0.4,0.2c0.5,0,0.5,0.3,0.5,0.6c0,0.8-0.2,1-1.1,1.1
	c-0.4,0-0.8-0.1-1.1-0.4c-1.3-0.9-1.5-3.3-0.3-4.4c0.6-0.5,1.3-0.6,2-0.5c0.6,0.1,1.2,0.3,1.1,1.1c0,0.2,0.3,0.2,0.3,0.1
	c0.1-0.4,0.2-0.8,0.2-1.2c0-0.3-0.3-0.3-0.5-0.4c-0.8-0.2-1.6-0.3-2.5-0.2c-1.5,0.2-2.5,1.2-2.7,2.8c-0.1,1.6,0.8,2.9,2.2,3.3
	c1,0.3,1.9,0.1,2.9-0.2c0.5-0.1,0.7-0.3,0.6-0.8C50.6,97.5,50.5,96.9,51,96.6z M43.9,113.9c0-0.6-0.1-1.2-0.3-1.8
	c-0.3-1-1-1.5-2.1-1.5c-1.1,0-1.8,0.5-2.1,1.4c-0.3,1-0.3,2.1-0.1,3.2c0.2,1.3,1,2,2.3,1.9c1.2,0,2-0.6,2.2-1.9
	C43.8,114.8,43.8,114.3,43.9,113.9z M53.1,113.9c-0.1,0.5-0.1,0.8-0.2,1.1c-0.2,1.1-0.9,1.7-2,1.7c-0.3,0-0.8-0.4-0.9,0.1
	c0,0.4,0.6,0.3,1,0.3c1.6,0.2,2.7-0.5,3-1.9c0.2-0.9,0.2-1.8,0.1-2.7c-0.3-1.6-1.3-2.2-2.9-1.8c-1,0.2-1.5,1.1-1.4,2.2
	c0.1,1.1,0.8,1.6,1.8,1.6C52.2,114.5,52.6,114.2,53.1,113.9z M16.5,98.9c1-0.1,2,0,2.9,0.1c1.2,0,1.2,0,1.2-1.2
	c0-0.1,0.1-0.3-0.1-0.3c-0.1,0-0.2,0.1-0.2,0.2c0,0.5-0.2,0.7-0.7,0.7c-0.4,0-1.1,0.2-1.2,0c-0.5-0.5-0.1-1.2-0.2-1.9
	c0-0.2-0.1-0.4,0.2-0.5c0.5-0.1,1.1,0.1,1.3,0.6c0,0.1,0.1,0.2,0.2,0.2c0.1,0,0.1-0.1,0.1-0.2c0-0.5,0-1,0-1.5c0-0.1,0-0.2-0.1-0.2
	c-0.1,0-0.2,0.1-0.2,0.2c0,0.3-0.1,0.5-0.5,0.5c-1,0-1,0.1-1-1c0-0.2,0-0.5,0-0.7c0-0.1,0-0.3,0.1-0.4c0.4-0.3,1.6,0.1,1.8,0.5
	c0,0.1,0,0.2,0.2,0.2c0.1,0,0.1-0.1,0.2-0.2c0-0.3,0.1-0.6,0.1-0.9c0-0.2-0.1-0.3-0.3-0.3c-1.2,0-2.5,0.1-3.7,0
	c-0.1,0-0.2,0.1-0.2,0.2c0,0.1,0,0.2,0.1,0.2c0.6,0,0.5,0.5,0.5,0.9c0,1,0,2.1,0,3.1C16.9,97.8,17,98.4,16.5,98.9z M26,98.8
	c0.4,0,0.7,0.1,1,0.1c0.1,0,0.2,0,0.3-0.1c0-0.1,0-0.2-0.1-0.2c-0.5,0-0.5-0.4-0.6-0.7c-0.6-1.5-1.2-3-1.8-4.5
	c-0.1-0.2-0.1-0.5-0.5-0.5c-0.4,0-0.4,0.3-0.4,0.5c-0.6,1.5-1.2,3-1.7,4.5c-0.1,0.3-0.2,0.6-0.6,0.7c-0.1,0-0.2,0.1-0.2,0.2
	c0,0.1,0.1,0.2,0.3,0.2c0.5-0.1,0.9-0.1,1.3,0c0.1,0,0.2,0,0.3-0.2c0-0.2-0.1-0.2-0.2-0.2c-0.4,0-0.4-0.3-0.3-0.6
	c0.1-0.7,0.5-0.9,1.2-0.9c1.3,0.1,1.3,0,1.5,1c0.1,0.3,0.1,0.4-0.3,0.5c-0.1,0-0.3,0-0.3,0.2c0,0.2,0.2,0.2,0.4,0.2
	C25.4,98.9,25.7,98.9,26,98.8z M55,92.9C55,92.9,55,92.9,55,92.9c-0.3,0.1-0.7,0-1,0c-0.1,0-0.3,0-0.3,0.2c0,0.1,0.1,0.2,0.2,0.2
	c0.5,0,0.5,0.4,0.5,0.7c0,1.2,0,2.5,0,3.7c0,0.4,0,0.7-0.5,0.8c-0.1,0-0.2,0.1-0.2,0.2c0,0.1,0.1,0.2,0.3,0.1c0.7-0.1,1.3,0,2,0
	c0.2,0,0.3,0,0.4-0.2c0-0.2-0.1-0.2-0.3-0.2c-0.4,0-0.5-0.3-0.5-0.7c0-0.4,0-0.8,0-1.2c0-0.3-0.2-0.7,0.3-0.6c0.4,0,1-0.2,1,0.5
	c0,0.2,0,0.3,0.2,0.2c0.2,0,0.2-0.2,0.2-0.3c-0.1-0.4-0.1-0.9,0-1.3c0-0.1,0-0.3-0.2-0.3C57,94.8,57,95,57,95.1c0,0.2,0,0.3-0.2,0.4
	c-0.6,0.3-1.2,0-1.2-0.7c0-0.2,0-0.5,0-0.7c0-0.2-0.2-0.7,0.3-0.6c0.5,0.1,1.2-0.4,1.3,0.5c0,0.1,0,0.3,0.2,0.3
	c0.2,0,0.2-0.2,0.2-0.3c0-0.2,0-0.4,0-0.5c0.1-0.4-0.1-0.5-0.5-0.5C56.5,92.9,55.8,92.9,55,92.9z M37.8,115.3c-0.4,0.4-0.3,1-0.8,1
	c-0.8,0-1.6,0-2.5,0c0.5-0.5,1-0.8,1.4-1.2c0.5-0.5,1-1,1.4-1.7c0.5-1,0.3-2-0.4-2.5c-1-0.6-2.3-0.3-2.9,0.5
	c-0.1,0.2-0.4,0.4-0.1,0.6c0.2,0.2,0.4-0.1,0.5-0.3c0.4-0.6,1-0.8,1.5-0.5c0.5,0.2,0.7,0.8,0.6,1.5c-0.2,0.7-0.6,1.2-1,1.8
	c-0.5,0.6-1,1.2-1.6,1.7c-0.3,0.2-0.3,0.5-0.2,0.7c0.1,0.3,0.3,0.1,0.5,0.1c1.1,0,2.1,0,3.2,0c0.3,0,0.5-0.1,0.5-0.4
	C37.8,116.2,37.8,115.9,37.8,115.3z M11.5,98.8c1,0,2,0.1,2.9,0.1c1.1,0,1.2,0,1.2-1.2c0-0.1,0.1-0.3-0.1-0.3
	c-0.2-0.1-0.3,0.1-0.3,0.3c0,0.5-0.4,0.6-0.8,0.6c-0.3,0-0.6,0-0.9,0c-0.3,0-0.5-0.1-0.5-0.4c0-1.4,0-2.7,0-4.1c0-0.3,0-0.6,0.4-0.6
	c0.2,0,0.3-0.1,0.2-0.3c0-0.1-0.2-0.2-0.3-0.1c-0.7,0.1-1.4,0.1-2,0c-0.1,0-0.2,0-0.3,0.2c0,0.1,0,0.2,0.2,0.2
	c0.6,0,0.5,0.5,0.5,0.9c0,1.2,0,2.3,0,3.5C11.9,98,11.9,98.5,11.5,98.8z M35.9,98.8c0.3,0,0.7,0,1,0.1c0.1,0,0.2,0,0.3-0.1
	c0.1-0.2,0-0.3-0.2-0.3c-0.4,0-0.5-0.4-0.5-0.7c0-1.3,0-2.6,0-3.9c0-0.3,0-0.7,0.4-0.7c0.2,0,0.3-0.1,0.2-0.3c0-0.1-0.2-0.1-0.3-0.1
	c-0.7,0.1-1.3,0.1-2,0c-0.1,0-0.3,0-0.3,0.2c0,0.1,0.1,0.2,0.2,0.2c0.4,0,0.5,0.3,0.5,0.6c0,1.3,0,2.7,0,4c0,0.3,0,0.6-0.4,0.6
	c-0.2,0-0.3,0.1-0.2,0.3c0.1,0.2,0.2,0.1,0.3,0.1C35.3,98.9,35.6,98.9,35.9,98.8z M59.7,98.9C59.7,98.9,59.7,98.9,59.7,98.9
	c0.3,0,0.7,0,1,0c0.1,0,0.3,0,0.3-0.2c0-0.2-0.1-0.2-0.3-0.2c-0.4,0-0.4-0.3-0.4-0.6c0-1.3,0-2.6,0-3.9c0-0.3,0-0.7,0.5-0.7
	c0.2,0,0.3-0.1,0.2-0.3c0-0.1-0.1-0.2-0.3-0.1c-0.7,0.1-1.4,0.1-2,0c-0.1,0-0.2,0-0.3,0.1c-0.1,0.2,0.1,0.3,0.2,0.3
	c0.3,0,0.4,0.2,0.5,0.5c0.1,1.4,0.1,2.8,0,4.2c0,0.2,0,0.3-0.1,0.4c-0.2,0.1-0.6-0.1-0.5,0.4c0.1,0.3,0.4,0,0.7,0.1
	C59.3,98.9,59.5,98.9,59.7,98.9z M59.5,20.7c3.1,0,6.2,0,9.4,0c0.2,0,0.4,0.1,0.4-0.2c0-0.3-0.2-0.2-0.4-0.2c-0.1,0-0.2,0-0.3,0
	c-6.1,0-12.2,0-18.3,0c-0.1,0-0.2,0-0.3,0c-0.2,0-0.3,0-0.3,0.2c0,0.2,0.2,0.1,0.3,0.2c0.2,0,0.3,0,0.5,0
	C53.5,20.7,56.5,20.7,59.5,20.7z M45.2,117c1,0,1.9,0,2.8,0c-0.9-0.1-0.9-0.8-0.9-1.5c0-1.5,0-2.9,0-4.4c0-0.2,0.1-0.5-0.2-0.4
	c-0.7,0.2-1.3,0.4-2,0.9c1.3,0.1,1.3,0.1,1.3,1.3c0,0.9,0,1.8,0,2.6C46.1,116.5,46.1,116.5,45.2,117z M26.5,20.7c3,0,6,0,9,0
	c0.1,0,0.4,0.1,0.4-0.2c0-0.3-0.2-0.2-0.4-0.2c-0.1,0-0.2,0-0.3,0c-5.8,0-11.6,0-17.4,0c-0.1,0-0.3,0-0.4,0c-0.2,0-0.3,0-0.3,0.2
	c0,0.2,0.1,0.1,0.2,0.2c0.2,0,0.3,0,0.5,0C20.8,20.7,23.7,20.7,26.5,20.7z M42.1,17.3c0.6,0.2,0.5,0.5,0.4,0.9
	c-0.3,1.1-0.5,2.2-0.8,3.4c0,0.1-0.2,0.3,0.1,0.4c0.2,0,0.5,0.1,0.6-0.2c0.1-0.2,0.1-0.3,0.2-0.5c0.1-0.5,0.4-1,0.7-1.4
	c0.1-0.2,0.3-0.5,0.6-0.3c0.2,0.1,0.1,0.4,0,0.6c-0.1,0.5-0.2,0.9-0.3,1.4c0,0.2,0,0.4,0.2,0.5c0.2,0.1,0.4,0.1,0.6-0.1
	c0.2-0.1,0.3-0.2,0.4-0.5c-0.5,0.2-0.5,0-0.4-0.4c0.1-0.4,0.2-0.8,0.3-1.2c0.1-0.2,0.1-0.5-0.2-0.7c-0.3-0.2-0.6-0.2-0.8,0
	c-0.2,0.1-0.4,0.3-0.7,0.5c0.1-0.6,0.2-1,0.3-1.5c0.3-1.2,0.3-1.2-0.9-1C42.3,17.2,42.3,17.2,42.1,17.3z M39.9,22
	c0.1-0.1,0.1-0.1,0.2-0.2c-0.9,0.2-0.7-0.3-0.7-0.7c0.2-0.9,0.3-1.8,0.5-2.7c0-0.2,0-0.4,0.3-0.5c0.3,0,0.5,0.1,0.7,0.3
	c0.1,0.2,0,0.5,0.4,0.6c0-0.2,0-0.4,0-0.6c0-0.5-0.1-0.7-0.7-0.7c-0.7,0.1-1.4,0-2.2,0c-0.7,0-0.9,0.4-0.6,1.2
	c0.3-0.6,0.6-1.1,1.3-0.8c-0.2,0.9-0.4,1.8-0.5,2.7c-0.1,0.5-0.1,1-0.7,1.2C38.6,22,39.3,22,39.9,22z M48,20.8
	c-0.4,0.4-0.7,0.8-1.1,0.9c-0.2,0.1-0.5,0.1-0.6-0.2c-0.1-0.3-0.1-0.6,0.3-0.7c0.3-0.1,0.6-0.2,0.8-0.4c0.4-0.2,0.9-0.5,0.7-1.1
	c-0.2-0.6-0.8-0.4-1.3-0.3c-0.1,0-0.2,0.1-0.3,0.1c-0.7,0.4-1.1,1.2-0.9,1.9c0.1,0.4,0.3,0.7,0.7,0.8c0.6,0.1,1.3-0.2,1.7-0.9
	C48,21,48,21,48,20.8z"/>
<path class="st1" d="M53.1,59.2c0-4.2,2.7-7.7,6.8-8.6c4.6-1,9,2.2,9.7,6.8c0.4,3.2-0.3,6.2-2.7,8.4c-5.3,5-11.9,1.2-13.3-3.8
	C53.2,61.1,53.1,60.2,53.1,59.2z M62.6,59.4c0-2.3,0-4.5,0-6.8c0-1.8,0-1.8-1.8-1.6C60.2,51,60,51.2,60,51.8c0,4.8,0,9.5,0,14.3
	c0,1.8,0.1,1.8,1.9,1.7c0.5,0,0.7-0.2,0.6-0.7C62.6,64.5,62.6,61.9,62.6,59.4z"/>
<path class="st1" d="M51.1,59c-0.1,3.1-1.1,5.7-3.7,7.6c-4,3-9.2,1.7-11.7-2.8c-2.4-4.3-1-9.4,3.1-12.1c4.6-2.9,11.1-0.1,12.1,5.4
	C51,57.7,51.1,58.3,51.1,59z M44.1,59.3c0-2.3,0-4.6,0-6.9c0-1.5-0.1-1.6-1.6-1.5c-0.1,0-0.1,0-0.2,0c-0.5,0-0.7,0.2-0.7,0.8
	c0,4.8,0,9.5,0,14.3c0,1.7,0.1,1.8,1.8,1.6c0.1,0,0.1,0,0.2,0c0.4,0,0.5-0.2,0.5-0.7C44.1,64.4,44.1,61.9,44.1,59.3z"/>
<path class="st1" d="M32.2,50.7c-0.4,2.4-2.7,4.5-5.2,4.8c-2,0.2-3.9,0.1-5.9-0.1c-1-0.1-1-0.1-1.1,0.9c-0.1,0.8-0.2,1.5-0.3,2.4
	c1-0.6,2-1,3.1-1.2c2.4-0.5,4.7-0.4,7,0.6c2.1,0.9,3.2,2.7,3.2,4.7c-0.1,2.4-1.4,3.9-3.5,4.7c-3.3,1.2-6.6,1.1-9.8-0.5
	c-0.4-0.2-0.8-0.5-1.2-0.8c-1-0.7-1.3-1.8-1-2.9c0.2-1.1,1-1.8,2.1-2.1c1.5-0.4,3,0.3,3.6,1.7c0.5,1.3,0,2.8-1.3,3.5
	c-0.3,0.2-0.7,0.3-1.2,0.5c1.3,0.7,2.6,0.8,4,0.8c1.4,0,1.4,0,1.4-1.4c0-2.7,0-5.4,0-8.1c0-0.6-0.2-0.7-0.7-0.7
	c-1.9,0-3.7,0.5-5.4,1.5c-0.2,0.1-0.3,0.3-0.6,0.1c-0.2-0.1-0.2-0.3-0.2-0.5c0.3-2.6,0.6-5.1,0.9-7.7c0.1-0.5,0.2-0.6,0.7-0.5
	c3.1,0.5,6.3,0.9,9.5,0.5C30.9,50.9,31.5,50.8,32.2,50.7z"/>
<path class="st2" d="M43.7,37.2c1.7-0.1,3.4-0.2,5.1-0.1c-0.8,0.1-0.7,0.6-0.7,1.1c0,3.3,0,6.7,0,10c0,0.3,0.1,0.5-0.2,0.8
	c-0.5-0.8-1-1.5-1.5-2.3c-0.1,0.3-0.3,0.5-0.4,0.7c-0.6,1.1-1.5,1.8-2.8,1.7c-1.4,0-2.4-0.6-3-1.8c-0.9-1.6-1.2-3.4-1.4-5.2
	c-0.3-3.4-0.4-6.9-0.1-10.3c0.1-1.9,0.4-3.7,1.1-5.4c0.3-0.9,0.8-1.8,1.6-2.4c1.5-1.3,3.1-1,4,0.7c0.3,0.5,0.4,0.5,0.7,0.1
	c0.4-0.4,0.7-0.9,1.3-1.3c0,3.5,0.2,6.9,0,10.3c-0.4-0.9-0.4-1.8-0.5-2.8c-0.3-2.2-0.7-4.3-1.7-6.2c-0.3-0.5-0.5-0.9-1-1.1
	c-0.6-0.2-1-0.1-1.3,0.5c-0.2,0.4-0.2,0.8-0.2,1.2c0,7.4,0,14.9,0.1,22.3c0,0.9,0.3,1.2,0.9,1.3c0.7,0,1-0.3,1-0.9
	c0-3.4,0-6.8,0-10.2C44.5,37.1,44,37.4,43.7,37.2z"/>
<path class="st1" d="M27.7,48.9c0-0.1,0.1-0.1,0.2-0.2c1-0.1,1-0.1,1-1.1c0-7.7,0-15.3,0-23c0-0.3,0.2-0.6-0.2-0.8
	c-0.2-0.1,0.1-0.1,0.1-0.2c0.1-0.2,0.3-0.1,0.5-0.1c2.6,0,5.2,0,7.8,0c0.3,0,0.6,0,0.6,0.4c0,3,0,6,0,9c0,0.1,0,0.2-0.2,0.3
	c-0.3-0.5-0.3-1.1-0.4-1.7c-0.4-2.2-0.8-4.4-1.8-6.5c-0.4-0.9-1.2-1.3-2.2-1.3c-0.4,0-0.5,0.1-0.5,0.5c0,3.7,0,7.4,0,11.1
	c0,0.6,0.3,0.5,0.6,0.3c0.5-0.4,0.8-0.9,1-1.5c0.4-1.3,0.7-2.6,0.8-3.9c0-0.2-0.1-0.4,0.2-0.5c0,4.2,0,8.4,0,12.7
	c-0.6-1.9-0.4-4-1.8-5.7c-0.2-0.2-0.5-0.4-0.8-0.5c-0.1,0.2-0.1,0.3-0.1,0.5c0,3.7,0,7.4,0,11.1c0,0.8,0.2,0.9,0.9,0.7
	c0.6-0.2,0.9-0.6,1.3-1.1c1.1-1.6,1.5-3.5,1.9-5.4c0.2-1,0.4-2,0.5-3.1c0-0.2,0-0.4,0.2-0.4c0.2,0,0.2,0.2,0.2,0.4
	c0,3.1,0,6.3,0,9.4c0,0.3,0,0.5-0.4,0.5C34,49,30.9,48.9,27.7,48.9C27.7,48.9,27.7,48.9,27.7,48.9z"/>
<path class="st2" d="M59.5,23.5c2,0,4,0,6.1,0c-0.1,0.2-0.3,0.2-0.4,0.2c-0.9,0-0.9,0-0.9,1c0,7.7,0,15.4,0,23.1
	c0,0.3-0.2,0.8,0.2,0.9c0.4,0.1,0.9,0.1,1.4-0.2c0.6-0.5,1-1.1,1.3-1.9c1-2.4,1.5-5,1.8-7.6c0-0.2,0-0.5,0.2-0.7
	c0.2,0.5,0.2,1,0.2,1.5c0,2.9,0,5.7,0,8.6c0,0.4-0.1,0.5-0.5,0.5c-3.1,0.1-6.1,0-9.2,0c0,0-0.1,0-0.1-0.1c0,0,0-0.1,0-0.1
	c0.8,0.1,0.9-0.4,0.9-1.1c0-4.3,0-8.6,0-12.8c0-2.6,0-5.2,0-7.7c0-0.9-0.1-1.8,0-2.7c0-0.6-0.1-0.9-0.7-0.8c-0.1,0-0.2,0-0.3-0.1
	C59.5,23.6,59.5,23.5,59.5,23.5z"/>
<path class="st1" d="M17,49c0.2-0.2,0.3-0.3,0.3-0.3c1,0.1,1-0.5,1-1.2c0-7.5,0-15,0-22.5c0-1.1,0-1.1-0.9-1.4
	c0.4-0.2,5.5-0.3,6.1,0c-0.3,0.2-0.7,0.1-1,0.1c-0.4,0-0.6,0.1-0.6,0.6c0,7.9,0,15.9,0,23.8c0,0.4,0.2,0.5,0.6,0.5
	c0.8,0,1.3-0.3,1.6-1c1.2-2.2,1.7-4.5,2.2-6.9c0.1-0.8,0.2-1.5,0.4-2.3c0.2,0,0.2,0.1,0.2,0.2c0.1,3.3,0.1,6.5,0,9.8
	c0,0.3,0,0.5-0.4,0.5C23.4,49,20.3,49,17,49z"/>
<path class="st2" d="M59,48.9c-1.8,0-3.6,0-5.4,0c0,0,0-0.1,0-0.1c0.8,0,0.9-0.5,0.8-1.1c-0.1-1.2-0.2-2.4-0.3-3.7
	c0-0.4-0.2-0.5-0.6-0.5c-0.6,0-1.3,0-1.9,0c-0.3,0-0.5,0.1-0.5,0.4c-0.1,1.1-0.3,2.1-0.4,3.2c-0.1,0.8,0.4,1.3,1.3,1.7
	c-0.4,0.3-2.4,0.3-3.4,0.1c1.8-0.4,1.7-1.8,1.8-2.9c0.8-5.4,1.6-10.8,2.4-16.2c0.3-1.9,0.6-3.7,0.8-5.6c0.1-0.4,0.2-0.6,0.7-0.6
	c1.5,0,1.5,0,1.6,1.5c0.4,3.9,0.8,7.9,1.2,11.8c0.3,3.2,0.7,6.4,1,9.6c0,0.5,0.1,0.9,0.2,1.4C58.3,48.3,58.3,48.8,59,48.9z
	 M53.1,31.2C53,31.2,53,31.2,53.1,31.2c-0.2,1.2-0.4,2.4-0.6,3.6c-0.4,2.6-0.8,5.1-1.2,7.7c-0.1,0.6,0.1,0.7,0.6,0.7
	c0.5,0,0.9,0,1.4,0c0.6,0.1,0.8-0.1,0.7-0.8c-0.2-2.2-0.4-4.5-0.5-6.7C53.3,34.2,53.2,32.7,53.1,31.2z"/>
<path class="st2" d="M38.1,75.2c-0.6,1.5-1.2,2.8-1.6,4.1c-0.2,0.7-0.7,0.4-1.1,0.5c-0.5,0.1-0.6-0.2-0.7-0.6
	c-0.4-1.2-0.9-2.4-1.2-3.6c0-0.1,0-0.2-0.2-0.3c-0.1,1.3-0.2,2.6-0.3,4c0,0.5-0.2,0.6-0.6,0.6c-1,0-1,0-0.9-1
	c0.1-1.6,0.3-3.2,0.4-4.7c0-0.3,0.1-0.4,0.5-0.4c1.9-0.1,1.9-0.1,2.6,1.7c0.3,0.8,0.5,1.6,0.8,2.4c0.3-0.1,0.2-0.4,0.3-0.6
	c0.4-1,0.8-2.1,1.2-3.1c0.1-0.3,0.2-0.4,0.5-0.4c0.5,0,1,0,1.6,0c0.3,0,0.4,0.1,0.4,0.4c0.1,1.8,0.2,3.6,0.4,5.3
	c0,0.3-0.1,0.4-0.4,0.4c-1.3,0-1.3,0.1-1.4-1.2C38.2,77.6,38.1,76.5,38.1,75.2z"/>
<path class="st3" d="M71.5,97c0.5-1.2,1.1-2.4,1.6-3.6c0.2-0.4,0.3-0.6,0.8-0.5c0.3,0.1,0.7,0,1,0c0.1,0,0.2,0,0.3,0.1
	c0,0.2,0,0.2-0.2,0.3c-0.4,0-0.5,0.3-0.5,0.7c0,1.3,0,2.6,0,3.9c0,0.3,0,0.6,0.5,0.7c0.2,0,0.2,0.1,0.2,0.3
	c-0.1,0.2-0.2,0.1-0.3,0.1c-0.6-0.1-1.3-0.1-1.9,0c-0.2,0-0.3,0.1-0.4-0.2c0-0.2,0.1-0.2,0.3-0.2c0.4,0,0.4-0.3,0.4-0.6
	c0-1.1,0-2.2-0.1-3.4c-0.4,0.9-0.8,1.7-1.2,2.6c-0.2,0.5-0.4,1-0.7,1.5c-0.1,0.1-0.1,0.4-0.3,0.4c-0.3,0-0.3-0.2-0.3-0.4
	c-0.6-1.2-1.1-2.5-1.7-3.7c-0.1-0.1-0.1-0.2-0.3-0.3c0,1.2,0,2.4,0,3.5c0,0.3,0.2,0.4,0.5,0.4c0.1,0,0.2,0.1,0.2,0.2
	c0,0.1-0.1,0.2-0.3,0.2c-0.5-0.1-0.9-0.1-1.4,0c-0.1,0-0.2,0-0.2-0.2c0-0.1,0-0.2,0.2-0.2c0.5,0,0.5-0.4,0.5-0.7
	c0.1-1.3,0.1-2.5,0-3.8c0-0.4,0-0.7-0.5-0.7c-0.1,0-0.2-0.1-0.2-0.2c0-0.1,0.1-0.2,0.3-0.2c0.5,0.1,1,0.1,1.5,0
	c0.3,0,0.3,0.3,0.4,0.4c0.5,1.1,1,2.3,1.5,3.4C71.3,96.8,71.3,97,71.5,97z"/>
<path class="st2" d="M68.3,79.9c-0.2,0-0.3,0-0.5,0c-1,0.1-1.7-0.1-1.9-1.2c0-0.2-0.1-0.4-0.4-0.4c-0.6,0-1.2,0-1.8,0
	c-0.4,0-0.3,0.4-0.5,0.6c-0.2,0.3-0.1,0.8-0.4,0.9c-0.5,0.1-1,0.1-1.5,0.1c-0.3,0-0.2-0.2-0.1-0.3c0.7-1.8,1.4-3.7,2.1-5.5
	c0.1-0.3,0.3-0.3,0.5-0.3c0.7,0.1,1.6-0.4,1.9,0.2C66.8,75.9,67.5,77.9,68.3,79.9z M64.6,74.8c-0.3,0.9-0.6,1.7-0.8,2.5
	c0.6,0,1.1,0,1.7,0C65.2,76.5,64.9,75.7,64.6,74.8z"/>
<path class="st2" d="M43.1,71.6c-8.4,0-16.7,0-25.1,0c-0.2,0-0.3,0-0.5,0c-0.2,0-0.4,0.1-0.4-0.2c0-0.2,0.2-0.1,0.4-0.2
	c0.1,0,0.3,0,0.4,0c16.8,0,33.7,0,50.5,0c0.3,0,0.7-0.2,0.7,0.2c0,0.4-0.5,0.2-0.8,0.2C60,71.6,51.6,71.6,43.1,71.6z"/>
<path class="st1" d="M18.4,76.8c0-0.8,0-1.7,0-2.5c0-0.4,0.1-0.6,0.5-0.5c1.3,0,2.5,0,3.8,0c0.5,0,0.5,0.2,0.5,0.6
	c0,0.3,0,0.6-0.5,0.6c-0.7,0-1.4,0-2.1,0c-0.6,0-0.4,0.4-0.4,0.7c0,0.3-0.2,0.7,0.4,0.7c0.6,0,1.3,0,1.9,0c0.5,0,0.5,0.2,0.5,0.6
	c0,0.4-0.1,0.6-0.5,0.5c-0.6,0-1.2,0-1.8,0c-0.5,0-0.6,0.2-0.5,0.6c0,0.2,0,0.4,0,0.5c0,0.3,0.1,0.4,0.4,0.4c0.8,0,1.6,0,2.4,0
	c0.5,0,0.5,0.3,0.5,0.6c0,0.3,0,0.5-0.5,0.5c-1.4,0-2.7,0-4.1,0c-0.4,0-0.5-0.1-0.5-0.5C18.4,78.6,18.4,77.7,18.4,76.8z"/>
<path class="st1" d="M48.6,76.8c0-0.9,0-1.7,0-2.6c0-0.3,0.1-0.4,0.4-0.4c1.3,0,2.6,0,3.9,0c0.4,0,0.5,0.2,0.5,0.5
	c0,0.3,0,0.6-0.5,0.6c-0.7,0-1.4,0-2.1,0c-0.7,0-0.4,0.4-0.5,0.7c0,0.3-0.1,0.7,0.5,0.6c0.7-0.1,1.3,0,2,0c0.5,0,0.4,0.3,0.4,0.6
	c0,0.3,0.1,0.6-0.4,0.6c-0.7,0-1.3,0-2,0c-0.4,0-0.5,0.1-0.5,0.5c0,1,0,1,1,1c0.6,0,1.2,0,1.8,0c0.5,0,0.5,0.2,0.5,0.6
	c0,0.3,0,0.6-0.4,0.5c-1.4,0-2.8,0-4.1,0c-0.4,0-0.4-0.2-0.4-0.5C48.6,78.6,48.6,77.7,48.6,76.8z"/>
<path class="st3" d="M28.6,92.9c1.2,0,2.3-0.2,3.4,0c1.1,0.2,1.8,0.9,1.9,2.1c0.2,2.4-1.1,3.9-3.5,3.9c-0.7,0-1.4,0-2.1,0
	c-0.3,0-0.4-0.1-0.2-0.3c0.3-0.2,0.2-0.5,0.2-0.7c0-1.3,0-2.6,0-3.9c0-0.4,0-0.7-0.5-0.8c-0.1,0-0.2-0.1-0.2-0.2
	c0-0.1,0.2-0.1,0.3-0.1C28.2,92.9,28.5,92.9,28.6,92.9z M29.6,95.8c0,0.7,0,1.4,0,2.1c0,0.2,0,0.4,0.3,0.5c0.7,0,1.4,0.1,2-0.4
	c0.8-0.7,1.1-2.4,0.6-3.5c-0.4-0.9-1.1-1.2-2.4-1.1c-0.4,0-0.5,0.2-0.5,0.5C29.6,94.5,29.6,95.2,29.6,95.8z"/>
<path class="st3" d="M63.7,95.7c1-0.2,1.4-0.7,1.3-1.5c-0.1-0.6-0.8-1-1.4-0.8c-0.2,0.1-0.2,0.3-0.2,0.4c0,1.4,0,2.7,0,4.1
	c0,0.3,0.1,0.6,0.5,0.6c0.1,0,0.3,0.1,0.2,0.2c0,0.2-0.2,0.2-0.3,0.2c-0.7-0.1-1.3-0.1-2,0c-0.1,0-0.2,0-0.3-0.1
	c-0.1-0.2,0-0.3,0.2-0.3c0.4,0,0.4-0.4,0.5-0.7c0.1-1.3,0.1-2.6,0-3.9c0-0.3,0-0.6-0.5-0.7c-0.1,0-0.2-0.1-0.2-0.2
	c0-0.2,0.1-0.2,0.3-0.2c1,0.2,1.9-0.1,2.9,0c0.6,0,1.2,0.1,1.4,0.8c0.2,0.7,0,1.5-0.7,1.8c-0.4,0.3-0.5,0.5-0.2,0.8
	c0.6,0.7,0.8,1.7,1.7,2.3c0.1,0.1,0.1,0.2,0.1,0.2c0,0.1-0.2,0.1-0.3,0.1c-0.7,0-1.4,0-1.8-0.9C64.7,97.2,64.2,96.5,63.7,95.7z"/>
<path class="st3" d="M43,97.1c0-1.2,0-2.3,0-3.4c0-0.3-0.2-0.4-0.5-0.5c-0.1,0-0.2-0.1-0.2-0.2c0-0.2,0.1-0.2,0.3-0.2
	c0.5,0.1,0.9,0.1,1.3,0c0.1,0,0.3,0,0.3,0.2c0,0.2-0.1,0.2-0.2,0.2c-0.5,0-0.5,0.3-0.5,0.7c0,1.5,0,3,0,4.5c0,0.2,0.2,0.5-0.1,0.6
	c-0.3,0.1-0.6,0-0.8-0.3c-0.7-1-1.5-1.9-2.3-2.9c-0.4-0.5-0.7-0.9-1.2-1.5c0,1.4,0,2.6,0,3.8c0,0.3,0.2,0.4,0.5,0.4
	c0.1,0,0.2,0.1,0.2,0.2c0,0.2-0.1,0.2-0.3,0.2c-0.4-0.1-0.9-0.1-1.3,0c-0.1,0-0.2,0-0.3-0.1c0-0.2,0-0.3,0.2-0.3
	c0.4,0,0.4-0.3,0.4-0.6c0-1.3,0-2.6,0-3.9c0-0.3,0-0.7-0.5-0.7c-0.1,0-0.2-0.1-0.2-0.2c0-0.2,0.2-0.2,0.3-0.2c0.4,0.1,0.7,0.1,1.1,0
	c0.3-0.1,0.4,0.2,0.6,0.4C40.8,94.5,41.8,95.8,43,97.1z"/>
<path class="st3" d="M51,96.6c-0.5,0.3-0.5,0.9-0.4,1.3c0.1,0.5-0.1,0.7-0.6,0.8c-0.9,0.2-1.9,0.4-2.9,0.2c-1.4-0.4-2.3-1.7-2.2-3.3
	c0.1-1.6,1.1-2.7,2.7-2.8c0.8-0.1,1.7,0,2.5,0.2c0.2,0.1,0.5,0.1,0.5,0.4c0,0.4-0.1,0.8-0.2,1.2c0,0.1-0.3,0.1-0.3-0.1
	c0-0.8-0.5-1-1.1-1.1c-0.7-0.2-1.4-0.1-2,0.5c-1.1,1-0.9,3.5,0.3,4.4c0.3,0.2,0.7,0.4,1.1,0.4c0.8,0,1.1-0.2,1.1-1.1
	c0-0.3-0.1-0.6-0.5-0.6c-0.2,0-0.4,0-0.4-0.2c0-0.3,0.3-0.2,0.4-0.2c0.7,0,1.3,0,2,0C51,96.5,51,96.6,51,96.6z"/>
<path class="st3" d="M43.9,113.9c-0.1,0.4-0.1,0.9-0.2,1.3c-0.2,1.3-1,1.9-2.2,1.9c-1.3,0-2-0.7-2.3-1.9c-0.2-1.1-0.2-2.1,0.1-3.2
	c0.3-1,1-1.4,2.1-1.4c1.1,0,1.8,0.5,2.1,1.5C43.8,112.7,43.8,113.3,43.9,113.9z M42.7,113.9c0-0.7,0-1.4-0.2-2
	c-0.2-0.5-0.5-0.8-1-0.8c-0.5,0-0.9,0.3-1,0.8c-0.3,1.3-0.4,2.7,0,4c0.1,0.5,0.5,0.8,1,0.8c0.5,0,0.8-0.3,1-0.8
	C42.7,115.3,42.7,114.6,42.7,113.9z"/>
<path class="st3" d="M53.1,113.9c-0.5,0.3-0.9,0.6-1.4,0.5c-1.1,0-1.7-0.5-1.8-1.6c-0.1-1.1,0.4-1.9,1.4-2.2
	c1.6-0.4,2.6,0.2,2.9,1.8c0.2,0.9,0.1,1.8-0.1,2.7c-0.4,1.4-1.4,2.1-3,1.9c-0.3-0.1-1,0.1-1-0.3c0-0.5,0.6-0.1,0.9-0.1
	c1.2,0,1.8-0.5,2-1.7C53,114.7,53,114.4,53.1,113.9z M53.1,113c-0.1-0.5-0.1-0.9-0.3-1.4c-0.2-0.4-0.5-0.6-0.9-0.6
	c-0.4,0-0.7,0.3-0.8,0.7c-0.2,0.5-0.2,1,0,1.5c0.2,0.5,0.5,0.9,1,0.7C52.6,113.9,53,113.5,53.1,113z"/>
<path class="st3" d="M16.5,98.9c0.5-0.5,0.4-1,0.4-1.6c0-1,0-2.1,0-3.1c0-0.4,0.1-0.9-0.5-0.9c-0.1,0-0.1-0.1-0.1-0.2
	c0-0.1,0.1-0.2,0.2-0.2c1.2,0.1,2.5,0,3.7,0c0.2,0,0.3,0.1,0.3,0.3c0,0.3-0.1,0.6-0.1,0.9c0,0.1,0,0.2-0.2,0.2
	C20,94.2,20,94.1,20,94c-0.1-0.5-1.4-0.9-1.8-0.5c-0.1,0.1-0.1,0.2-0.1,0.4c0,0.2,0,0.5,0,0.7c0,1,0,1,1,1c0.4,0,0.5-0.2,0.5-0.5
	c0-0.1,0.1-0.2,0.2-0.2c0.1,0,0.1,0.1,0.1,0.2c0,0.5,0,1,0,1.5c0,0.1,0,0.2-0.1,0.2c-0.1,0-0.2-0.1-0.2-0.2
	c-0.2-0.5-0.8-0.7-1.3-0.6c-0.3,0.1-0.2,0.3-0.2,0.5c0.1,0.6-0.3,1.4,0.2,1.9c0.2,0.2,0.8,0,1.2,0c0.5,0,0.7-0.3,0.7-0.7
	c0-0.1,0.1-0.2,0.2-0.2c0.2,0,0.1,0.2,0.1,0.3c0,1.2,0,1.2-1.2,1.2C18.5,98.9,17.5,98.8,16.5,98.9z"/>
<path class="st3" d="M26,98.8c-0.3,0-0.6,0-1,0.1c-0.1,0-0.3,0-0.4-0.2c0-0.2,0.1-0.2,0.3-0.2c0.3,0,0.3-0.2,0.3-0.5
	c-0.2-1-0.2-0.9-1.5-1c-0.7,0-1.1,0.2-1.2,0.9c0,0.3-0.1,0.6,0.3,0.6c0.2,0,0.3,0.1,0.2,0.2c0,0.1-0.1,0.2-0.3,0.2
	c-0.5-0.1-0.9-0.1-1.3,0c-0.1,0-0.2,0-0.3-0.2c0-0.1,0-0.2,0.2-0.2c0.4,0,0.5-0.4,0.6-0.7c0.6-1.5,1.2-3,1.7-4.5
	c0.1-0.2,0.1-0.5,0.4-0.5c0.4,0,0.4,0.3,0.5,0.5c0.6,1.5,1.2,3,1.8,4.5c0.1,0.3,0.2,0.7,0.6,0.7c0.2,0,0.2,0.1,0.1,0.2
	c0,0.2-0.1,0.2-0.3,0.1C26.7,98.9,26.4,98.9,26,98.8z M23.8,94.4c-0.2,0.4-0.3,0.7-0.4,1.1c-0.5,1.2-0.4,1.3,0.9,1.1
	c0.3,0,0.3-0.2,0.2-0.4C24.3,95.7,24.1,95.1,23.8,94.4z"/>
<path class="st3" d="M55,92.9c0.7,0,1.5,0,2.2,0c0.4,0,0.6,0.1,0.5,0.5c-0.1,0.2,0,0.4,0,0.5c0,0.1,0,0.3-0.2,0.3
	c-0.2,0-0.2-0.1-0.2-0.3c-0.1-0.9-0.9-0.4-1.3-0.5c-0.5-0.1-0.3,0.4-0.3,0.6c0,0.2,0,0.5,0,0.7c0,0.7,0.6,1,1.2,0.7
	c0.2-0.1,0.2-0.2,0.2-0.4c0-0.1,0-0.3,0.2-0.3c0.2,0,0.2,0.2,0.2,0.3c-0.1,0.4-0.1,0.9,0,1.3c0,0.1,0,0.3-0.2,0.3
	c-0.2,0-0.2-0.1-0.2-0.2c0-0.7-0.6-0.5-1-0.5c-0.5,0-0.3,0.4-0.3,0.6c0,0.4,0,0.8,0,1.2c0,0.3,0,0.6,0.5,0.7c0.1,0,0.3,0,0.3,0.2
	c0,0.2-0.2,0.2-0.4,0.2c-0.7,0-1.3-0.1-2,0c-0.1,0-0.2,0-0.3-0.1c0-0.1,0-0.2,0.2-0.2c0.5,0,0.5-0.4,0.5-0.8c0-1.2,0-2.5,0-3.7
	c0-0.3,0-0.7-0.5-0.7c-0.1,0-0.2-0.1-0.2-0.2c0-0.2,0.2-0.2,0.3-0.2C54.4,92.9,54.7,92.9,55,92.9C55,92.9,55,92.9,55,92.9z"/>
<path class="st3" d="M37.8,115.3c0,0.5,0,0.9,0,1.3c0,0.4-0.1,0.5-0.5,0.4c-1.1,0-2.1,0-3.2,0c-0.2,0-0.5,0.1-0.5-0.1
	c-0.1-0.2-0.1-0.5,0.2-0.7c0.6-0.5,1.1-1.1,1.6-1.7c0.4-0.5,0.8-1.1,1-1.8c0.2-0.7,0-1.3-0.6-1.5c-0.5-0.2-1.1,0-1.5,0.5
	c-0.1,0.2-0.3,0.5-0.5,0.3c-0.2-0.2,0-0.4,0.1-0.6c0.6-0.9,2-1.1,2.9-0.5c0.7,0.5,0.9,1.5,0.4,2.5c-0.3,0.7-0.8,1.2-1.4,1.7
	c-0.4,0.4-0.9,0.8-1.4,1.2c0.9,0,1.7,0,2.5,0C37.5,116.3,37.4,115.7,37.8,115.3z"/>
<path class="st3" d="M11.5,98.8c0.4-0.4,0.4-0.8,0.4-1.3c0-1.2,0-2.3,0-3.5c0-0.4,0.1-0.8-0.5-0.9c-0.2,0-0.2-0.1-0.2-0.2
	c0-0.1,0.1-0.2,0.3-0.2c0.7,0.1,1.4,0.1,2,0c0.1,0,0.2,0,0.3,0.1c0,0.2-0.1,0.2-0.2,0.3c-0.4,0-0.4,0.3-0.4,0.6c0,1.4,0,2.7,0,4.1
	c0,0.4,0.1,0.5,0.5,0.4c0.3,0,0.6,0,0.9,0c0.5,0,0.8-0.1,0.8-0.6c0-0.2,0-0.3,0.3-0.3c0.2,0.1,0.1,0.2,0.1,0.3
	c-0.1,1.2-0.1,1.2-1.2,1.2C13.4,98.9,12.5,98.8,11.5,98.8z"/>
<path class="st4" d="M35.9,98.8c-0.3,0-0.6,0-0.9,0.1c-0.1,0-0.3,0.1-0.3-0.1c-0.1-0.2,0-0.2,0.2-0.3c0.4,0,0.4-0.3,0.4-0.6
	c0-1.3,0-2.7,0-4c0-0.3-0.1-0.6-0.5-0.6c-0.1,0-0.2-0.1-0.2-0.2c0-0.2,0.1-0.2,0.3-0.2c0.7,0.1,1.3,0.1,2,0c0.1,0,0.2,0,0.3,0.1
	c0.1,0.2,0,0.2-0.2,0.3c-0.4,0-0.4,0.4-0.4,0.7c0,1.3,0,2.6,0,3.9c0,0.3,0,0.7,0.5,0.7c0.2,0,0.2,0.1,0.2,0.3c0,0.1-0.2,0.1-0.3,0.1
	C36.6,98.9,36.2,98.9,35.9,98.8z"/>
<path class="st3" d="M59.7,98.9c-0.2,0-0.4,0-0.5,0c-0.2,0-0.6,0.2-0.7-0.1c-0.2-0.4,0.3-0.2,0.5-0.4c0.1-0.1,0.1-0.3,0.1-0.4
	c0.1-1.4,0.1-2.8,0-4.2c0-0.3-0.1-0.5-0.5-0.5c-0.2,0-0.3-0.1-0.2-0.3c0-0.1,0.2-0.1,0.3-0.1c0.7,0.1,1.4,0.1,2,0
	c0.1,0,0.2,0,0.3,0.1c0.1,0.2,0,0.2-0.2,0.3c-0.4,0-0.5,0.3-0.5,0.7c0,1.3,0,2.6,0,3.9c0,0.3,0.1,0.6,0.4,0.6c0.1,0,0.3,0,0.3,0.2
	c0,0.2-0.2,0.2-0.3,0.2C60.3,98.9,60,98.9,59.7,98.9C59.7,98.9,59.7,98.9,59.7,98.9z"/>
<path class="st2" d="M59.5,20.7c-3,0-6,0-9,0c-0.2,0-0.3,0-0.5,0c-0.1,0-0.3,0-0.3-0.2c0-0.2,0.2-0.2,0.3-0.2c0.1,0,0.2,0,0.3,0
	c6.1,0,12.2,0,18.3,0c0.1,0,0.2,0,0.3,0c0.2,0,0.4-0.1,0.4,0.2c0,0.3-0.3,0.2-0.4,0.2C65.8,20.7,62.6,20.7,59.5,20.7z"/>
<path class="st4" d="M45.2,117c1-0.4,1-0.4,1-1.5c0-0.9,0-1.8,0-2.6c0-1.2,0-1.2-1.3-1.3c0.7-0.4,1.4-0.7,2-0.9
	c0.3-0.1,0.2,0.3,0.2,0.4c0,1.5,0,2.9,0,4.4c0,0.7,0,1.3,0.9,1.5C47.1,117,46.2,117,45.2,117z"/>
<path class="st2" d="M26.5,20.7c-2.9,0-5.8,0-8.6,0c-0.2,0-0.3,0-0.5,0c-0.1,0-0.2,0-0.2-0.2c0-0.2,0.1-0.2,0.3-0.2
	c0.1,0,0.3,0,0.4,0c5.8,0,11.6,0,17.4,0c0.1,0,0.2,0,0.3,0c0.2,0,0.4-0.1,0.4,0.2c0,0.3-0.3,0.2-0.4,0.2
	C32.5,20.7,29.5,20.7,26.5,20.7z"/>
<path class="st2" d="M42.1,17.3c0.2-0.1,0.2-0.1,0.3-0.1c1.2-0.2,1.2-0.2,0.9,1c-0.1,0.5-0.2,0.9-0.3,1.5c0.3-0.2,0.5-0.4,0.7-0.5
	c0.3-0.1,0.6-0.2,0.8,0c0.2,0.2,0.2,0.4,0.2,0.7c-0.1,0.4-0.2,0.8-0.3,1.2c-0.1,0.3-0.1,0.6,0.4,0.4c-0.1,0.3-0.2,0.4-0.4,0.5
	c-0.2,0.1-0.4,0.2-0.6,0.1c-0.2-0.1-0.3-0.3-0.2-0.5c0.1-0.5,0.2-0.9,0.3-1.4c0.1-0.2,0.2-0.5,0-0.6c-0.3-0.2-0.5,0.1-0.6,0.3
	c-0.3,0.4-0.6,0.9-0.7,1.4c0,0.2-0.1,0.3-0.2,0.5c-0.1,0.3-0.4,0.2-0.6,0.2c-0.2,0-0.1-0.2-0.1-0.4c0.3-1.1,0.5-2.2,0.8-3.4
	C42.6,17.7,42.6,17.4,42.1,17.3z"/>
<path class="st2" d="M39.9,22c-0.7,0-1.3,0-2,0c0.6-0.2,0.6-0.7,0.7-1.2c0.1-0.9,0.3-1.8,0.5-2.7c-0.7-0.3-1.1,0.2-1.3,0.8
	c-0.3-0.8,0-1.2,0.6-1.2c0.7,0,1.5,0.1,2.2,0c0.6-0.1,0.7,0.2,0.7,0.7c0,0.2,0,0.4,0,0.6c-0.4-0.1-0.3-0.4-0.4-0.6
	c-0.2-0.2-0.4-0.3-0.7-0.3C40,18,40,18.2,40,18.4c-0.2,0.9-0.4,1.8-0.5,2.7c-0.1,0.4-0.2,0.8,0.7,0.7C40.1,21.8,40,21.9,39.9,22z"/>
<path class="st2" d="M48,20.8c0,0.2,0,0.3,0,0.3c-0.4,0.7-1.1,1.1-1.7,0.9c-0.4-0.1-0.7-0.4-0.7-0.8c-0.1-0.8,0.2-1.6,0.9-1.9
	c0.1-0.1,0.2-0.1,0.3-0.1c0.5-0.1,1.1-0.3,1.3,0.3c0.2,0.5-0.3,0.8-0.7,1.1c-0.2,0.2-0.5,0.3-0.8,0.4c-0.4,0.1-0.4,0.4-0.3,0.7
	c0.1,0.3,0.4,0.2,0.6,0.2C47.4,21.6,47.6,21.2,48,20.8z M46.4,20.6c0.5-0.1,0.9-0.4,1.1-0.8c0.1-0.1,0.2-0.3,0-0.5
	c-0.2-0.1-0.4-0.1-0.5,0.1C46.6,19.7,46.5,20.1,46.4,20.6z"/>
<path class="st5" d="M62.6,59.4c0,2.5,0,5.1,0,7.6c0,0.5-0.2,0.7-0.6,0.7C60.1,67.9,60,67.8,60,66c0-4.8,0-9.5,0-14.3
	c0-0.6,0.2-0.7,0.7-0.8c1.8-0.2,1.8-0.2,1.8,1.6C62.6,54.9,62.6,57.1,62.6,59.4z"/>
<path class="st5" d="M44.1,59.3c0,2.6,0,5.1,0,7.7c0,0.4-0.1,0.6-0.5,0.7c-0.1,0-0.1,0-0.2,0c-1.7,0.2-1.8,0.1-1.8-1.6
	c0-4.8,0-9.5,0-14.3c0-0.6,0.2-0.8,0.7-0.8c0.1,0,0.1,0,0.2,0c1.5-0.1,1.6,0,1.6,1.5C44.1,54.7,44.1,57,44.1,59.3z"/>
<path class="st5" d="M53.1,31.2c0.1,1.5,0.3,3.1,0.4,4.6c0.2,2.2,0.3,4.5,0.5,6.7c0.1,0.6-0.1,0.8-0.7,0.8c-0.4,0-0.9,0-1.4,0
	c-0.5,0-0.7-0.2-0.6-0.7c0.4-2.6,0.8-5.1,1.2-7.7C52.6,33.6,52.8,32.4,53.1,31.2C53,31.2,53,31.2,53.1,31.2z"/>
<path class="st5" d="M64.6,74.8c0.3,0.9,0.6,1.7,0.9,2.5c-0.6,0-1.1,0-1.7,0C64.1,76.5,64.3,75.7,64.6,74.8z"/>
<path class="st5" d="M29.6,95.8c0-0.7,0-1.3,0-2c0-0.3,0.1-0.5,0.5-0.5c1.3-0.1,2.1,0.2,2.4,1.1c0.5,1.1,0.2,2.9-0.6,3.5
	c-0.6,0.5-1.3,0.4-2,0.4c-0.3,0-0.3-0.3-0.3-0.5C29.6,97.2,29.6,96.5,29.6,95.8z"/>
<path class="st5" d="M42.7,113.9c0,0.7,0,1.4-0.2,2c-0.2,0.5-0.5,0.8-1,0.8c-0.5,0-0.9-0.3-1-0.8c-0.4-1.3-0.3-2.7,0-4
	c0.1-0.5,0.5-0.8,1-0.8c0.5,0,0.9,0.3,1,0.8C42.7,112.5,42.7,113.2,42.7,113.9z"/>
<path class="st5" d="M53.1,113c-0.1,0.5-0.4,0.9-1,1c-0.6,0.1-0.9-0.2-1-0.7c-0.2-0.5-0.1-1,0-1.5c0.1-0.4,0.4-0.6,0.8-0.7
	c0.4,0,0.7,0.2,0.9,0.6C53,112.1,53,112.5,53.1,113z"/>
<path class="st5" d="M23.8,94.4c0.3,0.7,0.5,1.2,0.7,1.8c0.1,0.2,0.1,0.3-0.2,0.4c-1.3,0.1-1.3,0.1-0.9-1.1
	C23.5,95.2,23.6,94.8,23.8,94.4z"/>
<path class="st5" d="M46.4,20.6c0.1-0.5,0.3-0.9,0.6-1.2c0.1-0.1,0.3-0.2,0.5-0.1c0.2,0.1,0.1,0.3,0,0.5
	C47.2,20.2,46.9,20.4,46.4,20.6z"/>
<rect x="27.7" y="110.2" class="st0" width="28.1" height="8.7"/>
<g>
	<path class="st3" d="M33.2,113.8h-0.3c0.1-0.4,0.2-0.8,0.2-1.2c0.3-0.2,0.5-0.4,0.8-0.5c0.3-0.1,0.6-0.2,0.8-0.2
		c0.3,0,0.6,0.1,0.9,0.2s0.5,0.4,0.7,0.7c0.1,0.3,0.2,0.6,0.2,0.9c0,0.3-0.1,0.6-0.2,0.9c-0.1,0.4-0.4,0.8-0.7,1.2s-1,1.2-2.1,2.4h2
		c0.3,0,0.5,0,0.6-0.1c0.1-0.1,0.2-0.2,0.3-0.5c0,0,0-0.1,0.1-0.1H37c-0.3,0.6-0.5,1.1-0.6,1.5c-0.7,0-1.2-0.1-1.8-0.1
		c-0.5,0-1.2,0-2.1,0.1v-0.3c1-1,1.7-1.8,2.1-2.3c0.4-0.5,0.7-1,0.9-1.4c0.1-0.3,0.2-0.6,0.2-0.9c0-0.4-0.1-0.8-0.3-1
		c-0.2-0.2-0.5-0.3-0.8-0.3c-0.3,0-0.6,0.1-0.8,0.3C33.6,113.1,33.4,113.4,33.2,113.8z"/>
	<path class="st3" d="M37.7,115.6c0-1.4,0.2-2.4,0.7-3c0.4-0.5,0.9-0.8,1.6-0.8c0.4,0,0.8,0.1,1.1,0.3c0.3,0.2,0.6,0.6,0.7,1
		c0.2,0.5,0.3,1.1,0.3,1.9c0,0.8-0.1,1.5-0.2,2.1c-0.2,0.6-0.4,1.1-0.8,1.4c-0.3,0.2-0.7,0.4-1.1,0.4c-0.7,0-1.3-0.3-1.6-0.9
		C37.9,117.6,37.7,116.7,37.7,115.6z M38.7,115.4c0,0.7,0,1.2,0.1,1.6c0.1,0.4,0.2,0.7,0.3,1c0.1,0.3,0.3,0.4,0.4,0.5
		c0.1,0.1,0.3,0.1,0.5,0.1c0.2,0,0.4-0.1,0.6-0.2s0.3-0.4,0.4-0.8c0.1-0.4,0.2-1,0.2-1.8c0-0.7-0.1-1.5-0.2-2.1
		c-0.1-0.3-0.1-0.5-0.2-0.7c-0.1-0.2-0.2-0.4-0.4-0.5c-0.1-0.1-0.3-0.1-0.5-0.1c-0.2,0-0.4,0.1-0.5,0.2c-0.1,0.1-0.3,0.3-0.4,0.5
		c-0.1,0.1-0.1,0.4-0.2,0.7C38.7,114.1,38.7,114.7,38.7,115.4z"/>
	<path class="st3" d="M43.4,113.8h-0.3c0.1-0.4,0.2-0.8,0.2-1.2c0.3-0.2,0.5-0.4,0.8-0.5c0.3-0.1,0.6-0.2,0.8-0.2
		c0.3,0,0.6,0.1,0.9,0.2s0.5,0.4,0.7,0.7c0.1,0.3,0.2,0.6,0.2,0.9c0,0.3-0.1,0.6-0.2,0.9c-0.1,0.4-0.4,0.8-0.7,1.2s-1,1.2-2.1,2.4h2
		c0.3,0,0.5,0,0.6-0.1c0.1-0.1,0.2-0.2,0.3-0.5c0,0,0-0.1,0.1-0.1h0.4c-0.3,0.6-0.5,1.1-0.6,1.5c-0.7,0-1.2-0.1-1.8-0.1
		c-0.5,0-1.2,0-2.1,0.1v-0.3c1-1,1.7-1.8,2.1-2.3c0.4-0.5,0.7-1,0.9-1.4c0.1-0.3,0.2-0.6,0.2-0.9c0-0.4-0.1-0.8-0.3-1
		s-0.5-0.3-0.8-0.3c-0.3,0-0.6,0.1-0.8,0.3C43.8,113.1,43.6,113.4,43.4,113.8z"/>
	<path class="st3" d="M47.9,115.6c0-1.4,0.2-2.4,0.7-3c0.4-0.5,0.9-0.8,1.6-0.8c0.4,0,0.8,0.1,1.1,0.3c0.3,0.2,0.6,0.6,0.7,1
		c0.2,0.5,0.3,1.1,0.3,1.9c0,0.8-0.1,1.5-0.2,2.1c-0.2,0.6-0.4,1.1-0.8,1.4c-0.3,0.2-0.7,0.4-1.1,0.4c-0.7,0-1.3-0.3-1.6-0.9
		C48.1,117.6,47.9,116.7,47.9,115.6z M48.9,115.4c0,0.7,0,1.2,0.1,1.6c0.1,0.4,0.2,0.7,0.3,1s0.3,0.4,0.4,0.5
		c0.1,0.1,0.3,0.1,0.5,0.1c0.2,0,0.4-0.1,0.6-0.2s0.3-0.4,0.4-0.8c0.1-0.4,0.2-1,0.2-1.8c0-0.7-0.1-1.5-0.2-2.1
		c-0.1-0.3-0.1-0.5-0.2-0.7c-0.1-0.2-0.2-0.4-0.3-0.5c-0.1-0.1-0.3-0.1-0.5-0.1c-0.2,0-0.4,0.1-0.5,0.2c-0.1,0.1-0.3,0.3-0.4,0.5
		c-0.1,0.1-0.1,0.4-0.2,0.7C48.9,114.1,48.9,114.7,48.9,115.4z"/>
</g>
</svg>
