<?xml version="1.0" encoding="utf-8"?>
<!-- Generator: Adobe Illustrator 22.1.0, SVG Export Plug-In . SVG Version: 6.00 Build 0)  -->
<svg version="1.1" id="Layer_1" xmlns="http://www.w3.org/2000/svg" xmlns:xlink="http://www.w3.org/1999/xlink" x="0px" y="0px"
	 viewBox="0 0 86 144" style="enable-background:new 0 0 86 144;" xml:space="preserve">
<style type="text/css">
	.st0{fill:#FFFFFF;}
	.st1{fill:#00A379;}
	.st2{fill:#00A684;}
	.st3{fill:#B0B2B4;}
	.st4{fill:#00A683;}
	.st5{fill:#00A784;}
	.st6{fill:#A6A8AB;}
	.st7{fill:#F9FCFB;}
	.st8{fill:#292627;}
	.st9{fill:#808184;}
	.st10{fill:#D0D2D3;}
	.st11{fill:#2C292A;}
	.st12{fill:#595A5C;}
	.st13{fill:#454547;}
</style>
<g>
	<path class="st0" d="M0.8,115.5c0-0.2,0-0.5,0-0.7c0-38,0-76.1,0-114.1C0.8,0,0.8,0,1.4,0c27.7,0,55.5,0,83.2,0
		c0.7,0,0.6-0.1,0.6,0.6c0,38.1,0,76.2,0,114.2c0,0.2,0,0.4,0,0.6c-0.1,0-0.2,0-0.3,0c-0.2,0-0.4,0-0.6,0c-0.2,0-0.3,0-0.5,0
		c-27.5,0-54.9,0-82.4,0c-0.2,0-0.3,0-0.5,0C0.9,115.5,0.8,115.5,0.8,115.5z M73,15.5c0-0.5,0-1-0.1-1.5c-1-4.7-4.9-7.8-9.7-7.9
		c-13.7,0-27.4,0-41,0c-3.1,0-5.7,1.2-7.6,3.6c-1.3,1.6-2.1,3.5-2.1,5.6c0,0.2,0,0.4,0,0.6c0,13.7,0,27.3,0,41c0,0.2,0,0.4,0,0.7
		c0,0.3,0,0.5,0,0.8c0.7,5,5,8.5,9.8,8.4c13.6,0,27.3,0,40.9,0c3.1,0,5.7-1.2,7.7-3.6c1.3-1.6,2.1-3.5,2.1-5.7c0-0.2,0-0.4,0-0.5
		c0-13.6,0-27.3,0-40.9C73,15.8,73,15.7,73,15.5z M51.4,94.6C51.4,94.6,51.4,94.6,51.4,94.6c0.1,0.1,0.1,0.1,0.1,0.2
		c0,1.4,0,2.8,0,4.2c0,0.7,0,0.6,0.6,0.7c0.3,0,0.5-0.1,0.5-0.4c0-1.5,0-3.1,0-4.6c0-0.4,0.1-0.9-0.1-1.2c-0.2-0.3-0.8,0-1.2-0.1
		c-0.3,0-0.5,0.1-0.6,0.4c-0.5,1.3-1,2.6-1.5,4c-0.4-1.1-0.8-2.1-1.2-3.2c-0.5-1.3-0.5-1.3-1.8-1.3c-0.3,0-0.4,0.1-0.4,0.3
		c0,1.9,0,3.8,0,5.7c0,0.2,0,0.3,0.3,0.3c0.8,0,0.8,0,0.8-0.8c0-0.8,0-1.5,0-2.3c0-0.7,0-1.4,0-2c0.1,0.1,0.1,0.2,0.2,0.3
		c0.5,1.4,1,2.9,1.6,4.3c0.1,0.3,0.2,0.5,0.6,0.5c0.4,0,0.5-0.2,0.6-0.5c0.3-0.8,0.6-1.6,0.9-2.4C50.8,96.1,51.1,95.3,51.4,94.6z
		 M32.1,83.9C32.2,83.9,32.2,83.9,32.1,83.9c0.7,1.6,1.2,3.1,1.8,4.7c0.1,0.3,0.3,0.3,0.5,0.3c0.3,0,0.4,0,0.5-0.3
		c0.3-0.9,0.7-1.9,1-2.8c0.2-0.7,0.5-1.3,0.7-2c0.1,0.1,0.1,0.2,0.1,0.3c0,1.5,0,3,0,4.5c0,0.3,0,0.4,0.3,0.4c0.1,0,0.2,0,0.3,0
		c0.4,0.1,0.4-0.1,0.4-0.4c0-1.6,0-3.1,0-4.7c0-0.4,0.2-0.9-0.1-1.1c-0.2-0.2-0.7,0-1.1-0.1c-0.4,0-0.6,0.1-0.7,0.5
		c-0.5,1.3-1,2.6-1.5,3.9c-0.4-1.1-0.8-2.1-1.2-3.2c-0.5-1.3-0.5-1.3-1.9-1.2c-0.3,0-0.3,0.1-0.3,0.3c0,1.9,0,3.8,0,5.7
		c0,0.1,0,0.3,0.1,0.3c0.3,0,0.6,0.1,0.9,0c0.2,0,0.1-0.3,0.1-0.5C32.1,86.9,32.1,85.4,32.1,83.9z M42.9,87
		c-0.4-1.1-0.8-2.1-1.2-3.2c-0.5-1.3-0.5-1.3-1.9-1.2c-0.2,0-0.3,0-0.3,0.3c0,1.9,0,3.8,0,5.7c0,0.1,0,0.3,0.1,0.3
		c0.3,0,0.6,0.1,0.9,0c0.2-0.1,0.1-0.3,0.1-0.5c0-1.5,0-3,0-4.5c0.1,0.1,0.1,0.2,0.2,0.3c0.5,1.4,1.1,2.9,1.6,4.3
		c0.1,0.3,0.2,0.4,0.6,0.4c0.3,0,0.4-0.1,0.5-0.4c0.5-1.4,1-2.9,1.6-4.3c0-0.1,0-0.3,0.2-0.3c0,0.1,0,0.2,0,0.3c0,1.5,0,2.9,0,4.4
		c0,0.3,0.1,0.4,0.4,0.4c0.1,0,0.2,0,0.2,0c0.4,0.1,0.5-0.1,0.5-0.5c0-1.6,0-3.2,0-4.7c0-0.4,0.2-0.8-0.1-1c-0.2-0.2-0.7,0-1-0.1
		c-0.5-0.1-0.7,0.1-0.8,0.6C43.9,84.5,43.4,85.7,42.9,87z M54.7,84.2C54.7,84.2,54.7,84.2,54.7,84.2c0.9,1.3,1.8,2.5,2.6,3.9
		c0.4,0.7,0.8,1,1.6,0.9c0.3,0,0.4-0.1,0.4-0.4c0-1.7,0-3.4,0-5.1c0-0.8,0-0.8-0.8-0.8c-0.3,0-0.4,0.1-0.4,0.4c0,1.3,0,2.6,0,3.8
		c0,0.1,0,0.2,0,0.5c-0.9-1.3-1.7-2.5-2.4-3.8c-0.4-0.7-0.9-1.1-1.7-0.9c-0.3,0-0.4,0.1-0.4,0.4c0,1.8,0,3.7,0,5.5
		c0,0.3,0.1,0.4,0.4,0.4c0.1,0,0.2,0,0.3,0c0.4,0.1,0.5-0.1,0.5-0.5C54.7,87.1,54.7,85.7,54.7,84.2z M26.5,82.5
		c-2,0-3.4,1.3-3.4,3.3c0,1.9,1.4,3.3,3.3,3.3c2,0,3.4-1.4,3.4-3.4C29.8,83.8,28.5,82.5,26.5,82.5z M60.8,85.8c0,0.9,0,1.9,0,2.8
		c0,0.1,0,0.3,0.2,0.3c1,0,2,0.1,3-0.1c1.7-0.4,2.7-1.7,2.5-3.4c-0.2-1.7-1.4-2.8-3.1-2.8c-0.7,0-1.5,0-2.2,0
		c-0.3,0-0.4,0.1-0.4,0.4C60.8,83.9,60.8,84.9,60.8,85.8z M73.4,85.8c0,0.9,0,1.9,0,2.8c0,0.1-0.1,0.3,0.2,0.3c1,0,2.1,0.1,3.1-0.1
		c1.7-0.5,2.6-1.8,2.4-3.6c-0.2-1.6-1.4-2.6-3.1-2.6c-0.7,0-1.5,0-2.2,0c-0.3,0-0.3,0.1-0.3,0.3C73.4,83.9,73.4,84.8,73.4,85.8z
		 M44.6,99.6c-0.5-0.8-0.9-1.6-1.4-2.3c-0.1-0.2-0.3-0.4,0.2-0.5c0.5-0.1,0.9-0.5,1-1.1c0.3-1.2-0.3-2.2-1.6-2.3
		c-0.8-0.1-1.7,0-2.5-0.1c-0.3,0-0.4,0.1-0.4,0.4c0,1.7,0,3.5,0,5.2c0,0.8,0,0.8,0.8,0.8c0.3,0,0.4-0.1,0.4-0.4c0-0.7,0-1.4,0-2
		c0-0.2,0-0.3,0.3-0.3c0.4,0,0.6,0.1,0.8,0.4c0.2,0.4,0.5,0.8,0.6,1.2C43,99.5,43.6,99.9,44.6,99.6z M10.5,88.9
		c-0.5-0.9-1-1.7-1.5-2.5c-0.1-0.2-0.1-0.3,0.1-0.4c0.6-0.2,1-0.6,1.1-1.2c0.2-1.2-0.4-2.1-1.7-2.2c-0.8-0.1-1.6,0-2.4,0
		c-0.3,0-0.4,0.1-0.4,0.4c0,1.7,0,3.5,0,5.2c0,0.8,0,0.8,0.8,0.8c0.3,0,0.4-0.1,0.4-0.4c0-0.7,0-1.3,0-2c0-0.1-0.1-0.3,0.1-0.3
		c0.3,0,0.7-0.1,0.9,0.3c0.2,0.5,0.5,0.9,0.7,1.3c0.3,0.9,0.9,1.2,1.8,1C10.3,88.9,10.4,88.9,10.5,88.9z M67.8,85.8c0,1,0,1.9,0,2.9
		c0,0.2,0,0.3,0.2,0.3c1.3,0,2.6,0,3.9,0c0.2,0,0.3-0.1,0.2-0.3c0-0.1,0-0.3,0-0.4c0-0.3-0.1-0.3-0.3-0.3c-0.5,0-1.1,0-1.6,0
		c-0.4,0-1,0.2-1.2-0.1c-0.3-0.3,0-0.9-0.1-1.3c0-0.2,0.1-0.3,0.3-0.3c0.7,0,1.4,0,2.2,0c0.4,0,0.5-0.1,0.4-0.5c0-0.1,0-0.2,0-0.3
		c0-0.3-0.1-0.3-0.3-0.3c-0.5,0-0.9,0-1.4,0c-1.2,0-1.2,0-1.2-1.2c0-0.3,0.1-0.3,0.3-0.3c0.8,0,1.6,0,2.4,0c0.2,0,0.3-0.1,0.3-0.3
		c0-0.1,0-0.2,0-0.4c0.1-0.3-0.1-0.4-0.4-0.4c-1.1,0-2.3,0-3.4,0c-0.4,0-0.4,0.1-0.4,0.4C67.8,84,67.8,84.9,67.8,85.8z M11.5,85.8
		c0,0.9,0,1.9,0,2.8c0,0.3,0.1,0.4,0.4,0.4c1.1,0,2.2,0,3.3,0c0.6,0,0.6,0,0.6-0.6c0-0.3-0.1-0.4-0.4-0.4c-0.8,0-1.7,0-2.5,0
		c-0.3,0-0.4-0.1-0.4-0.4c0-0.3,0-0.7,0-1c0-0.3,0.1-0.4,0.3-0.4c0.7,0,1.4,0,2.2,0c0.3,0,0.4-0.1,0.4-0.4c0-0.1,0-0.2,0-0.3
		c0-0.3-0.1-0.3-0.3-0.3c-0.5,0-0.9,0-1.4,0c-1.2,0-1.2,0-1.2-1.2c0-0.3,0.1-0.3,0.3-0.3c0.7,0,1.4,0,2.1,0c0.7,0,0.7,0,0.7-0.7
		c0-0.3-0.1-0.4-0.4-0.4c-1.2,0-2.3,0-3.5,0c-0.3,0-0.4,0.1-0.4,0.4C11.5,83.9,11.5,84.8,11.5,85.8z M47.9,85.8c0,0.9,0,1.9,0,2.8
		c0,0.2,0,0.3,0.3,0.3c1.2,0,2.5,0,3.7,0c0.2,0,0.3,0,0.3-0.3c0-0.1,0-0.3,0-0.4c0-0.3-0.1-0.4-0.4-0.3c-0.5,0-1,0-1.5,0
		c-0.4,0-1,0.2-1.3-0.1c-0.3-0.3,0-0.8-0.1-1.3c0-0.3,0.1-0.4,0.4-0.3c0.7,0,1.5,0,2.2,0c0.2,0,0.4,0,0.3-0.3c0-0.1,0-0.3,0-0.4
		c0-0.3-0.1-0.3-0.3-0.3c-0.5,0-0.9,0-1.4,0c-1.2,0-1.2,0-1.2-1.2c0-0.3,0.1-0.4,0.4-0.4c0.8,0,1.6,0,2.3,0c0.4,0,0.4-0.2,0.4-0.5
		c0-0.2,0.2-0.6-0.4-0.6c-1.2,0-2.3,0-3.5,0c-0.3,0-0.4,0.1-0.4,0.4C47.9,83.9,47.9,84.9,47.9,85.8z M16.8,86.1c0,0.9,0.5,2,1.7,2.6
		c1.1,0.6,2.3,0.6,3.4-0.1c0.7-0.5,0.7-0.5,0-1c0,0-0.1,0-0.1-0.1c-0.2-0.2-0.3-0.1-0.5,0c-0.3,0.4-0.7,0.5-1.2,0.5
		c-1.1,0-1.9-0.8-2.1-2c-0.2-1.1,0.5-2.2,1.5-2.5c0.6-0.2,1.2-0.2,1.6,0.3c0.3,0.3,0.5,0.2,0.8,0c0.1-0.1,0.2-0.1,0.3-0.2
		c0.2-0.1,0.2-0.2,0-0.3c-0.4-0.3-0.7-0.6-1.2-0.7C18.7,82,16.8,83.5,16.8,86.1z M31.9,96.5c0,0.8,0,1.6,0,2.4c0,0.8,0,0.7,0.8,0.8
		c0.3,0,0.4-0.1,0.4-0.4c0-0.6,0-1.2,0-1.8c0-0.3,0.1-0.4,0.4-0.4c0.7,0,1.3,0,2,0c0.4,0,0.5-0.1,0.4-0.4c0-0.1,0-0.2,0-0.3
		c0-0.3-0.1-0.3-0.3-0.3c-0.4,0-0.8,0-1.2,0c-1.4,0-1.4,0-1.3-1.3c0-0.2,0.1-0.3,0.3-0.3c0.7,0,1.4,0,2,0c0.6,0,0.6,0,0.6-0.6
		c0-0.3-0.1-0.4-0.4-0.4c-1.1,0-2.2,0-3.2,0c-0.3,0-0.4,0.1-0.4,0.4C32,94.7,31.9,95.6,31.9,96.5z M38.3,96.5c0-0.8,0-1.6,0-2.5
		c0-0.7,0-0.7-0.7-0.7c-0.3,0-0.4,0.1-0.4,0.4c0,1.7,0,3.4,0,5.2c0,0.8,0,0.8,0.8,0.8c0.3,0,0.4-0.1,0.4-0.4
		C38.3,98.4,38.3,97.5,38.3,96.5z"/>
	<path class="st1" d="M0.8,115.5c0.1,0,0.1,0,0.2,0c0.2,0.2,0,0.5,0,0.7c0,7.4,0,14.8,0,22.1c0,0.6,0,0.6,0.6,0.6
		c27.6,0,55.3,0,82.9,0c0.6,0,0.6,0,0.6-0.6c0-7.4,0-14.7,0-22.1c0-0.1,0-0.2,0-0.3c0-0.2-0.1-0.3-0.3-0.3c-0.1,0-0.3,0.1-0.4-0.2
		c0.2,0,0.4,0,0.6,0c0.1,0.1,0.2,0.1,0.2,0.2c0,0.2,0,0.4,0,0.5c0,7.4,0,14.9,0,22.3c0,0.4-0.1,0.5-0.5,0.5c-27.8,0-55.6,0-83.4,0
		c-0.4,0-0.6-0.1-0.6-0.5C0.8,130.8,0.8,123.2,0.8,115.5z"/>
	<path class="st2" d="M85.2,115.6c-0.1-0.1-0.2-0.1-0.2-0.2c0.1,0,0.2,0,0.3,0C85.2,115.5,85.2,115.6,85.2,115.6z"/>
	<path class="st2" d="M84.3,115.5c0.1,0.2,0.3,0.2,0.4,0.2c0.2,0,0.3,0.1,0.3,0.3c0,0.1,0,0.2,0,0.3c0,7.4,0,14.7,0,22.1
		c0,0.6,0,0.6-0.6,0.6c-27.6,0-55.3,0-82.9,0c-0.6,0-0.6,0-0.6-0.6c0-7.4,0-14.8,0-22.1c0-0.2,0.2-0.5,0-0.7c0.2,0,0.3,0,0.5,0
		c27.5,0,54.9,0,82.4,0C84,115.5,84.2,115.5,84.3,115.5z M63.8,126.6c0-0.7,0-1.4-0.2-2.2c-0.2-1.1-0.6-2.2-1.5-2.9
		c-2-1.7-5.1-0.8-6,1.7c-0.6,1.7-0.7,3.5-0.4,5.3c0.2,1.1,0.5,2.1,1.3,3c2,2,5.2,1.2,6.3-1.4C63.7,128.9,63.8,127.8,63.8,126.6z
		 M41.4,126.6c0-1.2-0.1-2.5-0.6-3.6c-0.7-1.6-1.9-2.4-3.7-2.3c-1.6,0-2.9,0.9-3.5,2.5c-0.3,0.8-0.4,1.6-0.5,2.4
		c-0.1,1.6,0,3.1,0.6,4.6c0.6,1.5,1.7,2.3,3.4,2.4c1.7,0.1,2.9-0.7,3.6-2.2C41.3,129.2,41.4,127.9,41.4,126.6z M24.6,130.6
		c1.2-1.1,2.4-2.2,3.5-3.2c0.5-0.5,1-1,1.3-1.6c1.1-1.9,0.3-4.2-1.7-4.8c-1-0.3-2-0.3-3,0c-1.2,0.4-2,1.2-2.3,2.5
		c-0.1,0.4,0,0.6,0.4,0.5c0.2,0,0.5,0,0.7,0.1c0.5,0.1,0.9,0.1,1.1-0.6c0.3-0.9,1.5-1.2,2.4-0.7c0.8,0.5,1,1.3,0.5,2.2
		c-0.1,0.2-0.3,0.4-0.5,0.6c-1.2,1.2-2.4,2.4-3.7,3.5c-0.9,0.8-1.4,1.6-1.2,2.8c0,0,0,0,0,0c0,0.3,0.1,0.4,0.3,0.4c0,0,0,0,0,0
		c2.3,0,4.6,0,6.9,0c0.3,0,0.4-0.1,0.4-0.4c0-0.3,0-0.7,0-1c0-0.3-0.1-0.3-0.3-0.3c-1.1,0-2.1,0-3.2,0
		C25.9,130.6,25.3,130.6,24.6,130.6z M47.1,130.5c0.1-0.1,0.2-0.2,0.3-0.3c1.1-1,2.1-2,3.2-2.9c0.5-0.5,0.9-0.9,1.3-1.5
		c1.1-1.9,0.3-4.2-1.7-4.9c-1-0.3-2-0.3-3,0c-1.3,0.4-2.1,1.3-2.3,2.7c0,0.2,0,0.3,0.2,0.3c0.3,0,0.6,0,0.9,0.1c0.5,0.1,1,0.1,1-0.6
		c0,0,0,0,0,0c0.4-0.8,1.6-1.1,2.4-0.7c0.8,0.5,1,1.3,0.5,2.2c-0.1,0.2-0.3,0.4-0.4,0.6c-1.2,1.2-2.4,2.5-3.7,3.6
		c-0.9,0.8-1.4,1.6-1.2,2.8c0,0,0,0.1,0,0.1c0,0.2,0.1,0.3,0.3,0.3c2.4,0,4.7,0,7.1,0c0.2,0,0.3-0.1,0.3-0.3c0-0.4,0-0.7,0-1.1
		c0-0.3-0.1-0.4-0.4-0.4c-1.5,0-2.9,0-4.4,0C47.4,130.6,47.2,130.6,47.1,130.5z"/>
	<path class="st3" d="M73,57.5c0,2.1-0.8,4-2.1,5.7c-2,2.4-4.6,3.6-7.7,3.6c-13.6,0-27.3,0-40.9,0c-4.8,0-9.1-3.4-9.8-8.4
		c0-0.3,0-0.5,0-0.8c0.1-0.1,0.1-0.3,0.1-0.5c0-13.8,0-27.6,0-41.3c0-0.2,0.1-0.3-0.1-0.5c0.1-2.1,0.8-4,2.1-5.6
		c2-2.4,4.5-3.6,7.6-3.6c13.7,0,27.4,0,41,0c4.8,0,8.7,3.2,9.7,7.9c0.1,0.5,0.2,1,0.1,1.5c-0.2,0.1-0.1,0.3-0.1,0.5
		c0,13.7,0,27.4,0,41.1C72.9,57.2,72.8,57.4,73,57.5z M12.9,36.5c0,6.9,0,13.8,0,20.6c0,1.5,0.3,3,1.1,4.3c1.8,3.2,4.6,4.8,8.3,4.8
		c13.5,0,27,0,40.6,0c0.5,0,0.9,0,1.4-0.1c4.6-0.5,8.2-4.4,8.2-9c0-13.8,0-27.6,0-41.4c0-0.5,0-1-0.1-1.5c-0.9-4.6-4.6-7.6-9.2-7.6
		c-13.6,0-27.2,0-40.8,0c-0.5,0-1,0-1.4,0.1c-4.6,0.7-7.9,4.5-7.9,9.1C12.9,22.8,12.9,29.6,12.9,36.5z"/>
	<path class="st4" d="M51.4,94.6c-0.3,0.7-0.5,1.5-0.8,2.2c-0.3,0.8-0.6,1.6-0.9,2.4c-0.1,0.3-0.2,0.5-0.6,0.5
		c-0.4,0-0.5-0.2-0.6-0.5c-0.5-1.4-1-2.9-1.6-4.3c0-0.1-0.1-0.2-0.2-0.3c0,0.7,0,1.4,0,2c0,0.8,0,1.5,0,2.3c0,0.8,0,0.8-0.8,0.8
		c-0.3,0-0.3-0.1-0.3-0.3c0-1.9,0-3.8,0-5.7c0-0.3,0.1-0.3,0.4-0.3c1.3,0,1.3,0,1.8,1.3c0.4,1,0.8,2.1,1.2,3.2
		c0.5-1.4,1.1-2.7,1.5-4c0.1-0.3,0.2-0.4,0.6-0.4c0.4,0,1-0.2,1.2,0.1c0.2,0.2,0.1,0.8,0.1,1.2c0,1.5,0,3.1,0,4.6
		c0,0.4-0.1,0.5-0.5,0.4c-0.6,0-0.6,0-0.6-0.7c0-1.4,0-2.8,0-4.2C51.4,94.7,51.4,94.7,51.4,94.6C51.4,94.6,51.4,94.6,51.4,94.6z"/>
	<path class="st4" d="M32.1,83.9c0,1.5,0,3,0,4.6c0,0.2,0.1,0.4-0.1,0.5c-0.3,0.1-0.6,0-0.9,0c-0.1,0-0.1-0.2-0.1-0.3
		c0-1.9,0-3.8,0-5.7c0-0.3,0.1-0.3,0.3-0.3c1.4,0,1.4,0,1.9,1.2c0.4,1,0.8,2.1,1.2,3.2c0.5-1.4,1-2.6,1.5-3.9
		c0.1-0.4,0.3-0.5,0.7-0.5c0.4,0,0.9-0.2,1.1,0.1c0.2,0.2,0.1,0.7,0.1,1.1c0,1.6,0,3.1,0,4.7c0,0.3-0.1,0.5-0.4,0.4
		c-0.1,0-0.2,0-0.3,0c-0.3,0-0.3-0.1-0.3-0.4c0-1.5,0-3,0-4.5c0-0.1,0-0.2-0.1-0.3c-0.2,0.7-0.5,1.3-0.7,2c-0.3,0.9-0.7,1.9-1,2.8
		c-0.1,0.3-0.3,0.3-0.5,0.3c-0.3,0-0.4-0.1-0.5-0.3C33.4,87,32.8,85.5,32.1,83.9C32.2,83.9,32.2,83.9,32.1,83.9z"/>
	<path class="st4" d="M42.9,87c0.5-1.3,1-2.6,1.5-3.8c0.2-0.4,0.3-0.6,0.8-0.6c0.3,0.1,0.8-0.2,1,0.1c0.2,0.2,0.1,0.7,0.1,1
		c0,1.6,0,3.2,0,4.7c0,0.4-0.1,0.5-0.5,0.5c-0.1,0-0.2,0-0.2,0c-0.3,0.1-0.4-0.1-0.4-0.4c0-1.5,0-2.9,0-4.4c0-0.1,0-0.2,0-0.3
		c-0.2,0.1-0.2,0.2-0.2,0.3c-0.5,1.4-1.1,2.9-1.6,4.3c-0.1,0.3-0.2,0.4-0.5,0.4c-0.3,0-0.5-0.1-0.6-0.4c-0.5-1.5-1.1-2.9-1.6-4.3
		c0-0.1-0.1-0.2-0.2-0.3c0,1.5,0,3,0,4.5c0,0.2,0.1,0.5-0.1,0.5c-0.3,0.1-0.6,0-0.9,0c-0.1,0-0.1-0.2-0.1-0.3c0-1.9,0-3.8,0-5.7
		c0-0.2,0.1-0.3,0.3-0.3c1.4,0,1.4,0,1.9,1.2C42.1,84.9,42.5,85.9,42.9,87z"/>
	<path class="st4" d="M54.7,84.2c0,1.4,0,2.8,0,4.3c0,0.4-0.1,0.5-0.5,0.5c-0.1,0-0.2,0-0.3,0c-0.3,0-0.4-0.1-0.4-0.4
		c0-1.8,0-3.7,0-5.5c0-0.3,0.1-0.4,0.4-0.4c0.8-0.1,1.3,0.2,1.7,0.9c0.7,1.3,1.6,2.4,2.4,3.8c0-0.2,0-0.4,0-0.5c0-1.3,0-2.6,0-3.8
		c0-0.3,0.1-0.4,0.4-0.4c0.8,0,0.8,0,0.8,0.8c0,1.7,0,3.4,0,5.1c0,0.3-0.1,0.4-0.4,0.4c-0.8,0.1-1.2-0.2-1.6-0.9
		C56.5,86.8,55.6,85.5,54.7,84.2C54.7,84.2,54.7,84.2,54.7,84.2z"/>
	<path class="st4" d="M26.5,82.5c2,0,3.3,1.3,3.3,3.3c0,2-1.4,3.4-3.4,3.4c-1.9,0-3.3-1.4-3.3-3.3C23.1,83.8,24.4,82.5,26.5,82.5z
		 M24.3,85.7c0,1.4,0.9,2.3,2.1,2.3c1.3,0,2.2-1,2.2-2.3c0-1.3-0.9-2.3-2.2-2.3C25.2,83.5,24.3,84.4,24.3,85.7z"/>
	<path class="st5" d="M60.8,85.8c0-0.9,0-1.9,0-2.8c0-0.3,0.1-0.4,0.4-0.4c0.7,0,1.5,0,2.2,0c1.8,0,3,1.1,3.1,2.8
		c0.2,1.7-0.9,3.1-2.5,3.4c-1,0.2-2,0.1-3,0.1c-0.2,0-0.2-0.2-0.2-0.3C60.8,87.7,60.8,86.7,60.8,85.8z M62,85.8c0,0.6,0,1.2,0,1.8
		c0,0.2,0,0.3,0.2,0.3c0.6,0,1.3,0,1.9-0.2c0.9-0.3,1.3-1.1,1.3-2.1c-0.1-1-0.6-1.7-1.6-1.9c-0.5-0.1-1-0.1-1.6-0.1
		c-0.2,0-0.2,0.1-0.2,0.3C62,84.5,62,85.2,62,85.8z"/>
	<path class="st4" d="M73.4,85.8c0-0.9,0-1.9,0-2.8c0-0.3,0.1-0.3,0.3-0.3c0.7,0,1.5,0,2.2,0c1.7,0,3,1,3.1,2.6
		c0.2,1.8-0.7,3.1-2.4,3.6c-1,0.3-2.1,0.1-3.1,0.1c-0.3,0-0.2-0.2-0.2-0.3C73.4,87.7,73.4,86.7,73.4,85.8z M75.4,83.7
		C75.4,83.7,75.4,83.6,75.4,83.7c-0.2,0-0.4,0-0.6,0c-0.2,0-0.3,0.1-0.3,0.3c0,1.3,0,2.5,0,3.8c0,0.2,0.1,0.3,0.3,0.3
		c0.5,0,0.9,0,1.4-0.1c1.2-0.3,1.8-1,1.7-2.3c-0.1-1.1-0.8-1.8-2-1.9C75.7,83.6,75.6,83.7,75.4,83.7z"/>
	<path class="st5" d="M44.6,99.6c-1,0.3-1.6-0.1-1.9-1c-0.2-0.4-0.5-0.8-0.6-1.2c-0.2-0.4-0.4-0.5-0.8-0.4c-0.2,0-0.3,0.1-0.3,0.3
		c0,0.7,0,1.4,0,2c0,0.3-0.1,0.4-0.4,0.4c-0.8,0-0.8,0-0.8-0.8c0-1.7,0-3.5,0-5.2c0-0.3,0.1-0.4,0.4-0.4c0.8,0,1.7,0,2.5,0.1
		c1.3,0.2,1.9,1.1,1.6,2.3c-0.1,0.5-0.5,0.9-1,1.1c-0.4,0.1-0.3,0.3-0.2,0.5C43.7,98,44.2,98.8,44.6,99.6z M41.9,96
		c0.2,0,0.6,0,0.9-0.1c0.4-0.1,0.6-0.4,0.6-0.8c0-0.4-0.2-0.6-0.6-0.7c-0.2,0-0.4-0.1-0.6-0.1c-1,0-1,0-1,1C41,96,41,96,41.9,96z"/>
	<path class="st4" d="M10.5,88.9c-0.1,0-0.1,0-0.2,0c-0.9,0.2-1.5-0.2-1.8-1c-0.2-0.5-0.5-0.9-0.7-1.3c-0.2-0.4-0.5-0.4-0.9-0.3
		c-0.2,0-0.1,0.2-0.1,0.3c0,0.7,0,1.3,0,2c0,0.3-0.1,0.4-0.4,0.4c-0.8,0-0.8,0-0.8-0.8c0-1.7,0-3.5,0-5.2c0-0.3,0.1-0.4,0.4-0.4
		c0.8,0,1.6,0,2.4,0c1.3,0.1,2,1,1.7,2.2c-0.1,0.6-0.5,1.1-1.1,1.2c-0.3,0.1-0.3,0.2-0.1,0.4C9.5,87.3,10,88.1,10.5,88.9z M7.7,85.3
		c0.2,0,0.6,0,0.9-0.1c0.4-0.1,0.5-0.4,0.5-0.8c0-0.4-0.2-0.6-0.6-0.7c-0.2-0.1-0.4-0.1-0.6-0.1c-1,0-1,0-1,0.9
		C6.9,85.3,6.9,85.3,7.7,85.3z"/>
	<path class="st5" d="M67.8,85.8c0-0.9,0-1.8,0-2.7c0-0.3,0-0.4,0.4-0.4c1.1,0,2.3,0,3.4,0c0.3,0,0.4,0.1,0.4,0.4c0,0.1,0,0.2,0,0.4
		c0,0.2-0.1,0.3-0.3,0.3c-0.8,0-1.6,0-2.4,0c-0.2,0-0.3,0.1-0.3,0.3c0,1.2,0,1.2,1.2,1.2c0.5,0,0.9,0,1.4,0c0.3,0,0.4,0.1,0.3,0.3
		c0,0.1,0,0.2,0,0.3c0.1,0.3-0.1,0.5-0.4,0.5c-0.7,0-1.4,0-2.2,0c-0.2,0-0.3,0.1-0.3,0.3c0,0.4-0.2,1,0.1,1.3
		c0.2,0.3,0.8,0.1,1.2,0.1c0.5,0,1.1,0,1.6,0c0.2,0,0.4,0.1,0.3,0.3c0,0.1,0,0.3,0,0.4c0,0.2,0,0.3-0.2,0.3c-1.3,0-2.6,0-3.9,0
		c-0.3,0-0.2-0.1-0.2-0.3C67.8,87.7,67.8,86.7,67.8,85.8z"/>
	<path class="st5" d="M11.5,85.8c0-0.9,0-1.9,0-2.8c0-0.3,0.1-0.4,0.4-0.4c1.2,0,2.3,0,3.5,0c0.3,0,0.4,0.1,0.4,0.4
		c0,0.7,0,0.7-0.7,0.7c-0.7,0-1.4,0-2.1,0c-0.2,0-0.3,0-0.3,0.3c0,1.2,0,1.2,1.2,1.2c0.5,0,0.9,0,1.4,0c0.3,0,0.4,0.1,0.3,0.3
		c0,0.1,0,0.2,0,0.3c0,0.3-0.1,0.4-0.4,0.4c-0.7,0-1.4,0-2.2,0c-0.3,0-0.4,0.1-0.3,0.4c0,0.3,0,0.7,0,1c0,0.3,0.1,0.4,0.4,0.4
		c0.8,0,1.7,0,2.5,0c0.3,0,0.4,0.1,0.4,0.4c0,0.6,0,0.6-0.6,0.6c-1.1,0-2.2,0-3.3,0c-0.3,0-0.4-0.1-0.4-0.4
		C11.5,87.6,11.5,86.7,11.5,85.8z"/>
	<path class="st5" d="M47.9,85.8c0-0.9,0-1.8,0-2.7c0-0.3,0.1-0.4,0.4-0.4c1.2,0,2.3,0,3.5,0c0.5,0,0.3,0.3,0.4,0.6
		c0,0.3,0,0.5-0.4,0.5c-0.8,0-1.6,0-2.3,0c-0.3,0-0.4,0.1-0.4,0.4c0,1.2,0,1.2,1.2,1.2c0.5,0,0.9,0,1.4,0c0.2,0,0.4,0,0.3,0.3
		c0,0.1,0,0.3,0,0.4c0,0.3-0.1,0.3-0.3,0.3c-0.7,0-1.5,0-2.2,0c-0.3,0-0.4,0.1-0.4,0.3c0,0.4-0.2,1,0.1,1.3c0.3,0.3,0.8,0.1,1.3,0.1
		c0.5,0,1,0,1.5,0c0.3,0,0.4,0,0.4,0.3c0,0.1,0,0.3,0,0.4c0,0.3-0.1,0.3-0.3,0.3c-1.2,0-2.5,0-3.7,0c-0.3,0-0.3-0.1-0.3-0.3
		C47.9,87.7,47.9,86.7,47.9,85.8z"/>
	<path class="st4" d="M16.8,86.1c0-2.6,1.9-4.1,4.2-3.6c0.5,0.1,0.9,0.4,1.2,0.7c0.1,0.1,0.1,0.2,0,0.3c-0.1,0.1-0.2,0.1-0.3,0.2
		c-0.3,0.2-0.4,0.3-0.8,0c-0.5-0.4-1-0.4-1.6-0.3c-1,0.3-1.7,1.4-1.5,2.5c0.2,1.2,1,2,2.1,2c0.5,0,0.9-0.2,1.2-0.5
		c0.2-0.2,0.3-0.2,0.5,0c0,0,0.1,0.1,0.1,0.1c0.7,0.5,0.7,0.6,0,1c-1.1,0.7-2.3,0.7-3.4,0.1C17.3,88.1,16.8,87.1,16.8,86.1z"/>
	<path class="st4" d="M31.9,96.5c0-0.9,0-1.8,0-2.7c0-0.4,0.1-0.4,0.4-0.4c1.1,0,2.2,0,3.2,0c0.3,0,0.4,0.1,0.4,0.4
		c0,0.6,0,0.6-0.6,0.6c-0.7,0-1.4,0-2,0c-0.2,0-0.3,0.1-0.3,0.3C33,96,33,96,34.4,96c0.4,0,0.8,0,1.2,0c0.3,0,0.4,0.1,0.3,0.3
		c0,0.1,0,0.2,0,0.3c0.1,0.3-0.1,0.5-0.4,0.4c-0.7,0-1.3,0-2,0c-0.3,0-0.4,0.1-0.4,0.4c0,0.6,0,1.2,0,1.8c0,0.3-0.1,0.4-0.4,0.4
		c-0.8,0-0.8,0-0.8-0.8C31.9,98.1,31.9,97.3,31.9,96.5z"/>
	<path class="st5" d="M38.3,96.5c0,0.9,0,1.9,0,2.8c0,0.3-0.1,0.3-0.4,0.4c-0.8,0-0.8,0-0.8-0.8c0-1.7,0-3.4,0-5.2
		c0-0.4,0.1-0.4,0.4-0.4c0.7,0,0.7,0,0.7,0.7C38.3,94.9,38.3,95.7,38.3,96.5z"/>
	<path class="st6" d="M12.4,15.3c0.1,0.1,0.1,0.3,0.1,0.5c0,13.8,0,27.6,0,41.3c0,0.2,0.1,0.3-0.1,0.5c0-0.2,0-0.4,0-0.7
		c0-13.7,0-27.3,0-41C12.4,15.7,12.4,15.5,12.4,15.3z"/>
	<path class="st6" d="M73,57.5c-0.1-0.1-0.1-0.3-0.1-0.5c0-13.7,0-27.4,0-41.1c0-0.2-0.1-0.3,0.1-0.5c0,0.2,0,0.4,0,0.5
		c0,13.6,0,27.3,0,40.9C73,57.1,73,57.3,73,57.5z"/>
	<path class="st7" d="M63.8,126.6c0,1.2-0.1,2.3-0.5,3.4c-1.1,2.6-4.3,3.4-6.3,1.4c-0.8-0.8-1.1-1.9-1.3-3c-0.3-1.8-0.2-3.6,0.4-5.3
		c0.9-2.5,4-3.4,6-1.7c0.9,0.8,1.3,1.8,1.5,2.9C63.7,125.2,63.8,125.9,63.8,126.6z M61.8,126.6c0-0.3,0-0.7,0-1
		c-0.1-0.9-0.3-1.8-0.9-2.5c-0.7-0.8-1.9-0.8-2.5,0c-0.3,0.3-0.5,0.7-0.6,1.1c-0.3,1.2-0.4,2.4-0.2,3.6c0.1,0.6,0.2,1.2,0.5,1.8
		c0.3,0.5,0.6,0.9,1.2,1c1,0.2,1.8-0.3,2.2-1.4C61.7,128.4,61.8,127.5,61.8,126.6z"/>
	<path class="st7" d="M41.4,126.6c0,1.3-0.1,2.5-0.7,3.7c-0.7,1.5-1.9,2.2-3.6,2.2c-1.6-0.1-2.7-0.9-3.4-2.4c-0.6-1.5-0.7-3-0.6-4.6
		c0.1-0.8,0.2-1.6,0.5-2.4c0.6-1.6,1.9-2.5,3.5-2.5c1.7,0,3,0.8,3.7,2.3C41.3,124.2,41.4,125.4,41.4,126.6z M39.5,126.8
		c0-0.7,0-1.3-0.1-1.8c-0.1-0.3-0.2-0.6-0.3-1c-0.3-0.9-1-1.4-1.8-1.4c-0.8,0-1.4,0.5-1.8,1.4c-0.2,0.5-0.3,1-0.3,1.4
		c-0.1,1.3-0.1,2.6,0.3,3.8c0.2,0.7,0.6,1.2,1.3,1.4c1,0.2,1.8-0.3,2.3-1.4C39.4,128.4,39.5,127.5,39.5,126.8z"/>
	<path class="st7" d="M24.6,130.6c0.7,0,1.2,0,1.8,0c1.1,0,2.1,0,3.2,0c0.3,0,0.3,0.1,0.3,0.3c0,0.3,0,0.7,0,1
		c0,0.3-0.1,0.4-0.4,0.4c-2.3,0-4.6,0-6.9,0c0,0,0,0,0,0c-0.3,0-0.4-0.1-0.3-0.4c0,0,0,0,0,0c-0.2-1.2,0.2-2,1.2-2.8
		c1.3-1.1,2.5-2.3,3.7-3.5c0.2-0.2,0.4-0.4,0.5-0.6c0.5-0.9,0.3-1.8-0.5-2.2c-0.9-0.5-2.1-0.2-2.4,0.7c-0.2,0.7-0.6,0.7-1.1,0.6
		c-0.2,0-0.4-0.1-0.7-0.1c-0.4,0-0.5-0.1-0.4-0.5c0.3-1.3,1.1-2.1,2.3-2.5c1-0.3,2-0.3,3,0c2,0.7,2.8,3,1.7,4.8
		c-0.4,0.6-0.8,1.1-1.3,1.6C27,128.4,25.9,129.4,24.6,130.6z"/>
	<path class="st7" d="M47.1,130.5c0.2,0.1,0.3,0.1,0.5,0.1c1.5,0,2.9,0,4.4,0c0.3,0,0.4,0.1,0.4,0.4c0,0.4,0,0.7,0,1.1
		c0,0.2-0.1,0.3-0.3,0.3c-2.4,0-4.7,0-7.1,0c-0.2,0-0.3-0.1-0.3-0.3c0,0,0-0.1,0-0.1c-0.2-1.2,0.2-2,1.2-2.8
		c1.3-1.1,2.5-2.4,3.7-3.6c0.2-0.2,0.3-0.4,0.4-0.6c0.5-0.9,0.3-1.8-0.5-2.2c-0.9-0.5-2-0.2-2.4,0.7c0,0,0,0,0,0
		c-0.1,0.7-0.5,0.6-1,0.6c-0.3,0-0.6-0.1-0.9-0.1c-0.3,0-0.3-0.1-0.2-0.3c0.2-1.4,1-2.3,2.3-2.7c1-0.3,2-0.3,3,0
		c2,0.7,2.8,3,1.7,4.9c-0.3,0.6-0.8,1.1-1.3,1.5c-1.1,1-2.1,2-3.2,2.9C47.3,130.3,47.2,130.4,47.1,130.5z"/>
	<path class="st0" d="M12.9,36.5c0-6.9,0-13.7,0-20.6c0-4.6,3.3-8.5,7.9-9.1c0.5-0.1,1-0.1,1.4-0.1c13.6,0,27.2,0,40.8,0
		c4.7,0,8.3,3,9.2,7.6c0.1,0.5,0.1,1,0.1,1.5c0,13.8,0,27.6,0,41.4c0,4.6-3.6,8.6-8.2,9c-0.5,0-0.9,0.1-1.4,0.1c-13.5,0-27,0-40.6,0
		c-3.7,0-6.5-1.6-8.3-4.8c-0.8-1.3-1.1-2.8-1.1-4.3C12.9,50.2,12.9,43.3,12.9,36.5z M19.7,41.1C19.7,41.1,19.7,41.1,19.7,41.1
		c0,0.1-0.1,0.2-0.2,0.3l0,0c0,0.1-0.1,0.1-0.1,0.2l0,0c-0.1,0.2-0.2,0.3-0.3,0.5c0.9,0,1.8,0,2.6,0.1c0,0.2,0,0.4,0,0.5
		c0,3.8,0,7.6,0,11.3c0,0.5,0,1.1,0,1.6c0,0.1,0,0.2,0.2,0.2c0.2,0,0.4,0,0.6,0c0.3,0,0.8,0.1,1,0c0.2-0.2,0.1-0.7,0.1-1
		c0-4.7,0-9.3,0-14c0-0.4-0.1-0.4-0.4-0.4c-0.9,0-1.8,0-2.7,0c-0.2,0-0.3-0.1-0.4,0.2l0,0c0,0.1-0.1,0.1-0.1,0.2c0,0,0,0,0,0
		c-0.1,0.1-0.1,0.2-0.2,0.3l0,0C19.7,41,19.7,41,19.7,41.1z M53.3,52c0.2,0.1,0.2,0.3,0.4,0.5c0.5,0.7,1,1.3,1.6,1.8
		c1.7,1.3,3.6,1.8,5.8,1.6c1.7-0.2,3.2-0.8,4.4-2c1.9-1.9,2.8-4.3,2.4-7c-0.3-2-1.2-3.7-2.8-4.9c-2-1.6-4.2-2-6.6-1.5
		c-2.2,0.4-3.9,1.7-5,3.7c-0.1-0.2-0.3-0.4-0.4-0.5c-0.5-0.7-1.1-1.3-1.7-1.8c-3.1-2.4-8.8-2.1-11.3,2.2c0-0.1-0.1-0.1-0.1-0.2
		c-1.4-2.1-3.3-3.3-5.8-3.5c-5.6-0.6-9.9,4.7-8.2,10.1c1.7,5.3,7.9,7.3,12.2,4c0.8-0.6,1.4-1.4,2-2.3c0.5,0.9,1.2,1.7,2.1,2.4
		C45,56.7,50.7,56.6,53.3,52z M62,25.5c0.6-0.2,1.2-0.5,1.8-0.8c2.3-1.3,2.3-5.2-0.1-6.6c-0.9-0.5-1.8-0.8-2.8-0.9
		c-2.3-0.2-4.6,0.1-6.9,0c-0.2,0-0.3,0.1-0.3,0.3c0,0.2,0.1,0.2,0.3,0.2c1.1,0.1,1.3,0.3,1.3,1.4c0,3.8,0,7.7,0,11.5
		c0,1.4,0,1.4-1.4,1.5c-0.2,0-0.2,0.1-0.2,0.3c0,0.2,0.1,0.2,0.2,0.2c1.8,0,3.5,0,5.3,0c0.2,0,0.2,0,0.2-0.2c0-0.2,0-0.3-0.3-0.3
		c-0.1,0-0.1,0-0.2,0c-1.1,0-1.4-0.3-1.4-1.5c0-1.5,0-3.1,0-4.6c0-0.3,0.1-0.4,0.4-0.4c1.3,0.1,2.2,0.7,3,1.7
		c1.2,1.6,2.2,3.3,3.2,4.9c0.1,0.2,0.2,0.3,0.5,0.3c1,0,2.1,0,3.1,0c0.1,0,0.3,0.1,0.3-0.2c0-0.2-0.1-0.3-0.3-0.3
		c-0.9-0.1-1.6-0.5-1.9-1.4c-0.2-0.4-0.4-0.7-0.6-1.1C64.2,28.3,63.2,26.8,62,25.5z M32.6,17.3c-1.8,0-3.5,0-5.3,0
		c-0.1,0-0.4-0.1-0.4,0.2c0,0.3,0.2,0.3,0.4,0.3c0.1,0,0.1,0,0.2,0c0.8,0.1,1.1,0.4,1.1,1.2c0,4,0,8,0,12c0,0.8-0.3,1.1-1.1,1.2
		c-0.1,0-0.2,0-0.3,0c-0.2,0-0.2,0.1-0.2,0.3c0,0.2,0.1,0.2,0.3,0.2c1.8,0,3.7,0,5.5,0c0.2,0,0.2,0,0.2-0.2c0-0.2,0-0.3-0.2-0.3
		c-0.4,0-0.8-0.1-1.2-0.2c-0.4-0.1-0.6-0.4-0.6-0.8c0-2,0-3.9,0-5.9c0-0.2,0.1-0.3,0.3-0.3c0.7,0,1.4,0,2.1,0.1
		c1.5,0.2,2.2,0.9,2.4,2.4c0,0.2-0.1,0.4,0.3,0.4c0.3,0,0.2-0.3,0.2-0.4c0-1.6,0-3.1,0-4.7c0-0.2,0.2-0.5-0.1-0.6
		c-0.4-0.1-0.3,0.3-0.3,0.5c-0.4,1.2-0.9,1.7-2.2,1.8c-0.7,0.1-1.5,0.1-2.2,0.1c-0.3,0-0.3-0.1-0.3-0.3c0-2.1,0-4.1,0-6.2
		c0-0.2,0-0.3,0.3-0.3c1.2,0,2.3,0,3.5,0c1,0,1.8,0.3,2.5,1c0.6,0.5,1.2,1.1,1.6,1.8c0.1,0.2,0.2,0.3,0.4,0.2c0.3-0.1,0-0.3,0-0.4
		c-0.3-0.9-0.6-1.8-0.9-2.7c-0.1-0.3-0.3-0.4-0.6-0.4C36.1,17.3,34.3,17.3,32.6,17.3z M53.4,27.8c-0.3-0.1-0.5,0-0.7,0.3
		c-0.5,0.9-1.1,1.8-1.8,2.7c-0.7,0.9-1.6,1.4-2.7,1.5c-1,0.1-2.1,0.1-3.1,0.1c-1.5,0-1.8-0.3-1.8-1.9c0-3.6,0-7.2,0-10.8
		c0-1.3,0.4-1.7,1.6-1.7c0.1,0,0.1,0,0.2,0c0.2,0,0.3,0,0.3-0.3c0-0.2-0.1-0.2-0.3-0.2c-1.8,0-3.7,0-5.5,0c-0.2,0-0.3,0-0.3,0.2
		c0,0.2,0.1,0.3,0.3,0.3c0.1,0,0.2,0,0.2,0c0.9,0.1,1.2,0.4,1.2,1.3c0,3.9,0,7.9,0,11.8c0,0.9-0.3,1.3-1.3,1.3c-0.1,0-0.2,0-0.2,0
		c-0.2,0-0.3,0.1-0.3,0.3c0,0.3,0.2,0.2,0.3,0.2c4.1,0,8.1,0,12.2,0c0.2,0,0.3-0.1,0.4-0.3C52.6,30.9,53,29.3,53.4,27.8z M21.2,25
		c0,1.8,0,3.6,0,5.5c0,1.5-0.2,1.7-1.7,1.8c-0.2,0-0.3,0-0.3,0.2c0,0.3,0.2,0.2,0.3,0.2c1.1,0,2.1,0,3.2,0c0.9,0,1.7,0,2.6,0
		c0.1,0,0.3,0,0.3-0.2c0-0.2,0-0.3-0.2-0.3c-0.1,0-0.2,0-0.3,0c-1.4-0.1-1.5-0.5-1.5-1.6c0-3.7,0-7.5,0-11.2c0-1.3,0.3-1.6,1.6-1.6
		c0,0,0.1,0,0.1,0c0.2,0,0.4,0.1,0.4-0.3c0-0.3-0.2-0.2-0.4-0.2c-1.8,0-3.5,0-5.3,0c-0.1,0-0.2,0-0.4,0c-0.2,0-0.3,0-0.3,0.2
		c0,0.2,0.1,0.3,0.3,0.3c0.1,0,0.2,0,0.4,0c1.1,0.1,1.4,0.4,1.4,1.5C21.2,21.2,21.2,23.1,21.2,25z"/>
	<path class="st7" d="M24.3,85.7c0-1.3,0.9-2.3,2.2-2.3c1.3,0,2.2,1,2.2,2.3c0,1.4-0.9,2.3-2.2,2.3C25.2,88.1,24.3,87.1,24.3,85.7z"
		/>
	<path class="st7" d="M62,85.8c0-0.6,0-1.2,0-1.8c0-0.2,0-0.3,0.2-0.3c0.5,0,1.1,0,1.6,0.1c1,0.2,1.5,0.8,1.6,1.9
		c0.1,1-0.4,1.8-1.3,2.1c-0.6,0.2-1.3,0.2-1.9,0.2c-0.2,0-0.2-0.1-0.2-0.3C62,87,62,86.4,62,85.8z"/>
	<path class="st7" d="M75.4,83.7c0.2,0,0.4,0,0.5,0c1.2,0.1,1.9,0.8,2,1.9c0.1,1.3-0.5,2-1.7,2.3c-0.5,0.1-0.9,0.1-1.4,0.1
		c-0.2,0-0.3,0-0.3-0.3c0-1.3,0-2.5,0-3.8c0-0.2,0.1-0.3,0.3-0.3C75,83.7,75.2,83.6,75.4,83.7C75.4,83.6,75.4,83.7,75.4,83.7z"/>
	<path class="st7" d="M41.9,96C41,96,41,96,41,95.3c0-1,0-1,1-1c0.2,0,0.4,0,0.6,0.1c0.4,0.1,0.6,0.3,0.6,0.7c0,0.4-0.2,0.7-0.6,0.8
		C42.4,96,42.1,96,41.9,96z"/>
	<path class="st7" d="M7.7,85.3c-0.8,0-0.8,0-0.8-0.8c0-1,0-1,1-0.9c0.2,0,0.4,0,0.6,0.1c0.4,0.1,0.6,0.3,0.6,0.7
		c0,0.4-0.2,0.7-0.5,0.8C8.2,85.3,7.9,85.3,7.7,85.3z"/>
	<path class="st4" d="M61.8,126.6c0,0.9,0,1.8-0.4,2.6c-0.4,1.1-1.2,1.6-2.2,1.4c-0.6-0.1-0.9-0.5-1.2-1c-0.3-0.6-0.4-1.2-0.5-1.8
		c-0.1-1.2-0.1-2.4,0.2-3.6c0.1-0.4,0.3-0.8,0.6-1.1c0.7-0.8,1.9-0.8,2.5,0c0.6,0.7,0.8,1.6,0.9,2.5
		C61.8,125.9,61.8,126.3,61.8,126.6z"/>
	<path class="st4" d="M39.5,126.8c0,0.7-0.1,1.6-0.4,2.5c-0.4,1.1-1.2,1.6-2.3,1.4c-0.7-0.2-1.1-0.7-1.3-1.4
		c-0.4-1.2-0.4-2.5-0.3-3.8c0-0.5,0.1-1,0.3-1.4c0.4-0.9,1-1.4,1.8-1.4c0.8,0,1.5,0.5,1.8,1.4c0.1,0.3,0.2,0.6,0.3,1
		C39.4,125.5,39.5,126,39.5,126.8z"/>
	<path class="st8" d="M62,25.5c1.2,1.3,2.3,2.7,3.1,4.2c0.2,0.4,0.4,0.7,0.6,1.1c0.4,0.8,1,1.3,1.9,1.4c0.2,0,0.3,0.1,0.3,0.3
		c0,0.3-0.2,0.2-0.3,0.2c-1,0-2.1,0-3.1,0c-0.3,0-0.4-0.1-0.5-0.3c-1-1.7-2-3.4-3.2-4.9c-0.8-1-1.7-1.6-3-1.7c-0.3,0-0.4,0-0.4,0.4
		c0,1.5,0,3.1,0,4.6c0,1.1,0.3,1.4,1.4,1.5c0.1,0,0.2,0,0.2,0c0.2,0,0.2,0.1,0.3,0.3c0,0.2-0.1,0.2-0.2,0.2c-1.8,0-3.5,0-5.3,0
		c-0.2,0-0.3,0-0.2-0.2c0-0.2,0-0.3,0.2-0.3c1.4-0.1,1.4-0.2,1.4-1.5c0-3.8,0-7.7,0-11.5c0-1.1-0.2-1.3-1.3-1.4
		c-0.2,0-0.3,0-0.3-0.2c0-0.2,0.1-0.3,0.3-0.3c2.3,0,4.6-0.2,6.9,0c1,0.1,1.9,0.4,2.8,0.9c2.5,1.4,2.4,5.2,0.1,6.6
		C63.2,25,62.6,25.3,62,25.5z M57.5,21.9c0,1,0,2,0,3c0,0.3,0,0.4,0.4,0.4c0.6-0.1,1.1,0,1.7-0.1c2.3-0.2,3.4-1.5,3.5-3.7
		c0-1.8-0.9-3.1-2.5-3.6c-0.6-0.2-1.1-0.2-1.7-0.1c-1,0-1.3,0.4-1.3,1.3C57.5,20,57.5,21,57.5,21.9z"/>
	<path class="st9" d="M40,52.1c-0.6,0.8-1.2,1.6-2,2.3c-4.3,3.3-10.5,1.3-12.2-4C24.1,45,28.4,39.7,34,40.2c2.5,0.2,4.4,1.4,5.8,3.5
		c0,0.1,0.1,0.1,0.1,0.2c0.2,0.4,0.4,0.8,0.6,1.2c0.1,0.1,0,0.3,0.3,0.4c-0.1,0.2,0,0.4,0,0.5c0.4,1.4,0.4,2.7,0,4.1
		c-0.1,0.2-0.1,0.3,0,0.5c-0.1,0-0.2,0.1-0.2,0.1C40.4,51.2,40.2,51.6,40,52.1z M33.3,54.4c4.3,0,6.3-3.7,6.3-6.4
		c0-3.5-2.8-6.2-6.3-6.3c-4,0-6.4,3.3-6.3,6.3C27,51,29.1,54.4,33.3,54.4z"/>
	<path class="st10" d="M53.4,44c1.1-1.9,2.8-3.2,5-3.7c2.4-0.5,4.7-0.1,6.6,1.5c1.6,1.3,2.5,2.9,2.8,4.9c0.4,2.7-0.5,5-2.4,7
		c-1.2,1.2-2.7,1.8-4.4,2c-2.1,0.2-4.1-0.2-5.8-1.6c-0.6-0.5-1.2-1.1-1.6-1.8c-0.1-0.2-0.2-0.4-0.4-0.5c0.3-0.5,0.4-1,0.7-1.4
		c0.2,0,0.2,0.3,0.3,0.4c0.3,0.7,0.8,1.3,1.3,1.8c1.2,1.2,2.7,1.7,4.4,1.6c2,0,3.6-0.8,4.8-2.4c1.9-2.6,1.8-5.8-0.2-8.2
		c-2.6-3.1-8.1-2.7-10.2,1c-0.1,0.2-0.2,0.6-0.5,0.7C53.8,45,53.6,44.5,53.4,44z"/>
	<path class="st6" d="M54.1,50.6c-0.3,0.4-0.5,1-0.7,1.4c-2.6,4.6-8.3,4.7-11.3,2.4c-0.9-0.6-1.6-1.4-2.1-2.4
		c0.2-0.5,0.4-0.9,0.6-1.4c0-0.1,0.1-0.1,0.2-0.1c0.1,0.1,0.2,0.3,0.2,0.4c1.3,2.6,3.7,3.7,6.6,3.3c3.5-0.5,5.9-3.9,5.2-7.3
		c-0.5-2.5-1.9-4.4-4.5-5c-2.6-0.7-4.8-0.1-6.6,2c-0.4,0.5-0.6,1-1,1.5c-0.2,0-0.2-0.2-0.3-0.4c-0.2-0.4-0.4-0.8-0.6-1.2
		c2.5-4.3,8.2-4.6,11.3-2.2c0.7,0.5,1.3,1.1,1.7,1.8c0.1,0.2,0.3,0.4,0.4,0.5c0.2,0.5,0.4,0.9,0.7,1.4c0,0.2,0,0.4,0.1,0.5
		c0.2,0.8,0.3,1.7,0.3,2.6C54.4,49.2,54.1,49.9,54.1,50.6z"/>
	<path class="st11" d="M32.6,17.3c1.7,0,3.5,0,5.2,0c0.3,0,0.5,0.1,0.6,0.4c0.3,0.9,0.6,1.8,0.9,2.7c0,0.1,0.2,0.3,0,0.4
		c-0.2,0.1-0.3,0-0.4-0.2c-0.4-0.7-1-1.3-1.6-1.8c-0.7-0.6-1.6-1-2.5-1c-1.2,0-2.3,0-3.5,0c-0.3,0-0.3,0.1-0.3,0.3
		c0,2.1,0,4.1,0,6.2c0,0.3,0.1,0.3,0.3,0.3c0.7,0,1.5,0,2.2-0.1c1.3-0.1,1.8-0.6,2.2-1.8c0.1-0.2-0.1-0.6,0.3-0.5
		c0.3,0.1,0.1,0.4,0.1,0.6c0,1.6,0,3.1,0,4.7c0,0.1,0.1,0.4-0.2,0.4c-0.3,0-0.2-0.2-0.3-0.4c-0.2-1.5-0.9-2.2-2.4-2.4
		c-0.7-0.1-1.4,0-2.1-0.1c-0.2,0-0.3,0-0.3,0.3c0,2,0,3.9,0,5.9c0,0.4,0.3,0.7,0.6,0.8c0.4,0.1,0.8,0.2,1.2,0.2
		c0.2,0,0.2,0.1,0.2,0.3c0,0.2-0.1,0.2-0.2,0.2c-1.8,0-3.7,0-5.5,0c-0.2,0-0.3,0-0.3-0.2c0-0.2,0-0.3,0.2-0.3c0.1,0,0.2,0,0.3,0
		c0.8-0.1,1.1-0.4,1.1-1.2c0-4,0-8,0-12c0-0.8-0.3-1.1-1.1-1.2c-0.1,0-0.1,0-0.2,0c-0.2,0-0.4,0.1-0.4-0.3c0-0.3,0.2-0.2,0.4-0.2
		C29.1,17.3,30.8,17.3,32.6,17.3z"/>
	<path class="st11" d="M53.4,27.8c-0.4,1.6-0.8,3.1-1.2,4.7c-0.1,0.2-0.1,0.3-0.4,0.3c-4.1,0-8.1,0-12.2,0c-0.1,0-0.3,0.1-0.3-0.2
		c0-0.2,0.1-0.3,0.3-0.3c0.1,0,0.2,0,0.2,0c1,0,1.3-0.3,1.3-1.3c0-3.9,0-7.9,0-11.8c0-0.9-0.4-1.3-1.2-1.3c-0.1,0-0.2,0-0.2,0
		c-0.2,0-0.3,0-0.3-0.3c0-0.2,0.1-0.2,0.3-0.2c1.8,0,3.7,0,5.5,0c0.2,0,0.3,0,0.3,0.2c0,0.2-0.1,0.3-0.3,0.3c-0.1,0-0.1,0-0.2,0
		c-1.3,0.1-1.6,0.5-1.6,1.7c0,3.6,0,7.2,0,10.8c0,1.5,0.3,1.9,1.8,1.9c1,0,2.1,0,3.1-0.1c1.1-0.1,2-0.6,2.7-1.5
		c0.6-0.9,1.2-1.7,1.8-2.7C52.9,27.8,53.1,27.7,53.4,27.8z"/>
	<path class="st11" d="M21.2,25c0-1.9,0-3.8,0-5.7c0-1.1-0.3-1.4-1.4-1.5c-0.1,0-0.2,0-0.4,0c-0.2,0-0.3,0-0.3-0.3
		c0-0.3,0.2-0.2,0.3-0.2c0.1,0,0.2,0,0.4,0c1.8,0,3.5,0,5.3,0c0.1,0,0.4-0.1,0.4,0.2c0,0.3-0.2,0.3-0.4,0.3c0,0-0.1,0-0.1,0
		c-1.3,0.1-1.6,0.3-1.6,1.6c0,3.7,0,7.5,0,11.2c0,1.1,0.2,1.5,1.5,1.6c0.1,0,0.2,0,0.3,0c0.2,0,0.2,0.1,0.2,0.3
		c0,0.2-0.1,0.2-0.3,0.2c-0.9,0-1.7,0-2.6,0c-1.1,0-2.1,0-3.2,0c-0.2,0-0.3,0-0.3-0.2c0-0.3,0.1-0.2,0.3-0.2
		c1.5-0.1,1.7-0.3,1.7-1.8C21.2,28.6,21.2,26.8,21.2,25z"/>
	<path class="st12" d="M21.8,55.6c0-0.5,0-1.1,0-1.6c0-3.8,0-7.6,0-11.3c0-0.2,0-0.4,0-0.5c0-0.3-0.2-0.2-0.4-0.2
		c-0.5,0-1.1,0-1.6,0c-0.3,0-0.4-0.1-0.4-0.4c0,0,0,0,0,0c0.1,0,0.1-0.1,0.1-0.2c0,0,0,0,0,0c0.2,0,0.2-0.1,0.2-0.3c0,0,0,0,0,0
		c0.1,0,0.1-0.1,0.1-0.2c0,0,0,0,0,0c0.2,0,0.2-0.1,0.2-0.3c0,0,0,0,0,0c0.1,0,0.1-0.1,0.1-0.2l0,0c1,0,2,0,2.9,0
		c0.4,0,0.5,0.1,0.5,0.5c0,4.7,0,9.4,0,14.1c0,0.1,0,0.2,0,0.2c0,0.2-0.1,0.3-0.3,0.3C22.7,55.6,22.2,55.6,21.8,55.6z"/>
	<path class="st13" d="M21.8,55.6c0.5,0,0.9,0,1.4,0c0.2,0,0.3-0.1,0.3-0.3c0-0.1,0-0.1,0-0.2c0-4.7,0-9.4,0-14.1
		c0-0.4-0.1-0.6-0.5-0.5c-1,0-1.9,0-2.9,0c0.1-0.2,0.3-0.2,0.4-0.2c0.9,0,1.8,0,2.7,0c0.3,0,0.4,0.1,0.4,0.4c0,4.7,0,9.3,0,14
		c0,0.4,0.2,0.8-0.1,1c-0.2,0.2-0.7,0-1,0c-0.2,0-0.4,0-0.6,0C21.8,55.8,21.7,55.7,21.8,55.6z"/>
	<path class="st13" d="M19.4,41.5c0,0.3,0,0.4,0.4,0.4c0.5,0,1.1,0,1.6,0c0.2,0,0.3-0.1,0.4,0.2c-0.9-0.1-1.7,0-2.6-0.1
		C19.2,41.8,19.3,41.7,19.4,41.5z"/>
	<path class="st13" d="M19.9,40.6c0,0.1,0,0.3-0.2,0.3C19.8,40.8,19.9,40.7,19.9,40.6z"/>
	<path class="st13" d="M19.7,41.1c0,0.1,0,0.3-0.2,0.3C19.6,41.3,19.6,41.2,19.7,41.1z"/>
	<path class="st13" d="M19.8,40.9c0,0.1,0,0.2-0.1,0.2C19.7,41,19.7,41,19.8,40.9z"/>
	<path class="st13" d="M20,40.5c0,0.1,0,0.2-0.1,0.2C20,40.6,20,40.5,20,40.5z"/>
	<path class="st13" d="M19.5,41.4c0,0.1,0,0.2-0.1,0.2C19.4,41.5,19.5,41.4,19.5,41.4z"/>
	<path class="st7" d="M57.5,21.9c0-1,0-1.9,0-2.9c0-1,0.3-1.3,1.3-1.3c0.6,0,1.1,0,1.7,0.1c1.6,0.5,2.6,1.8,2.5,3.6
		c0,2.3-1.2,3.5-3.5,3.7c-0.6,0.1-1.1,0-1.7,0.1c-0.3,0-0.4-0.1-0.4-0.4C57.5,23.9,57.5,22.9,57.5,21.9z"/>
	<path class="st0" d="M33.3,54.4c-4.2,0-6.3-3.4-6.4-6.4c0-3,2.3-6.3,6.3-6.3c3.5,0,6.3,2.8,6.3,6.3C39.6,50.7,37.6,54.4,33.3,54.4z
		"/>
	<path class="st0" d="M40.8,45.4c0.3-0.5,0.6-1,1-1.5c1.8-2.1,4.1-2.7,6.6-2c2.5,0.7,4,2.5,4.5,5c0.6,3.4-1.8,6.8-5.2,7.3
		c-2.9,0.4-5.3-0.8-6.6-3.3c-0.1-0.1-0.1-0.3-0.2-0.4c-0.1-0.2,0-0.3,0-0.5c0.4-1.4,0.4-2.7,0-4.1C40.8,45.8,40.7,45.6,40.8,45.4z"
		/>
	<path class="st0" d="M54.1,50.6c0-0.7,0.3-1.3,0.4-2c0.1-0.9,0-1.7-0.3-2.6c0-0.2-0.1-0.4-0.1-0.5c0.3-0.1,0.3-0.4,0.5-0.7
		c2-3.7,7.5-4.1,10.2-1c2.1,2.4,2.2,5.6,0.2,8.2c-1.2,1.6-2.8,2.4-4.8,2.4c-1.7,0-3.2-0.5-4.4-1.6c-0.5-0.5-1-1.1-1.3-1.8
		C54.3,50.8,54.3,50.6,54.1,50.6z"/>
</g>
</svg>
