<?xml version="1.0" encoding="utf-8"?>
<!-- Generator: Adobe Illustrator 22.1.0, SVG Export Plug-In . SVG Version: 6.00 Build 0)  -->
<svg version="1.1" id="Layer_1" xmlns="http://www.w3.org/2000/svg" xmlns:xlink="http://www.w3.org/1999/xlink" x="0px" y="0px"
	 viewBox="0 0 171 97" style="enable-background:new 0 0 171 97;" xml:space="preserve">
<style type="text/css">
	.st0{fill:#E0E2E8;}
	.st1{fill:#E3E6EC;}
	.st2{fill:#9799AA;}
	.st3{fill:#0E275A;}
	.st4{fill:#061E54;}
	.st5{fill:#9597A9;}
	.st6{fill:#FFFFFF;}
</style>
<path class="st0" d="M170.3,81c-1.1,0-2.3,0-3.4,0c-53.8,0-107.6,0-161.3,0c-1,0-2,0-3.1-0.1c-0.4-1.1-0.7-2.2-0.7-3.5
	c0-22.6,0-45.1,0.1-67.7c0-4.7,1.4-5,4.8-5c51.3,0,102.6,0,154,0c3.2,0,6.6-0.6,9.6,1C170.3,30.8,170.3,55.9,170.3,81z M86.2,6.8
	c-26.4,0-52.7,0-79.1,0C4.4,6.8,4.2,7,4.2,9.7c0,22.3,0,44.7,0,67c0,0.3,0,0.7,0,1c-0.1,1.2,0.6,1.8,1.7,1.9c0.6,0.1,1.1,0,1.7,0
	c52.5,0,105,0,157.6,0c2.9,0,3.1-0.2,3.1-3.1c0-22.3,0-44.6,0-66.9c0-2.7-0.2-2.9-2.9-2.9C139,6.8,112.6,6.8,86.2,6.8z"/>
<path class="st1" d="M170.3,5.8c-3.1-1.6-6.4-1-9.6-1c-51.3,0-102.6,0-154,0c-3.4,0-4.8,0.3-4.8,5c-0.1,22.6,0,45.1-0.1,67.7
	c0,1.2,0.4,2.3,0.7,3.5c-0.8,0-1.6,0.1-2.4,0.1c0-26.2,0-52.4,0-78.6C0.2,2.3,0.4,2.1,0.5,2C57,2,113.5,2,170,2
	c0.1,0.1,0.2,0.2,0.3,0.3C170.3,3.5,170.3,4.6,170.3,5.8z"/>
<path class="st2" d="M170.3,2.4c-0.1-0.1-0.2-0.2-0.3-0.3C170.3,2,170.4,2.1,170.3,2.4z"/>
<path class="st2" d="M0.5,2C0.4,2.1,0.2,2.3,0.1,2.4C0.1,2.1,0.2,2,0.5,2z"/>
<path class="st0" d="M51.3,86.8c0-0.4,0-0.8,0-1.2c0-2.7,0-2.7,2.7-2.7c1.1,0,2.1,0.3,2.5,1.3c0.4,0.9,0.3,1.9-0.6,2.8
	c-1,0.9,0.3,1.6,0.5,2.3c0.1,0.5,1,1,0.4,1.4c-0.8,0.5-1.1-0.5-1.4-1c-0.2-0.4-0.5-0.8-0.6-1.2c-0.3-0.8-0.8-1.2-1.7-1
	c-1,0.2-0.4,1-0.5,1.5c-0.1,0.4,0,0.8,0,1.2c0,0.4-0.2,0.6-0.6,0.6c-0.4,0-0.6-0.3-0.6-0.6C51.3,89.1,51.3,87.9,51.3,86.8
	C51.3,86.8,51.3,86.8,51.3,86.8z M52.6,85.1c0.1,0.7-0.4,1.7,1,1.6c1-0.1,2-0.2,2.1-1.5c0.1-1.3-0.9-1.4-1.8-1.5
	C52.7,83.6,52.4,84.1,52.6,85.1z"/>
<path class="st0" d="M58,87.9c0-1.7,1-2.9,2.4-3c1.5,0,2.2,0.8,2.5,2.2c0.2,0.9-0.1,1.2-0.9,1.1c-0.5,0-0.9,0-1.4,0
	c-0.5,0.1-1.2-0.3-1.5,0.4c-0.2,0.3,0.1,0.6,0.3,0.9c0.5,0.6,1.1,0.7,1.8,0.6c0.5-0.1,1-1.2,1.3-0.3c0.3,0.7-0.8,0.9-1.4,1.1
	C59.3,91.4,57.9,90.1,58,87.9z M60.4,87.5c0.4-0.3,1.3,0.4,1.3-0.6c0-0.7-0.5-1.1-1.2-1.1c-0.8-0.1-1.3,0.5-1.4,1.2
	C59.1,87.8,60,87.3,60.4,87.5z"/>
<path class="st0" d="M82.4,87.8c0-0.1,0-0.1,0-0.2c0-2.8,0-2.8,2.7-2.7c1,0,1.7,0.5,1.8,1.5c0.1,1.2,0,2.5,0,3.7
	c0,0.3-0.1,0.7-0.5,0.7c-0.5,0-0.5-0.4-0.5-0.7c0-1,0-2,0-3c0-0.8-0.3-1.3-1.2-1.3c-0.8,0-1.3,0.5-1.3,1.3c0,1,0,1.9,0,2.9
	c0,0.4,0.1,0.9-0.5,0.9c-0.6,0-0.5-0.5-0.5-0.8C82.4,89.2,82.4,88.5,82.4,87.8z"/>
<path class="st1" d="M74.7,88c0,2-0.9,3.1-2.6,3.1c-1.6,0-2.6-1.1-2.6-3c0-1.9,0.9-3.1,2.6-3.1C73.8,84.9,74.7,86,74.7,88z
	 M73.7,88.1c0-1.1-0.1-2.3-1.6-2.3c-1.4,0-1.5,1.2-1.5,2.2c0,1.1,0.1,2.2,1.5,2.2C73.5,90.2,73.7,89.1,73.7,88.1z"/>
<path class="st1" d="M66.3,84.9c0.6,0,1.2,0.1,1.5,0.6c0.3,0.4,1,0.8,0.5,1.3c-0.7,0.7-0.7-0.3-0.9-0.6c-0.4-0.5-1-0.6-1.5-0.3
	c-0.8,0.4-1,1.2-1,2c0,0.9,0.1,1.8,1,2.2c0.7,0.3,1.4,0.2,1.8-0.7c0.1-0.4,0.6-0.3,0.9-0.1c0.1,0-0.1,0.5-0.2,0.7
	c-0.5,0.8-1.1,1.2-2,1.1c-1.5-0.1-2.5-1.4-2.4-3.1C63.7,86.2,64.8,85,66.3,84.9z"/>
<path class="st0" d="M79.5,85.4c1.1-0.7,1.5-0.2,1.4,1c-0.1,1.5-0.1,2.9,0,4.4c0,1-0.3,1.8-1.2,2.2c-0.9,0.5-1.9,0.4-2.7-0.2
	c-0.3-0.2-0.7-0.4-0.5-0.8c0.2-0.4,0.5-0.2,0.9,0c0.9,0.5,1.9,0.6,2.4-0.5c0.2-0.5,0-0.9-0.6-0.7c0-0.2,0-0.4,0-0.7
	c1.2-1.3,0.8-2.8,0.3-4.2C79.4,85.7,79.4,85.6,79.5,85.4z"/>
<path class="st1" d="M79.5,85.4c0,0.2-0.1,0.4-0.1,0.6c-1.3-0.5-2.1,0-2.3,1.4c-0.3,2,0.2,2.7,2,2.9c0,0.2,0,0.4,0,0.7
	c-1.2,0.5-2.1,0.1-2.7-1c-0.7-1.2-0.5-3.5,0.4-4.3C77.5,84.9,78.5,84.5,79.5,85.4z"/>
<path class="st3" d="M52.6,85.1c-0.2-1,0.1-1.5,1.2-1.4c0.9,0.1,1.9,0.2,1.8,1.5c-0.1,1.3-1,1.4-2.1,1.5
	C52.2,86.8,52.6,85.8,52.6,85.1z"/>
<path class="st3" d="M60.4,87.5c-0.5-0.2-1.3,0.3-1.3-0.6c0-0.7,0.5-1.2,1.4-1.2c0.7,0.1,1.2,0.5,1.2,1.1
	C61.8,87.9,60.9,87.2,60.4,87.5z"/>
<path class="st3" d="M73.7,88.1c0,1-0.2,2.1-1.6,2.1c-1.4,0-1.5-1.1-1.5-2.2c0-1.1,0.1-2.2,1.5-2.2C73.6,85.7,73.7,86.9,73.7,88.1z"
	/>
<path class="st3" d="M79.1,90.2c-1.8-0.1-2.3-0.8-2-2.9c0.2-1.4,1-1.8,2.3-1.4C79.9,87.4,80.3,88.8,79.1,90.2z"/>
<path class="st2" d="M81.9,30c1.1-3,2.3-6,3.4-9c0.2-0.5,0-0.9-0.1-1.3c-0.5-1.6-1.1-3.2-1.7-4.8c-0.5-1.3-1.2-2.4-2.8-2.7
	c-0.4-0.1-1-0.1-0.9-0.8c0.1-0.5,0.6-0.7,1.1-0.7c3.9,0,7.8,0,11.7,0c0.5,0,0.9,0.2,0.9,0.8c0,0.5-0.5,0.6-0.8,0.7
	c-2.5,0.9-2.5,0.9-1.6,3.5c1.4,3.9,2.7,7.8,4.1,11.7c0.2,0.5,0.2,1.1,0.8,1.2c0.7,0.1,0.7-0.7,0.8-1.1c1.3-3.9,2.7-7.8,3.9-11.8
	c0.7-2.2,0.4-2.7-1.8-3.5c-0.4-0.1-0.9-0.2-0.9-0.7c0-0.6,0.5-0.7,1-0.7c2,0,4.1,0,6.1,0c0.4,0,0.8,0.2,0.9,0.6
	c0.2,0.6-0.2,0.8-0.7,1c-1.5,0.5-2,1.8-2.4,3.1c-2.6,8-5.2,15.9-7.9,23.9c-0.3,0.9-0.2,2.4-1.5,2.4c-1.4,0.1-1.2-1.4-1.5-2.3
	c-1.6-4.4-3.2-8.9-4.7-13.3c-0.2-0.7-0.4-1.4-1.1-2.1c-1.3,3.4-2.6,6.6-3.9,9.8c-0.9,2.2-1.7,4.4-2.6,6.7c-0.2,0.6-0.3,1.3-1.1,1.3
	c-0.8,0-1.1-0.7-1.3-1.3c-1.8-5.1-3.6-10.2-5.3-15.2c-1.2-3.5-2.4-7-3.6-10.4c-0.4-1.1-0.8-2-2-2.4c-0.5-0.2-1.1-0.3-0.9-1
	c0.2-0.6,0.8-0.7,1.4-0.7c2,0,4.1,0,6.1,0c1.4,0,2.8,0,4.3,0c0.5,0,1.1,0.1,1.2,0.7c0.1,0.7-0.6,0.8-1,0.9c-1.6,0.3-1.9,1.4-1.4,2.7
	c1.7,5,3.5,10.1,5.3,15.1C81.6,29.9,81.8,30,81.9,30z"/>
<path class="st4" d="M51.1,30.1c1.2-3,2.3-5.9,3.4-8.8c0.2-0.5,0-1-0.2-1.5c-0.6-1.7-1.2-3.3-1.7-5c-0.4-1.2-0.9-2.3-2.4-2.6
	c-0.4-0.1-0.7-0.4-0.7-0.8c0.1-0.6,0.6-0.7,1-0.7c3.7,0,7.4,0,11.1,0c0.5,0,0.9,0.2,1,0.7c0.1,0.6-0.5,0.8-0.9,0.8
	c-1.3,0.2-2.2,0.8-1.7,2.1c1.7,5.3,3.6,10.6,5.5,16.3c1.2-3.1,2.3-5.9,3.5-8.8c0.8,1.4,1.2,2.4,0.6,3.9c-2,4.9-3.9,9.8-5.8,14.7
	c-0.2,0.6-0.3,1.4-1.2,1.4c-1,0-1-0.9-1.3-1.6c-1.9-5.3-3.7-10.7-5.7-16.4c-1.3,3.4-2.6,6.4-3.8,9.4c-1,2.4-1.9,4.8-2.8,7.3
	c-0.2,0.6-0.4,1.2-1.2,1.2c-0.8,0-1-0.7-1.2-1.2c-2.4-6.9-4.8-13.8-7.2-20.7c-0.6-1.7-1.2-3.3-1.7-5c-0.4-1.2-0.9-2.3-2.3-2.7
	c-0.4-0.1-0.7-0.4-0.7-0.8c0.1-0.6,0.5-0.7,1-0.7c3.7,0,7.4,0,11.1,0c0.5,0,0.9,0.2,1,0.7c0.1,0.6-0.4,0.8-0.8,0.8
	c-1.8,0.2-2.1,1.3-1.6,2.8c1.7,5,3.5,9.9,5.2,14.9C50.7,29.9,50.9,30,51.1,30.1z"/>
<path class="st4" d="M120.6,41.9c-3.9,0-7.8,0-11.7,0c-0.6,0-1.4,0.2-1.5-0.6c-0.1-0.9,0.8-0.8,1.3-0.9c1.9-0.4,2.5-1.1,2.5-3
	c0-7.3,0-14.6,0-21.9c0-2-0.6-2.7-2.6-3.1c-0.6-0.1-1.3,0-1.2-0.8c0-0.9,0.8-0.6,1.3-0.6c4.5,0,9,0,13.4,0c0.5,0,1.1-0.2,1.2,0.5
	c0,0.7-0.6,0.7-1.1,0.8c-3.1,0.5-3.4,0.8-3.4,3.9c0,7.1,0,14.3,0,21.4c0,1.9,0.5,2.4,2.4,2.5c6.3,0.4,9.8-1.8,12.4-7.6
	c0.3-0.6,0.5-1.5,1.4-1.2c0.9,0.3,0.5,1.1,0.4,1.7c-0.4,2.4-0.9,4.9-1.3,7.3c-0.2,1-0.6,1.5-1.8,1.5
	C128.5,41.8,124.6,41.9,120.6,41.9z"/>
<path class="st3" d="M80.1,52c1.2-2,1.3-4.1,1.7-6.2c0.1-0.7,0.2-1.2,1.2-1.2c1.2,0,1.7,0.1,1.3,1.6c-0.8,3.2-1.5,6.5-2.2,9.8
	c-0.2,0.8-0.5,1.3-1.5,1.2c-0.8-0.1-1.5,0-1.7-1.1c-0.4-2.1-1-4.1-1.7-6.7c-1,2.3-1.2,4.3-1.7,6.2c-0.3,1-0.6,1.7-1.9,1.6
	c-1.4,0-1.3-0.9-1.5-1.8c-0.7-3.1-1.4-6.3-2.1-9.4c-0.1-0.4-0.7-1.3,0.4-1.3c0.7,0,1.8-0.7,2.1,0.9c0.4,2.3,0.9,4.6,1.6,7
	c0.5-2.2,1.1-4.5,1.6-6.7c0.2-0.8,0.3-1.3,1.3-1.3c1,0,1.2,0.5,1.4,1.3C79.2,47.9,79.6,50,80.1,52z"/>
<path class="st3" d="M26,49.6c-0.5,2.3-1.1,4.3-1.5,6.3c-0.2,1.1-0.8,1.1-1.7,1.2c-0.9,0-1.3-0.3-1.5-1.2c-0.7-3.3-1.5-6.6-2.2-9.9
	c-0.1-0.5-0.7-1.4,0.5-1.3c0.7,0,1.7-0.6,2,0.9c0.4,2.4,0.9,4.7,1.7,7.1c0.5-2.2,1.1-4.5,1.6-6.7c0.2-0.8,0.3-1.3,1.3-1.3
	c1.1,0,1.3,0.6,1.5,1.4c0.5,2,0.9,4,1.5,6.5c1.1-2.3,1.1-4.4,1.6-6.4c0.1-0.5-0.1-1.3,0.9-1.4c1.6-0.3,2,0.1,1.6,1.7
	c-0.7,3.2-1.4,6.4-2.1,9.6c-0.2,0.9-0.5,1.3-1.4,1.2c-0.8-0.1-1.5,0-1.7-1.1C27.5,53.9,27.2,51.8,26,49.6z"/>
<path class="st3" d="M137,53c0,1.4,0.1,2.7,0,4.1c-0.1,1.7-1,2.8-2.6,3.4c-1.7,0.6-3.3,0.3-4.8-0.8c-0.5-0.4-0.2-0.8,0-1.2
	c0.3-0.5,0.6-0.7,1.2-0.3c1,0.7,2.1,0.9,3.1,0c0.4-0.3,0.6-0.8,0.4-1.2c-0.3-0.6-0.7,0-1,0.1c-2.2,0.5-4-0.6-4.5-2.8
	c-0.4-1.4-0.4-2.8,0.1-4.2c0.6-1.6,1.7-2.7,3.4-2.5c1.3,0.1,2.6,0.5,3.9,0.2c0.7-0.2,0.8,0.3,0.8,0.9C136.9,50.2,137,51.6,137,53z
	 M134.4,52.4c0-0.3,0-0.6,0-0.8c0-0.9,0.1-1.9-1.2-2c-1.3-0.1-1.8,0.7-2,1.8c-0.1,0.4,0,0.9,0,1.4c0,1.3,0.2,2.4,1.9,2.5
	c1.7,0,1.4-1.3,1.4-2.3C134.4,52.8,134.4,52.6,134.4,52.4z"/>
<path class="st3" d="M37.2,48.6c3.2-2.2,6-0.2,5.5,2.9c-0.2,1.3,0,2.7,0,4.1c0,0.8,0.1,1.5-1.2,1.5c-1.2,0-1.3-0.5-1.2-1.5
	c0.1-1.3,0-2.6,0-3.9c0-1.1,0-2.2-1.5-2.1c-1.4,0-1.6,0.9-1.6,2.1c0,1.4,0,2.8,0,4.2c0,0.9-0.4,1.1-1.2,1.1c-0.8,0-1.2-0.2-1.2-1.1
	c0-3.7,0-7.4,0-11c0-1,0.5-1.1,1.2-1.1c0.9,0,1.2,0.2,1.2,1.1C37.2,46.1,37.2,47.3,37.2,48.6z"/>
<path class="st3" d="M88.3,48.5c0.6-0.3,1-0.6,1.5-0.7c2-0.7,3.9,0.5,4,2.6c0.1,1.9,0,3.9,0,5.8c0,1-0.5,0.9-1.2,0.9
	c-0.7,0-1.2,0-1.2-1c0-1.5,0-3.1,0-4.6c0-1-0.2-2-1.6-1.9c-1.3,0.1-1.6,0.8-1.5,2c0.1,1.4,0,2.8,0,4.2c0,1-0.3,1.3-1.2,1.3
	c-0.9,0-1.2-0.3-1.2-1.2c0-3.7,0-7.4,0-11c0-0.9,0.3-1.1,1.1-1c0.7,0,1.4-0.1,1.3,1C88.2,46,88.3,47.2,88.3,48.5z"/>
<path class="st3" d="M138.8,50.2c0.3-1.9,1.7-2.4,3.2-2.6c2-0.3,3.7,0.5,4.1,1.9c0.7,2.3,0.2,4.7,0.3,7.1c0,0.9-1.3,0.5-1.8,0.3
	c-0.7-0.3-1.1-0.2-1.8,0c-1.8,0.7-3.7-0.2-4.2-1.7c-0.5-1.7,0.4-3.3,2.4-3.7c0.5-0.1,1-0.1,1.5-0.2c0.5-0.1,1.3,0.3,1.2-0.7
	c-0.1-1-0.9-1.3-1.6-1c-0.9,0.4-1.8,0.8-2.9,0.7C139.1,50.3,139,50.3,138.8,50.2z M143.2,52.7c-1.2,0.1-2.1,0.2-2.2,1.4
	c-0.1,0.8,0.4,1.1,1.1,1.1c0.8,0,1.6-0.1,1.6-1.3C143.8,53.4,144,52.6,143.2,52.7z"/>
<path class="st3" d="M121.6,53.4c1,1.9,2,2.4,3.7,1.5c0.8-0.5,1.3-0.2,1.7,0.4c0.6,0.7-0.3,1-0.6,1.3c-1.5,1.1-4,1-5.6-0.2
	c-1.6-1.2-2.2-3.5-1.4-5.8c0.7-1.9,2.1-2.9,4.1-2.8c2.6,0.1,4.5,2.6,4,5.1c-0.2,0.8-0.6,0.7-1.1,0.7
	C124.9,53.4,123.3,53.4,121.6,53.4z M123.3,51.6c0.5-0.3,1.5,0.4,1.6-0.6c0.1-1-0.7-1.3-1.6-1.3c-1,0-1.6,0.7-1.5,1.4
	C121.8,51.9,122.8,51.3,123.3,51.6z"/>
<path class="st3" d="M44.3,52.4c0-3.1,1.6-4.9,4.4-4.8c2.7,0,4.2,1.8,4.2,4.8c0,3.1-1.6,4.8-4.4,4.8C45.9,57.2,44.3,55.4,44.3,52.4z
	 M50.5,52.4c0-1.8-0.8-2.9-2-2.7c-1.8,0.2-1.8,1.6-1.8,2.9c0,1.7,0.7,2.7,1.9,2.7C49.8,55.2,50.6,54.1,50.5,52.4z"/>
<path class="st3" d="M95.3,52.4c0-3,1.6-4.7,4.3-4.8c2.7,0,4.4,1.8,4.3,4.9c0,3-1.6,4.7-4.3,4.7C96.9,57.2,95.3,55.5,95.3,52.4z
	 M101.6,52.6c0-1.9-0.7-3-1.9-3c-1.2,0-1.9,1-1.9,2.8c0,1.8,0.7,2.9,2,2.8C101.4,55.1,101.4,53.7,101.6,52.6z"/>
<path class="st3" d="M61.1,47.6c1-0.1,1.9,0.3,2.7,0.9c0.6,0.5,1.5,1.2,0.7,1.9c-0.5,0.5-1.6,0.6-2.2-0.3c-0.4-0.6-0.9-0.8-1.6-0.7
	c-0.4,0.1-0.9,0.3-1,0.8c-0.1,0.6,0.3,0.8,0.8,1c0.8,0.2,1.5,0.4,2.3,0.6c1.2,0.4,2.1,1.1,2.1,2.5c0,1.5-1,2.2-2.2,2.6
	c-1.7,0.5-3.4,0.3-4.8-0.9c-0.5-0.5-1.2-1.3-0.6-1.8c0.5-0.4,1.6-0.6,2.2,0.4c0.2,0.3,0.4,0.6,0.7,0.7c0.8,0.2,1.7,0.4,2.1-0.5
	c0.4-1-0.6-1.2-1.3-1.4c-0.5-0.2-1.1-0.2-1.6-0.4c-1.2-0.5-2.2-1.2-2.1-2.7c0.2-1.5,1.3-2.2,2.6-2.6C60.2,47.6,60.7,47.6,61.1,47.6z
	"/>
<path class="st3" d="M110.2,50.7c0-1.6,0.1-3.3,0-4.9c0-1,0.4-1.2,1.3-1.2c0.9,0,1.3,0.1,1.3,1.2c-0.1,2.7,0,5.3,0,8
	c0,1,0.3,1.4,1.3,1.3c1-0.1,2,0,3,0c0.7,0,1,0.2,1,1c0,0.7-0.2,1.1-0.9,1.1c-2,0-4,0-5.9,0c-0.9,0-1.1-0.4-1-1.1
	C110.3,54.2,110.2,52.5,110.2,50.7z"/>
<path class="st4" d="M150.7,50.4c0,1.8,0,3.6,0,5.4c0,0.9-0.2,1.3-1.2,1.3c-0.9,0-1.3-0.1-1.3-1.2c0.1-3.6,0.1-7.3,0-10.9
	c0-1.1,0.5-1.1,1.3-1.2c1,0,1.3,0.3,1.2,1.3C150.6,46.9,150.7,48.6,150.7,50.4z"/>
<path class="st2" d="M63.9,67.8c0.1,1-0.4,1.8,0.2,2.8c-1-0.2-1.7-0.2-2.4,0c-0.8,0.2-1.6-0.1-2.1-0.9c-0.4-0.7-0.3-1.3,0.2-1.9
	c0.4-0.5,0.4-0.9,0.2-1.5c-0.2-0.7-0.2-1.5,0.7-1.9c0.7-0.3,1.4-0.2,1.9,0.4c0.6,0.7,0.3,1.3-0.2,1.8c-0.4,0.5-0.5,0.9-0.1,1.5
	C63,69,63.3,67.9,63.9,67.8z M62.3,69.4c-0.2-0.6-0.6-1.1-1.2-1.3c-0.6-0.1-0.8,0.4-0.8,0.8c0,0.7,0.5,1.1,1.2,1.1
	C61.8,70,62.2,69.9,62.3,69.4z M61.6,65c-0.5,0-0.7,0.3-0.8,0.7c0,0.4,0.1,0.7,0.5,0.8c0.5,0,0.7-0.3,0.7-0.8
	C62.1,65.4,62,65.1,61.6,65z"/>
<path class="st2" d="M9.5,70.4c-0.8-0.2-0.9-0.9-1.2-1.4C8,68.5,7.8,68,7.1,68.1c-0.7,0.1-0.6,0.7-0.7,1.2c-0.1,0.4,0.1,1.1-0.5,1
	c-0.6-0.1-0.3-0.7-0.4-1.2c0-1-0.1-1.9,0-2.9c0-0.7-0.4-1.7,0.6-1.9c1.1-0.2,2.3-0.4,3.1,0.7c0.6,0.7,0.6,1.7-0.1,2.3
	C8,68.5,10,69.2,9.5,70.4z M6.3,66.3c-0.1,0.9,0.4,1.2,1.2,1.2c0.8,0,1.3-0.4,1.3-1.2c0-0.9-0.6-1.2-1.5-1.3
	C6.5,64.9,6.3,65.5,6.3,66.3z"/>
<path class="st2" d="M52.9,71.5c0.6,0.1,1,0.2,1.3,0.2c0.5,0,1-0.2,0.9-0.8c0-0.7-0.6-0.3-0.9-0.3c-1.1,0-1.5-0.8-1.8-1.7
	c-0.3-1-0.1-2,0.7-2.6c0.8-0.7,1.9-0.3,2.8-0.1c0.5,0.1,0.6,4.3,0.1,5.2c-0.7,1.2-1.6,1.3-2.7,0.7C53.2,72,53.1,71.9,52.9,71.5z
	 M55.6,68.3c0-0.8-0.1-1.7-1.1-1.8c-1,0-1.2,0.9-1.2,1.7c0,0.8,0.2,1.7,1.2,1.8C55.4,70,55.6,69.1,55.6,68.3z"/>
<path class="st2" d="M165.1,67.5c0,0.3,0,0.7,0,1c-0.1,1.2-0.6,2.2-1.9,2.1c-1.3,0-1.9-0.9-1.9-2.2c0-0.7,0-1.5,0-2.2
	c0.1-1.1,0.5-2,1.9-1.9c1.3,0.1,1.9,0.8,2,2.1C165.1,66.8,165.1,67.1,165.1,67.5C165.1,67.5,165.1,67.5,165.1,67.5z M164.2,67.7
	c0-0.6,0-0.9,0-1.2c0-0.7-0.2-1.3-1-1.4c-0.8-0.1-1.1,0.5-1.2,1.2c-0.1,0.3-0.2,0.7-0.2,1c0.1,1.1-0.2,2.7,1.3,2.7
	C164.6,69.9,164.1,68.4,164.2,67.7z"/>
<path class="st2" d="M155.4,67.5c0,0.4,0,0.8,0,1.2c0,1.1-0.6,1.9-1.8,1.9c-1.1,0.1-1.8-0.6-1.9-1.7c-0.1-0.8-0.1-1.7,0-2.5
	c0.1-1.3,0.7-2.1,2.1-2c1.3,0.1,1.7,0.9,1.7,2.1C155.4,66.8,155.4,67.2,155.4,67.5C155.4,67.5,155.4,67.5,155.4,67.5z M154.7,67.4
	c-0.3-0.8,0.4-2.4-1.2-2.3c-1.3,0-1.2,1.5-1.2,2.4c0,0.9-0.1,2.4,1.2,2.4C154.9,69.9,154.5,68.5,154.7,67.4z"/>
<path class="st2" d="M47.8,68.1c0.5-0.5-0.9-1.9,0.8-2.1c2.4-0.2,3.7,1.7,2.7,3.9c-0.1,0.2-0.2,0.4-0.5,0.4
	c-0.3-0.1-0.3-0.3-0.3-0.5c0-0.6,0-1.2,0-1.9c0-0.6,0-1.2-0.8-1.3c-0.8,0-1,0.6-1,1.3c0,0.6,0,1.1,0,1.7c0,0.3,0,0.8-0.4,0.8
	c-0.6,0-0.4-0.5-0.5-0.9C47.8,69.1,47.8,68.7,47.8,68.1z"/>
<path class="st2" d="M69.6,68.1c0.5-0.5-0.8-1.9,0.8-2.1c2.5-0.3,3.7,1.5,2.8,3.9c-0.1,0.2-0.2,0.4-0.4,0.4c-0.3,0-0.4-0.3-0.4-0.5
	c0-0.7,0-1.5-0.1-2.2c0-0.5-0.1-0.9-0.7-1c-0.6,0-1,0.3-1,0.9c-0.1,0.7,0,1.4-0.1,2c0,0.4,0.1,0.9-0.5,0.9c-0.4,0-0.3-0.5-0.3-0.8
	C69.6,69.2,69.6,68.7,69.6,68.1z"/>
<path class="st2" d="M119.9,64.2c0,2,0.1,3.8-0.1,5.7c-0.1,0.9-1.2,0.5-1.9,0.6c-0.9,0.2-1.5-0.5-1.7-1.3c-0.6-1.8,0.2-3.1,2.3-3.2
	C119.9,65.9,118.8,64.5,119.9,64.2z M119.3,68.2c0-0.8-0.1-1.7-1.1-1.7c-1,0-1.2,0.9-1.2,1.7c0,0.8,0.3,1.7,1.2,1.7
	C119.2,69.9,119.3,69.1,119.3,68.2z"/>
<path class="st2" d="M160.2,70.2c-0.2,0.2-0.2,0.3-0.3,0.3c-1.2,0.2-2.7,0.7-3.3-0.3c-0.5-0.7,1.1-1.5,1.6-2.4
	c0.1-0.2,0.4-0.4,0.6-0.6c0.4-0.7,0.8-1.5-0.1-2.1c-0.8-0.5-1.4,0-1.7,0.8c-0.1,0.1-0.2,0.2-0.5,0.4c-0.5-0.8,0-1.3,0.5-1.7
	c0.7-0.5,1.5-0.5,2.2,0c0.6,0.4,1,1.1,0.7,1.9c-0.2,0.7-0.7,1.3-1.2,1.8c-0.4,0.4-1,0.8-0.8,1.4c0.2,0.6,1,0.2,1.5,0.4
	C159.6,70.1,159.8,70.1,160.2,70.2z"/>
<path class="st2" d="M115.5,70.4c-2.4-2.2-3.1-2.3-4.7-0.1c-0.2-0.9-0.2-0.9,0.8-3.3c0.4-0.9,0.3-2.4,1.4-2.4c0.9,0,0.9,1.5,1.3,2.4
	C114.7,68.1,115.1,69.2,115.5,70.4z M112.9,65.8c-0.2,0.8-1.1,1.4-0.5,2.3c0.2,0.3,0.9,0.3,1.1,0.1
	C114.2,67.3,113.1,66.6,112.9,65.8z"/>
<path class="st2" d="M13.9,69.6c-0.6,1.1-1.4,1.2-2.4,0.6c-1-0.6-1.2-1.6-0.9-2.7c0.2-1,0.9-1.7,1.9-1.7c1.1-0.1,1.8,0.6,1.9,1.8
	c0.1,1.1-0.8,0.7-1.3,0.8c-0.5,0.1-1.2-0.3-1.5,0.4c-0.1,0.2,0.1,0.5,0.3,0.7c0.5,0.6,1.1,0.5,1.7,0.2
	C13.5,69.6,13.7,69.7,13.9,69.6z M12.3,67.8c0.4-0.1,1,0.2,1-0.5c0-0.5-0.4-0.7-0.8-0.7c-0.5,0-0.9,0.2-1,0.7
	C11.4,67.9,12,67.7,12.3,67.8z"/>
<path class="st2" d="M91,66.7c0.2-1.1,1-0.9,1.7-0.7c0.9,0.3,1.2,1.1,1.1,1.9c0,0.6-0.7,0.4-1.1,0.5c-0.6,0.1-1.3-0.3-1.7,0.4
	c-0.1,0.2,0.1,0.5,0.3,0.7c0.6,0.7,1.2,0.3,1.8,0c0.1,0,0.2,0.1,0.4,0.1c-0.5,0.8-1.1,1-1.9,0.8c-1-0.2-1.6-0.8-1.6-1.9
	C90,67.9,89.7,66.9,91,66.7c-0.1,1,0.5,1.1,1.2,1c0.3,0,0.8-0.1,0.6-0.6c-0.3-0.8-0.9-0.8-1.5-0.5C91.2,66.7,91.1,66.7,91,66.7z"/>
<path class="st2" d="M107.5,66c-0.8,2.2-0.8,4.7-2.9,6.3c2.1-2.2-0.5-4.2-0.4-6.4c1.2,0.5,0.8,1.8,1.7,2.5
	C106.7,67.9,106.2,66.5,107.5,66z"/>
<path class="st2" d="M143.4,67.1c-0.6,0.1-0.8-0.2-1.1-0.4c-0.4-0.3-0.9-0.3-1.1,0.2c-0.3,0.6,0.2,0.8,0.6,0.9c0.1,0,0.1,0,0.2,0.1
	c0.8,0.3,1.7,0.5,1.6,1.6c-0.1,0.7-0.8,1-1.4,1.1c-1,0.2-1.7-0.2-2.1-1.3c0.8-0.2,1,0.6,1.5,0.7c0.4,0.1,0.8,0,1-0.4
	c0.2-0.5-0.1-0.7-0.5-0.9c-0.2-0.1-0.4-0.2-0.6-0.2c-0.7-0.2-1.5-0.5-1.3-1.5c0.1-0.7,0.7-1.1,1.3-1.1
	C142.3,65.8,143.1,66,143.4,67.1z"/>
<path class="st2" d="M82.9,68.3c0,1.3-0.6,2.2-1.9,2.3c-1.1,0.1-2.2-1-2.2-2.3c0-1.3,1-2.4,2.1-2.4C82.1,65.8,82.9,66.8,82.9,68.3z
	 M79.7,68.4c0,0.8,0.3,1.7,1.3,1.6c0.9-0.1,1.2-0.9,1.2-1.8c0-0.8-0.3-1.7-1.3-1.7C79.9,66.6,79.7,67.4,79.7,68.4z"/>
<path class="st2" d="M130.8,67.2c-0.4-0.1-0.6,0-0.7-0.1c-0.5-0.4-1.1-1.1-1.5-0.3c-0.5,0.9,0.5,0.9,1,1.1c0.7,0.3,1.5,0.6,1.4,1.5
	c-0.1,0.9-0.9,1.1-1.7,1.2c-0.9,0-1.6-0.3-1.8-1.4c1-0.1,1.8,1.6,2.4,0.4c0.6-1.2-1-1-1.5-1.4c-0.5-0.3-1-0.7-0.8-1.3
	c0.2-0.7,0.9-1.1,1.6-1.1C130,65.8,130.6,66.1,130.8,67.2z"/>
<path class="st2" d="M74.3,68.9c0.6,0.4,0.8,0.5,0.9,0.6c0.4,0.4,0.9,0.7,1.5,0.4c0.2-0.1,0.3-0.4,0.3-0.5c-0.1-0.6-0.6-0.7-1.1-0.8
	c-0.7-0.2-1.3-0.5-1.4-1.3c0-0.7,0.6-1.1,1.2-1.2c0.9-0.2,1.7,0,2,1c-0.3,0.4-0.5,0.2-0.7,0c-0.5-0.4-1-0.8-1.4-0.1
	c-0.4,0.8,0.4,0.9,0.9,1.1c0.7,0.3,1.6,0.5,1.5,1.6c-0.1,0.7-0.7,1-1.4,1.1C75.6,70.7,74.8,70.4,74.3,68.9z"/>
<path class="st2" d="M15.4,69c0.6,0.5,0.9,0.7,1.2,0.9c0.5,0.3,1.1,0.2,1.3-0.3c0.2-0.6-0.3-0.7-0.7-0.9c-0.1,0-0.2-0.1-0.3-0.1
	c-0.7-0.2-1.5-0.5-1.4-1.4c0-0.7,0.6-1.1,1.3-1.2c0.9-0.1,1.6,0.2,2,1.2c-0.3,0-0.4,0.1-0.6,0c-0.5-0.3-1.1-1.2-1.6-0.2
	c-0.5,0.9,0.6,0.8,1.1,1.1c0.6,0.3,1.2,0.7,1.2,1.5c-0.1,0.9-0.8,1-1.5,1.1C16.4,70.7,15.7,70.4,15.4,69z"/>
<path class="st2" d="M133.9,65.9c1.3,0.1,2,0.9,2,2.2c0,1.3-0.9,2.5-2.1,2.4c-1.1,0-2.1-1.2-2-2.5C131.9,66.8,132.6,66.1,133.9,65.9
	z M132.6,68.3c0.1,0.7,0.4,1.6,1.3,1.6c0.9,0,1.3-0.8,1.3-1.6c0-0.9-0.3-1.8-1.3-1.8C133,66.5,132.6,67.4,132.6,68.3z"/>
<path class="st2" d="M103.4,67.4c-1.2-0.3-2-1.7-2.8-0.4c-0.6,0.8-0.6,1.8,0.1,2.5c0.9,1.1,1.6-0.1,2.7-0.6
	c-0.5,1.3-1.3,1.7-2.2,1.6c-1.2-0.1-1.7-1-1.7-2.2c0-1.3,0.3-2.3,1.7-2.5C102.1,65.7,102.8,66.2,103.4,67.4z"/>
<path class="st2" d="M34.3,69.1c-0.7,1.4-1.5,1.8-2.5,1.4c-1.2-0.4-1.4-1.4-1.3-2.5c0-1.1,0.5-1.9,1.6-2.1c1-0.2,1.7,0.1,2.2,1.4
	c-1-0.2-2-1.6-2.8-0.1C31,68,31,68.9,31.6,69.6C32.5,70.6,33.1,69.4,34.3,69.1z"/>
<path class="st2" d="M36.8,70.4c-0.5,0.3-0.9,0.1-1.1-0.1c-0.9-1.4-0.2-3.1-0.7-4.6c0-0.1,0.2-1.3,0.8-0.8c0.3,0.2,1.1,0.7,0.7,1.6
	C35.8,67.8,35.9,69.2,36.8,70.4z"/>
<path class="st2" d="M98,70.2c-0.4-0.8-0.1-1.7-0.2-2.6c-0.1-0.6-0.3-1.2-1-1.2c-0.7,0-0.9,0.5-1,1.1c-0.1,0.9,0.2,1.8-0.4,2.9
	c-0.7-1.4-0.5-2.7-0.3-3.9c0.2-1,1.3-0.5,2-0.6c0.7-0.1,1.2,0.3,1.3,1.1c0.1,1.1,0,2.1,0,3.2C98.3,70.2,98.1,70.2,98,70.2z"/>
<path class="st2" d="M41.1,66.2c0.4,1.2,0.3,2.4,0.1,3.6c-0.1,1.1-1.2,0.6-1.8,0.7c-0.8,0.1-1.5-0.2-1.6-1.1c-0.1-1,0-2.1,0-3.6
	c1,1.2,0.6,2.1,0.7,2.9c0.1,0.6,0.1,1.3,0.9,1.3c0.8,0,1.1-0.5,1.1-1.3c0-0.8,0-1.7,0-2.5C40.8,66.2,41,66.2,41.1,66.2z"/>
<path class="st2" d="M87.5,68.7c0.9-0.7,0.5-1.9,1.8-2.9c-0.3,1.8-0.8,3.2-1.4,4.4c-0.2,0.4-0.7,0.3-0.8-0.1c-0.5-1.3-1-2.5-1.3-4.3
	C87,66.7,86.9,67.9,87.5,68.7z"/>
<path class="st2" d="M28.8,65.8c0.5,1.6,0.4,2.8,0.3,4c-0.1,0.9-0.9,0.6-1.5,0.7c-0.8,0.1-1.6-0.1-1.8-0.9c-0.3-1.1-0.2-2.3,0.2-3.4
	c0.6,0.8,0.3,1.7,0.4,2.5c0.1,0.6,0.2,1.2,0.9,1.2c0.8,0,1-0.5,1.1-1.2C28.4,67.9,28.2,67,28.8,65.8z"/>
<path class="st2" d="M121.1,65.9c1.1,0.8,0.7,2,1.6,2.8c0.4-0.9,0.7-1.7,1.1-2.6c0.3,0.8-0.4,3.9-0.9,4.2c-0.4,0.2-0.6,0.1-0.8-0.3
	C122,69.6,121.2,67,121.1,65.9z"/>
<path class="st2" d="M84.7,64.1c0,2,0,3.9,0,5.9c0,0.1-0.2,0.3-0.3,0.3c-0.3,0.1-0.4-0.1-0.4-0.4c-0.1-2-0.2-3.9,0.1-5.9
	C84.3,64.1,84.5,64.1,84.7,64.1z"/>
<path class="st2" d="M148.1,68.7c0.1-0.7,0.8-1,1.1-1.7c0.3-0.6,0.6-1.3-0.1-1.8c-0.7-0.5-1.3-0.2-1.7,0.5c-0.1,0.3-0.3,0.7-0.7,0.4
	c-0.3-0.3-0.1-0.6,0.1-0.9c0.7-0.9,1.6-1.2,2.6-0.7c1,0.5,1.3,1.4,0.8,2.4c-0.4,0.8-1,1.5-1.8,2C148.3,68.8,148.2,68.8,148.1,68.7z"
	/>
<path class="st2" d="M45,66.1c-1.9,0.8-1.3,2.1-1.5,3.3c0,0.4,0.1,1.1-0.5,1c-0.5,0-0.3-0.6-0.4-1c0-0.6,0.1-1.3,0-1.9
	C42.5,65.9,43.3,65.7,45,66.1z"/>
<path class="st2" d="M24.8,66.2c-1.6,0.7-1.1,2-1.2,3.2c0,0.4,0.1,0.9-0.4,0.9c-0.5,0-0.4-0.5-0.5-0.9c0-0.6,0-1.1,0-1.7
	C22.5,66.2,23.1,65.7,24.8,66.2z"/>
<path class="st2" d="M139,66.1c-1.9,1-0.6,2.9-1.5,4.2c-0.6-1.2-0.5-2.6-0.3-3.9C137.4,65.6,138.3,66.2,139,66.1z"/>
<path class="st2" d="M21.6,70.3c-1.5-0.3-2.1-3.6-1.1-5.6c0.4,0.8,1.2,1.1,0.6,2.3C20.6,67.9,20.5,69.4,21.6,70.3z"/>
<path class="st2" d="M68,70.2c-0.6-1.9-0.5-3.8-0.4-5.7c0.1,0,0.3,0,0.4,0C68,66.4,68,68.3,68,70.2z"/>
<path class="st2" d="M148.4,68.9c-0.3,0.8-0.4,1.3,0.7,1.2c0.4,0,0.9-0.1,1.4,0.3c-1,0.5-2,0.3-2.9,0.2c-1,0-1-0.6-0.4-1.2
	c0.3-0.3,0.6-0.5,0.9-0.8C148.2,68.8,148.3,68.8,148.4,68.9z"/>
<path class="st2" d="M125.7,66.2c0.5,1.3,0.5,2.7,0.1,4C125.2,68.9,125.4,67.6,125.7,66.2z"/>
<path class="st2" d="M46,66.2c0.6,1.3,0.5,2.7,0.1,4C45.5,68.9,45.7,67.6,46,66.2z"/>
<path class="st0" d="M134.4,52.4c0,0.2,0,0.3,0,0.5c0,1,0.3,2.3-1.4,2.3c-1.6,0-1.9-1.2-1.9-2.5c0-0.5,0-0.9,0-1.4
	c0.2-1.1,0.7-1.9,2-1.8c1.3,0.1,1.3,1,1.2,2C134.4,51.9,134.4,52.1,134.4,52.4z"/>
<path class="st0" d="M143.2,52.7c0.8-0.1,0.5,0.7,0.6,1.2c0,1.1-0.8,1.2-1.6,1.3c-0.7,0-1.2-0.3-1.1-1.1
	C141.2,52.9,142,52.8,143.2,52.7z"/>
<path class="st0" d="M123.3,51.6c-0.5-0.3-1.5,0.4-1.5-0.5c0-0.7,0.6-1.5,1.5-1.4c0.9,0,1.7,0.4,1.6,1.3
	C124.8,52,123.8,51.3,123.3,51.6z"/>
<path class="st0" d="M50.5,52.4c0,1.8-0.7,2.9-1.9,2.8c-1.2,0-2-1-1.9-2.7c0-1.3,0-2.7,1.8-2.9C49.8,49.5,50.5,50.6,50.5,52.4z"/>
<path class="st0" d="M101.6,52.6c-0.2,1.1-0.2,2.5-1.9,2.6c-1.2,0.1-2-1-2-2.8c0-1.8,0.7-2.8,1.9-2.8
	C100.9,49.6,101.6,50.7,101.6,52.6z"/>
<path class="st0" d="M62.3,69.4c0,0.5-0.4,0.6-0.8,0.7c-0.7,0-1.2-0.3-1.2-1.1c0-0.4,0.2-1,0.8-0.8C61.7,68.2,62.1,68.8,62.3,69.4z"
	/>
<path class="st0" d="M61.6,65c0.4,0.1,0.6,0.4,0.5,0.7c-0.1,0.4-0.3,0.8-0.7,0.8c-0.4,0-0.5-0.4-0.5-0.8
	C60.8,65.3,61.1,65.1,61.6,65z"/>
<path class="st0" d="M6.3,66.3c-0.1-0.8,0.1-1.3,1.1-1.3c0.9,0,1.5,0.3,1.5,1.3c0,0.8-0.5,1.2-1.3,1.2C6.7,67.5,6.2,67.2,6.3,66.3z"
	/>
<path class="st0" d="M55.6,68.3c0,0.9-0.2,1.7-1.2,1.7c-1,0-1.2-0.9-1.2-1.8c0-0.8,0.2-1.7,1.2-1.7C55.4,66.5,55.6,67.4,55.6,68.3z"
	/>
<path class="st0" d="M164.2,67.7c-0.1,0.7,0.4,2.2-1,2.2c-1.5,0-1.2-1.6-1.3-2.7c0-0.3,0.1-0.7,0.2-1c0.1-0.7,0.4-1.3,1.2-1.2
	c0.8,0.1,0.9,0.7,1,1.4C164.2,66.7,164.2,67.1,164.2,67.7z"/>
<path class="st0" d="M154.7,67.4c-0.1,1.1,0.2,2.5-1.2,2.5c-1.3,0-1.1-1.5-1.2-2.4c0-0.9-0.1-2.4,1.2-2.4
	C155.1,65,154.4,66.6,154.7,67.4z"/>
<path class="st0" d="M119.3,68.2c0,0.8-0.1,1.7-1.1,1.7c-1,0-1.2-0.9-1.2-1.7c0-0.8,0.3-1.7,1.2-1.7
	C119.2,66.5,119.3,67.4,119.3,68.2z"/>
<path class="st0" d="M112.9,65.8c0.2,0.8,1.3,1.5,0.5,2.4c-0.2,0.3-0.9,0.2-1.1-0.1C111.7,67.2,112.7,66.6,112.9,65.8z"/>
<path class="st0" d="M12.3,67.8c-0.3-0.1-0.9,0.1-0.8-0.6c0.1-0.5,0.5-0.7,1-0.7c0.4,0,0.8,0.2,0.8,0.7
	C13.3,67.9,12.7,67.7,12.3,67.8z"/>
<path class="st0" d="M91,66.7c0.1,0,0.2,0,0.3-0.1c0.7-0.3,1.3-0.3,1.5,0.5c0.2,0.5-0.2,0.5-0.6,0.6C91.5,67.8,90.9,67.7,91,66.7
	C91,66.7,91,66.7,91,66.7z"/>
<path class="st0" d="M79.7,68.4c0-0.9,0.2-1.8,1.2-1.8c1,0,1.3,0.8,1.3,1.7c0,0.8-0.2,1.7-1.2,1.8C80,70,79.7,69.1,79.7,68.4z"/>
<path class="st0" d="M132.6,68.3c0.1-0.9,0.4-1.8,1.3-1.8c1,0,1.4,0.9,1.3,1.8c0,0.8-0.4,1.6-1.3,1.6
	C133,69.9,132.7,69.1,132.6,68.3z"/>
<g>
	<path class="st1" d="M165.4,6.8c-26.4,0-52.7,0-79.1,0s-52.7,0-79.1,0C4.4,6.8,4.2,7,4.2,9.7c0,22.3,0,44.7,0,67c0,0.3,0,0.7,0,1
		c-0.1,1.2,0.6,1.8,1.7,1.9c0.6,0.1,1.1,0,1.7,0c52.5,0,105,0,157.6,0c2.9,0,3.1-0.2,3.1-3.1c0-22.3,0-44.6,0-66.9
		C168.3,7,168.1,6.8,165.4,6.8z M108.6,12.3c-0.6-0.1-1.3,0-1.2-0.8c0-0.9,0.8-0.6,1.3-0.6c4.5,0,9,0,13.4,0c0.5,0,1.1-0.2,1.2,0.5
		c0,0.7-0.6,0.7-1.1,0.8c-3.1,0.5-3.4,0.8-3.4,3.9c0,7.1,0,14.3,0,21.4c0,1.9,0.5,2.4,2.4,2.5c6.3,0.4,9.8-1.8,12.4-7.6
		c0.3-0.6,0.5-1.5,1.4-1.2c0.9,0.3,0.5,1.1,0.4,1.7c-0.4,2.4-0.9,4.9-1.3,7.3c-0.2,1-0.6,1.5-1.8,1.5c-3.9-0.1-7.8,0-11.7,0
		c-3.9,0-7.8,0-11.7,0c-0.6,0-1.4,0.2-1.5-0.6c-0.1-0.9,0.8-0.8,1.3-0.9c1.9-0.4,2.5-1.1,2.5-3c0-7.3,0-14.6,0-21.9
		C111.2,13.3,110.6,12.6,108.6,12.3z M65.7,11.3c0.2-0.6,0.8-0.7,1.4-0.7c2,0,4.1,0,6.1,0c1.4,0,2.8,0,4.3,0c0.5,0,1.1,0.1,1.2,0.7
		c0.1,0.7-0.6,0.8-1,0.9c-1.6,0.3-1.9,1.4-1.4,2.7c1.7,5,3.5,10.1,5.3,15.1c0.1,0,0.3,0,0.4,0c1.1-3,2.3-6,3.4-9
		c0.2-0.5,0-0.9-0.1-1.3c-0.5-1.6-1.1-3.2-1.7-4.8c-0.5-1.3-1.2-2.4-2.8-2.7c-0.4-0.1-1-0.1-0.9-0.8c0.1-0.5,0.6-0.7,1.1-0.7
		c3.9,0,7.8,0,11.7,0c0.5,0,0.9,0.2,0.9,0.8c0,0.5-0.5,0.6-0.8,0.7c-2.5,0.9-2.5,0.9-1.6,3.5c1.4,3.9,2.7,7.8,4.1,11.7
		c0.2,0.5,0.2,1.1,0.8,1.2c0.7,0.1,0.7-0.7,0.8-1.1c1.3-3.9,2.7-7.8,3.9-11.8c0.7-2.2,0.4-2.7-1.8-3.5c-0.4-0.1-0.9-0.2-0.9-0.7
		c0-0.6,0.5-0.7,1-0.7c2,0,4.1,0,6.1,0c0.4,0,0.8,0.2,0.9,0.6c0.2,0.6-0.2,0.8-0.7,1c-1.5,0.5-2,1.8-2.4,3.1
		c-2.6,8-5.2,15.9-7.9,23.9c-0.3,0.9-0.2,2.4-1.5,2.4c-1.4,0.1-1.2-1.4-1.5-2.3c-1.6-4.4-3.2-8.9-4.7-13.3c-0.2-0.7-0.4-1.4-1.1-2.1
		c-1.3,3.4-2.6,6.6-3.9,9.8c-0.9,2.2-1.7,4.4-2.6,6.7c-0.2,0.6-0.3,1.3-1.1,1.3c-0.8,0-1.1-0.7-1.3-1.3c-1.8-5.1-3.6-10.2-5.3-15.2
		c-1.2-3.5-2.4-7-3.6-10.4c-0.4-1.1-0.8-2-2-2.4C66.1,12.1,65.5,12,65.7,11.3z M34.9,11.3c0.1-0.6,0.5-0.7,1-0.7c3.7,0,7.4,0,11.1,0
		c0.5,0,0.9,0.2,1,0.7c0.1,0.6-0.4,0.8-0.8,0.8c-1.8,0.2-2.1,1.3-1.6,2.8c1.7,5,3.5,9.9,5.2,14.9c0,0.1,0.2,0.1,0.4,0.3
		c1.2-3,2.3-5.9,3.4-8.8c0.2-0.5,0-1-0.2-1.5c-0.6-1.7-1.2-3.3-1.7-5c-0.4-1.2-0.9-2.3-2.4-2.6c-0.4-0.1-0.7-0.4-0.7-0.8
		c0.1-0.6,0.6-0.7,1-0.7c3.7,0,7.4,0,11.1,0c0.5,0,0.9,0.2,1,0.7c0.1,0.6-0.5,0.8-0.9,0.8c-1.3,0.2-2.2,0.8-1.7,2.1
		c1.7,5.3,3.6,10.6,5.5,16.3c1.2-3.1,2.3-5.9,3.5-8.8c0.8,1.4,1.2,2.4,0.6,3.9c-2,4.9-3.9,9.8-5.8,14.7c-0.2,0.6-0.3,1.4-1.2,1.4
		c-1,0-1-0.9-1.3-1.6c-1.9-5.3-3.7-10.7-5.7-16.4c-1.3,3.4-2.6,6.4-3.8,9.4c-1,2.4-1.9,4.8-2.8,7.3c-0.2,0.6-0.4,1.2-1.2,1.2
		c-0.8,0-1-0.7-1.2-1.2c-2.4-6.9-4.8-13.8-7.2-20.7c-0.6-1.7-1.2-3.3-1.7-5c-0.4-1.2-0.9-2.3-2.3-2.7C35.2,12.1,34.8,11.8,34.9,11.3
		z M9.5,70.4c-0.8-0.2-0.9-0.9-1.2-1.4C8,68.5,7.8,68,7.1,68.1c-0.7,0.1-0.6,0.7-0.7,1.2c-0.1,0.4,0.1,1.1-0.5,1
		c-0.6-0.1-0.3-0.7-0.4-1.2c0-1-0.1-1.9,0-2.9c0-0.7-0.4-1.7,0.6-1.9c1.1-0.2,2.3-0.4,3.1,0.7c0.6,0.7,0.6,1.7-0.1,2.3
		C8,68.5,10,69.2,9.5,70.4z M13,68.4c-0.5,0.1-1.2-0.3-1.5,0.4c-0.1,0.2,0.1,0.5,0.3,0.7c0.5,0.6,1.1,0.5,1.7,0.2
		c0.1-0.1,0.3-0.1,0.5-0.1c-0.6,1.1-1.4,1.2-2.4,0.6c-1-0.6-1.2-1.6-0.9-2.7c0.2-1,0.9-1.7,1.9-1.7c1.1-0.1,1.8,0.6,1.9,1.8
		C14.4,68.7,13.5,68.3,13,68.4z M18.8,69.5c-0.1,0.9-0.8,1-1.5,1.1c-0.9,0.1-1.6-0.1-1.9-1.6c0.6,0.5,0.9,0.7,1.2,0.9
		c0.5,0.3,1.1,0.2,1.3-0.3c0.2-0.6-0.3-0.7-0.7-0.9c-0.1,0-0.2-0.1-0.3-0.1c-0.7-0.2-1.5-0.5-1.4-1.4c0-0.7,0.6-1.1,1.3-1.2
		c0.9-0.1,1.6,0.2,2,1.2c-0.3,0-0.4,0.1-0.6,0c-0.5-0.3-1.1-1.2-1.6-0.2c-0.5,0.9,0.6,0.8,1.1,1.1C18.3,68.3,18.9,68.7,18.8,69.5z
		 M20.5,64.7c0.4,0.8,1.2,1.1,0.6,2.3c-0.4,0.9-0.6,2.3,0.5,3.3C20.1,70.1,19.5,66.7,20.5,64.7z M23.5,69.4c0,0.4,0.1,0.9-0.4,0.9
		c-0.5,0-0.4-0.5-0.5-0.9c0-0.6,0-1.1,0-1.7c-0.2-1.5,0.5-2,2.1-1.6C23.2,66.9,23.6,68.2,23.5,69.4z M29.1,69.8
		c-0.1,0.9-0.9,0.6-1.5,0.7c-0.8,0.1-1.6-0.1-1.8-0.9c-0.3-1.1-0.2-2.3,0.2-3.4c0.6,0.8,0.3,1.7,0.4,2.5c0.1,0.6,0.2,1.2,0.9,1.2
		c0.8,0,1-0.5,1.1-1.2c0-0.8-0.2-1.7,0.4-2.9C29.3,67.4,29.1,68.6,29.1,69.8z M31.7,70.5c-1.2-0.4-1.4-1.4-1.3-2.5
		c0-1.1,0.5-1.9,1.6-2.1c1-0.2,1.7,0.1,2.2,1.4c-1-0.2-2-1.6-2.8-0.1C31,68,31,68.9,31.6,69.6c0.9,1,1.6-0.2,2.7-0.5
		C33.6,70.4,32.8,70.8,31.7,70.5z M35.7,70.3c-0.9-1.4-0.2-3.1-0.7-4.6c0-0.1,0.2-1.3,0.8-0.8c0.3,0.2,1.1,0.7,0.7,1.6
		c-0.7,1.3-0.5,2.7,0.3,3.9C36.2,70.7,35.9,70.6,35.7,70.3z M41.3,69.8c-0.1,1.1-1.2,0.6-1.8,0.7c-0.8,0.1-1.5-0.2-1.6-1.1
		c-0.1-1,0-2.1,0-3.6c1,1.2,0.6,2.1,0.7,2.9c0.1,0.6,0.1,1.3,0.9,1.3c0.8,0,1.1-0.5,1.1-1.3c0-0.8,0-1.7,0-2.5c0.2,0,0.4,0,0.6,0
		C41.5,67.4,41.4,68.6,41.3,69.8z M43.6,69.4c0,0.4,0.1,1.1-0.5,1c-0.5,0-0.3-0.6-0.4-1c0-0.6,0.1-1.3,0-1.9
		c-0.2-1.7,0.6-1.9,2.3-1.5C43.1,67,43.7,68.3,43.6,69.4z M46.1,70.2c-0.6-1.3-0.4-2.7-0.1-4C46.6,67.6,46.5,68.9,46.1,70.2z
		 M51.4,70c-0.1,0.2-0.2,0.4-0.5,0.4c-0.3-0.1-0.3-0.3-0.3-0.5c0-0.6,0-1.2,0-1.9c0-0.6,0-1.2-0.8-1.3c-0.8,0-1,0.6-1,1.3
		c0,0.6,0,1.1,0,1.7c0,0.3,0,0.8-0.4,0.8c-0.6,0-0.4-0.5-0.5-0.9c0-0.5,0-0.9,0-1.5c0.5-0.5-0.9-1.9,0.8-2.1
		C51.1,65.8,52.4,67.7,51.4,70z M56,71.4c-0.7,1.2-1.6,1.3-2.7,0.7c-0.1,0-0.1-0.2-0.3-0.5c0.6,0.1,1,0.2,1.3,0.2
		c0.5,0,1-0.2,0.9-0.8c0-0.7-0.6-0.3-0.9-0.3c-1.1,0-1.5-0.8-1.8-1.7c-0.3-1-0.1-2,0.7-2.6c0.8-0.7,1.9-0.3,2.8-0.1
		C56.4,66.3,56.5,70.5,56,71.4z M61.8,70.6c-0.8,0.2-1.6-0.1-2.1-0.9c-0.4-0.7-0.3-1.3,0.2-1.9c0.4-0.5,0.4-0.9,0.2-1.5
		c-0.2-0.7-0.2-1.5,0.7-1.9c0.7-0.3,1.4-0.2,1.9,0.4c0.6,0.7,0.3,1.3-0.2,1.8c-0.4,0.5-0.5,0.9-0.1,1.5c0.7,0.8,0.9-0.3,1.5-0.4
		c0.1,1-0.4,1.8,0.2,2.8C63.2,70.4,62.5,70.4,61.8,70.6z M68,70.2c-0.6-1.9-0.5-3.8-0.4-5.7c0.1,0,0.3,0,0.4,0
		C68,66.4,68,68.3,68,70.2z M73.2,69.9c-0.1,0.2-0.2,0.4-0.4,0.4c-0.3,0-0.4-0.3-0.4-0.5c0-0.7,0-1.5-0.1-2.2c0-0.5-0.1-0.9-0.7-1
		c-0.6,0-1,0.3-1,0.9c-0.1,0.7,0,1.4-0.1,2c0,0.4,0.1,0.9-0.5,0.9c-0.4,0-0.3-0.5-0.3-0.8c0-0.5,0-0.9,0-1.5
		c0.5-0.5-0.8-1.9,0.8-2.1C72.9,65.7,74.1,67.5,73.2,69.9z M77.9,69.5c-0.1,0.7-0.7,1-1.4,1.1c-1,0.1-1.8-0.2-2.2-1.7
		c0.6,0.4,0.8,0.5,0.9,0.6c0.4,0.4,0.9,0.7,1.5,0.4c0.2-0.1,0.3-0.4,0.3-0.5c-0.1-0.6-0.6-0.7-1.1-0.8c-0.7-0.2-1.3-0.5-1.4-1.3
		c0-0.7,0.6-1.1,1.2-1.2c0.9-0.2,1.7,0,2,1c-0.3,0.4-0.5,0.2-0.7,0c-0.5-0.4-1-0.8-1.4-0.1c-0.4,0.8,0.4,0.9,0.9,1.1
		C77.2,68.2,78.1,68.5,77.9,69.5z M81,70.6c-1.1,0.1-2.2-1-2.2-2.3c0-1.3,1-2.4,2.1-2.4c1.2,0,2,1,2,2.4
		C82.9,69.6,82.3,70.5,81,70.6z M84.7,70c0,0.1-0.2,0.3-0.3,0.3c-0.3,0.1-0.4-0.1-0.4-0.4c-0.1-2-0.2-3.9,0.1-5.9c0.2,0,0.5,0,0.7,0
		C84.7,66,84.7,68,84.7,70z M87.9,70.2c-0.2,0.4-0.7,0.3-0.8-0.1c-0.5-1.3-1-2.5-1.3-4.3c1.1,1,1,2.1,1.7,2.9
		c0.9-0.7,0.5-1.9,1.8-2.9C89,67.6,88.6,68.9,87.9,70.2z M92.7,68.4c-0.6,0.1-1.3-0.3-1.7,0.4c-0.1,0.2,0.1,0.5,0.3,0.7
		c0.6,0.7,1.2,0.3,1.8,0c0.1,0,0.2,0.1,0.4,0.1c-0.5,0.8-1.1,1-1.9,0.8c-1-0.2-1.6-0.8-1.6-1.9c0-0.8-0.3-1.8,1-2
		c0.2-1.1,1-0.9,1.7-0.6c0.9,0.3,1.2,1.1,1.1,1.9C93.8,68.6,93.1,68.3,92.7,68.4z M98.5,70.2c-0.2,0-0.3,0-0.5,0
		c-0.4-0.8-0.1-1.7-0.2-2.6c-0.1-0.6-0.3-1.2-1-1.2c-0.7,0-0.9,0.5-1,1.1c-0.1,0.9,0.2,1.8-0.4,2.9c-0.7-1.4-0.5-2.7-0.3-3.9
		c0.2-1,1.3-0.5,2-0.6c0.7-0.1,1.2,0.3,1.3,1.1C98.5,68.1,98.5,69.2,98.5,70.2z M100.6,69.5c0.9,1.1,1.6-0.1,2.7-0.6
		c-0.5,1.3-1.3,1.7-2.2,1.6c-1.2-0.1-1.7-1-1.7-2.2c0-1.3,0.3-2.3,1.7-2.5c1-0.2,1.6,0.3,2.2,1.5c-1.2-0.3-2-1.7-2.8-0.4
		C100,67.8,100,68.8,100.6,69.5z M104.6,72.4c2.1-2.2-0.5-4.2-0.4-6.4c1.2,0.5,0.8,1.8,1.7,2.5c0.9-0.6,0.4-2.1,1.7-2.5
		C106.7,68.2,106.7,70.8,104.6,72.4z M110.8,70.3c-0.2-0.9-0.2-0.9,0.8-3.3c0.4-0.9,0.3-2.4,1.4-2.4c0.9,0,0.9,1.5,1.3,2.4
		c0.5,1.1,0.8,2.3,1.2,3.4C113,68.2,112.4,68.1,110.8,70.3z M119.9,69.9c-0.1,0.9-1.2,0.5-1.9,0.6c-0.9,0.2-1.5-0.5-1.7-1.3
		c-0.6-1.8,0.2-3.1,2.3-3.2c1.3-0.1,0.3-1.5,1.4-1.8C119.9,66.2,120.1,68,119.9,69.9z M123,70.3c-0.4,0.2-0.6,0.1-0.8-0.3
		c-0.3-0.4-1-3.1-1.1-4.1c1.1,0.8,0.7,2,1.6,2.8c0.4-0.9,0.7-1.7,1.1-2.6C124.2,66.9,123.5,70,123,70.3z M125.8,70.2
		c-0.6-1.3-0.4-2.7-0.1-4C126.2,67.6,126.2,68.9,125.8,70.2z M131,69.4c-0.1,0.9-0.9,1.1-1.7,1.2c-0.9,0-1.6-0.3-1.8-1.4
		c1-0.1,1.8,1.6,2.4,0.4c0.6-1.2-1-1-1.5-1.4c-0.5-0.3-1-0.7-0.8-1.3c0.2-0.7,0.9-1.1,1.6-1.1c0.8,0,1.5,0.3,1.7,1.3
		c-0.4-0.1-0.6,0-0.7-0.1c-0.5-0.4-1.1-1.1-1.5-0.3c-0.5,0.9,0.5,0.9,1,1.1C130.3,68.2,131.1,68.6,131,69.4z M133.9,70.6
		c-1.1,0-2.1-1.2-2-2.5c0.1-1.3,0.7-2.1,2.1-2.2c1.3,0.1,2,0.9,2,2.2C136,69.5,135,70.7,133.9,70.6z M137.5,70.3
		c-0.6-1.2-0.5-2.6-0.3-3.9c0.2-0.9,1.1-0.3,1.8-0.4C137.1,67.1,138.4,69,137.5,70.3z M143.5,69.5c-0.1,0.7-0.8,1-1.4,1.1
		c-1,0.2-1.7-0.2-2.1-1.3c0.8-0.2,1,0.6,1.5,0.7c0.4,0.1,0.8,0,1-0.4c0.2-0.5-0.1-0.7-0.5-0.9c-0.2-0.1-0.4-0.2-0.6-0.2
		c-0.7-0.2-1.5-0.5-1.3-1.5c0.1-0.7,0.7-1.1,1.3-1.1c0.9-0.1,1.7,0.1,1.9,1.2c-0.6,0.1-0.8-0.2-1.1-0.4c-0.4-0.3-0.9-0.3-1.1,0.2
		c-0.3,0.6,0.2,0.8,0.6,0.9c0.1,0,0.1,0,0.2,0.1C142.8,68.2,143.7,68.4,143.5,69.5z M147.6,70.6c-1,0-1-0.6-0.4-1.2
		c0.3-0.3,0.6-0.5,0.9-0.8c0.1-0.7,0.8-1,1.1-1.7c0.3-0.6,0.6-1.3-0.1-1.8c-0.7-0.5-1.3-0.2-1.7,0.5c-0.1,0.3-0.3,0.7-0.7,0.4
		c-0.3-0.3-0.1-0.6,0.1-0.9c0.7-0.9,1.6-1.2,2.6-0.7c1,0.5,1.3,1.4,0.8,2.4c-0.4,0.8-1,1.5-1.8,2c-0.3,0.8-0.4,1.3,0.7,1.2
		c0.4,0,0.9-0.1,1.4,0.3C149.5,70.9,148.5,70.7,147.6,70.6z M155.4,67.5C155.4,67.5,155.4,67.5,155.4,67.5c0,0.4,0,0.8,0,1.2
		c0,1.1-0.6,1.9-1.8,1.9c-1.1,0.1-1.8-0.6-1.9-1.7c-0.1-0.8-0.1-1.7,0-2.5c0.1-1.3,0.7-2.1,2.1-2c1.3,0.1,1.7,0.9,1.7,2.1
		C155.4,66.8,155.4,67.2,155.4,67.5z M159.9,70.5c-1.2,0.2-2.7,0.7-3.3-0.3c-0.5-0.7,1.1-1.5,1.6-2.4c0.1-0.2,0.4-0.4,0.6-0.6
		c0.4-0.7,0.8-1.5-0.1-2.1c-0.8-0.5-1.4,0-1.7,0.8c-0.1,0.1-0.2,0.2-0.5,0.4c-0.5-0.8,0-1.3,0.5-1.7c0.7-0.5,1.5-0.5,2.2,0
		c0.6,0.4,1,1.1,0.7,1.9c-0.2,0.7-0.7,1.3-1.2,1.8c-0.4,0.4-1,0.8-0.8,1.4c0.2,0.6,1,0.2,1.5,0.4c0.2,0,0.4,0.1,0.8,0.1
		C160,70.4,160,70.5,159.9,70.5z M165.1,68.5c-0.1,1.2-0.6,2.2-1.9,2.1c-1.3,0-1.9-0.9-1.9-2.2c0-0.7,0-1.5,0-2.2
		c0.1-1.1,0.5-2,1.9-1.9c1.3,0.1,1.9,0.8,2,2.1c0,0.3,0,0.7,0,1c0,0,0,0,0,0C165.1,67.8,165.1,68.1,165.1,68.5z"/>
	<path class="st1" d="M91,66.7C91,66.7,91,66.7,91,66.7C91,66.7,91,66.7,91,66.7L91,66.7z"/>
</g>
<g>
	<path class="st3" d="M59.4,47.3c-0.1,0.5-0.2,1.5-0.2,2.5c0,0.7-0.5,0.7-1,0.8c-0.6,0-0.7-0.4-0.7-0.9c0-1,0-2,0-3
		c0-0.8,0.5-0.8,1.1-0.9C59.3,45.8,59.6,46.1,59.4,47.3z"/>
	<g>
		<path class="st4" d="M31.8,57.1L30,50.4l-1.8,6.7c-0.1,0.5-0.3,0.9-0.3,1.1c-0.1,0.2-0.2,0.4-0.4,0.6c-0.2,0.2-0.5,0.3-0.8,0.3
			c-0.3,0-0.5-0.1-0.7-0.2c-0.2-0.1-0.3-0.3-0.4-0.4c-0.1-0.2-0.2-0.4-0.3-0.7C25.1,57.5,25,57.2,25,57l-1.9-7.5
			c-0.1-0.4-0.2-0.8-0.2-1c0-0.3,0.1-0.5,0.3-0.7c0.2-0.2,0.5-0.3,0.8-0.3c0.4,0,0.7,0.1,0.8,0.4c0.1,0.3,0.3,0.6,0.4,1.2l1.5,6.5
			l1.6-6.1c0.1-0.5,0.2-0.8,0.3-1.1c0.1-0.2,0.3-0.5,0.5-0.6c0.2-0.2,0.5-0.3,0.9-0.3c0.4,0,0.7,0.1,0.9,0.3
			c0.2,0.2,0.4,0.4,0.4,0.6c0.1,0.2,0.2,0.6,0.3,1.1l1.7,6.1l1.5-6.5c0.1-0.3,0.1-0.6,0.2-0.8c0.1-0.2,0.2-0.4,0.3-0.5
			c0.2-0.2,0.4-0.2,0.7-0.2c0.3,0,0.5,0.1,0.8,0.3c0.2,0.2,0.3,0.4,0.3,0.7c0,0.2-0.1,0.5-0.2,1L35,57c-0.1,0.5-0.2,0.9-0.3,1.1
			c-0.1,0.2-0.2,0.4-0.4,0.6c-0.2,0.2-0.5,0.3-0.9,0.3c-0.3,0-0.6-0.1-0.8-0.3c-0.2-0.2-0.4-0.4-0.4-0.6C32.1,58,32,57.6,31.8,57.1z
			"/>
		<path class="st4" d="M40.5,48.7v3.1c0.3-0.3,0.5-0.5,0.8-0.7c0.3-0.2,0.5-0.3,0.8-0.4c0.3-0.1,0.6-0.1,1-0.1c0.5,0,1,0.1,1.4,0.3
			c0.4,0.2,0.7,0.6,1,1c0.1,0.2,0.2,0.5,0.3,0.8c0.1,0.3,0.1,0.7,0.1,1.1v4c0,0.4-0.1,0.7-0.3,0.9c-0.2,0.2-0.4,0.3-0.8,0.3
			c-0.7,0-1-0.4-1-1.3v-3.5c0-0.7-0.1-1.2-0.3-1.5c-0.2-0.4-0.6-0.5-1.1-0.5c-0.4,0-0.7,0.1-1,0.3c-0.3,0.2-0.5,0.5-0.7,0.9
			c-0.1,0.3-0.2,0.9-0.2,1.7v2.8c0,0.4-0.1,0.7-0.3,0.9C40,58.9,39.8,59,39.4,59c-0.7,0-1-0.4-1-1.3v-9.1c0-0.4,0.1-0.7,0.3-1
			c0.2-0.2,0.4-0.3,0.8-0.3c0.3,0,0.6,0.1,0.8,0.3C40.4,48,40.5,48.3,40.5,48.7z"/>
		<path class="st4" d="M55.7,54.8c0,0.6-0.1,1.2-0.3,1.7c-0.2,0.5-0.5,1-0.8,1.4c-0.4,0.4-0.8,0.7-1.3,0.9c-0.5,0.2-1.1,0.3-1.7,0.3
			c-0.6,0-1.2-0.1-1.7-0.3c-0.5-0.2-0.9-0.5-1.3-0.9c-0.4-0.4-0.6-0.8-0.8-1.3c-0.2-0.5-0.3-1.1-0.3-1.7c0-0.6,0.1-1.2,0.3-1.7
			c0.2-0.5,0.5-1,0.8-1.3c0.4-0.4,0.8-0.7,1.3-0.9c0.5-0.2,1.1-0.3,1.7-0.3c0.6,0,1.2,0.1,1.7,0.3c0.5,0.2,1,0.5,1.3,0.9
			c0.4,0.4,0.6,0.8,0.8,1.3C55.6,53.6,55.7,54.2,55.7,54.8z M53.6,54.8c0-0.9-0.2-1.5-0.6-2s-0.9-0.7-1.5-0.7
			c-0.4,0-0.8,0.1-1.1,0.3c-0.3,0.2-0.6,0.5-0.7,0.9s-0.3,0.9-0.3,1.4c0,0.5,0.1,1,0.2,1.4c0.2,0.4,0.4,0.7,0.7,0.9
			c0.3,0.2,0.7,0.3,1.1,0.3c0.6,0,1.1-0.2,1.5-0.7C53.4,56.3,53.6,55.6,53.6,54.8z"/>
		<path class="st4" d="M68.4,56.3c0,0.6-0.1,1.1-0.4,1.5c-0.3,0.4-0.7,0.7-1.2,0.9c-0.5,0.2-1.2,0.3-2,0.3c-0.7,0-1.4-0.1-1.9-0.3
			c-0.5-0.2-0.9-0.5-1.2-0.9c-0.3-0.3-0.4-0.7-0.4-1c0-0.2,0.1-0.4,0.2-0.6c0.2-0.2,0.4-0.2,0.6-0.2c0.2,0,0.4,0.1,0.5,0.2
			c0.1,0.1,0.2,0.3,0.3,0.5c0.2,0.4,0.5,0.6,0.8,0.8c0.3,0.2,0.7,0.3,1.2,0.3c0.4,0,0.8-0.1,1-0.3c0.3-0.2,0.4-0.4,0.4-0.6
			c0-0.4-0.1-0.6-0.4-0.8c-0.3-0.2-0.7-0.3-1.4-0.5c-0.7-0.2-1.3-0.4-1.8-0.6c-0.5-0.2-0.8-0.5-1.1-0.8c-0.3-0.3-0.4-0.7-0.4-1.2
			c0-0.4,0.1-0.8,0.4-1.2c0.2-0.4,0.6-0.7,1.1-0.9c0.5-0.2,1.1-0.3,1.8-0.3c0.5,0,1,0.1,1.5,0.2c0.4,0.1,0.8,0.3,1.1,0.5
			c0.3,0.2,0.5,0.4,0.7,0.6c0.2,0.2,0.2,0.5,0.2,0.7c0,0.2-0.1,0.4-0.2,0.6c-0.2,0.2-0.4,0.2-0.7,0.2c-0.2,0-0.4-0.1-0.5-0.2
			c-0.2-0.1-0.3-0.3-0.5-0.6c-0.2-0.2-0.3-0.4-0.6-0.5s-0.5-0.2-0.9-0.2c-0.4,0-0.7,0.1-0.9,0.2c-0.2,0.2-0.4,0.4-0.4,0.6
			c0,0.2,0.1,0.4,0.3,0.5c0.2,0.1,0.4,0.3,0.7,0.3c0.3,0.1,0.7,0.2,1.3,0.3c0.6,0.2,1.2,0.3,1.6,0.6c0.4,0.2,0.7,0.5,0.9,0.8
			C68.3,55.6,68.4,55.9,68.4,56.3z"/>
		<path class="st4" d="M82.1,57.1l-1.8-6.7l-1.8,6.7c-0.1,0.5-0.3,0.9-0.3,1.1c-0.1,0.2-0.2,0.4-0.4,0.6c-0.2,0.2-0.5,0.3-0.8,0.3
			c-0.3,0-0.5-0.1-0.7-0.2c-0.2-0.1-0.3-0.3-0.4-0.4c-0.1-0.2-0.2-0.4-0.3-0.7c-0.1-0.3-0.1-0.5-0.2-0.7l-1.9-7.5
			c-0.1-0.4-0.2-0.8-0.2-1c0-0.3,0.1-0.5,0.3-0.7c0.2-0.2,0.5-0.3,0.8-0.3c0.4,0,0.7,0.1,0.8,0.4c0.1,0.3,0.3,0.6,0.4,1.2l1.5,6.5
			l1.6-6.1c0.1-0.5,0.2-0.8,0.3-1.1c0.1-0.2,0.3-0.5,0.5-0.6c0.2-0.2,0.5-0.3,0.9-0.3c0.4,0,0.7,0.1,0.9,0.3
			c0.2,0.2,0.4,0.4,0.4,0.6c0.1,0.2,0.2,0.6,0.3,1.1l1.7,6.1l1.5-6.5c0.1-0.3,0.1-0.6,0.2-0.8c0.1-0.2,0.2-0.4,0.3-0.5
			c0.2-0.2,0.4-0.2,0.7-0.2c0.3,0,0.5,0.1,0.8,0.3c0.2,0.2,0.3,0.4,0.3,0.7c0,0.2-0.1,0.5-0.2,1L85.4,57c-0.1,0.5-0.2,0.9-0.3,1.1
			c-0.1,0.2-0.2,0.4-0.4,0.6c-0.2,0.2-0.5,0.3-0.9,0.3c-0.3,0-0.6-0.1-0.8-0.3c-0.2-0.2-0.4-0.4-0.4-0.6
			C82.4,58,82.3,57.6,82.1,57.1z"/>
		<path class="st4" d="M90.8,48.7v3.1c0.3-0.3,0.5-0.5,0.8-0.7c0.3-0.2,0.5-0.3,0.8-0.4c0.3-0.1,0.6-0.1,1-0.1c0.5,0,1,0.1,1.4,0.3
			c0.4,0.2,0.7,0.6,1,1c0.1,0.2,0.2,0.5,0.3,0.8c0.1,0.3,0.1,0.7,0.1,1.1v4c0,0.4-0.1,0.7-0.3,0.9S95.4,59,95.1,59
			c-0.7,0-1-0.4-1-1.3v-3.5c0-0.7-0.1-1.2-0.3-1.5c-0.2-0.4-0.6-0.5-1.1-0.5c-0.4,0-0.7,0.1-1,0.3c-0.3,0.2-0.5,0.5-0.7,0.9
			c-0.1,0.3-0.2,0.9-0.2,1.7v2.8c0,0.4-0.1,0.7-0.3,0.9c-0.2,0.2-0.4,0.3-0.8,0.3c-0.7,0-1-0.4-1-1.3v-9.1c0-0.4,0.1-0.7,0.3-1
			c0.2-0.2,0.4-0.3,0.8-0.3c0.3,0,0.6,0.1,0.8,0.3C90.7,48,90.8,48.3,90.8,48.7z"/>
		<path class="st4" d="M106,54.8c0,0.6-0.1,1.2-0.3,1.7c-0.2,0.5-0.5,1-0.8,1.4c-0.4,0.4-0.8,0.7-1.3,0.9c-0.5,0.2-1.1,0.3-1.7,0.3
			c-0.6,0-1.2-0.1-1.7-0.3c-0.5-0.2-0.9-0.5-1.3-0.9c-0.4-0.4-0.6-0.8-0.8-1.3c-0.2-0.5-0.3-1.1-0.3-1.7c0-0.6,0.1-1.2,0.3-1.7
			c0.2-0.5,0.5-1,0.8-1.3s0.8-0.7,1.3-0.9c0.5-0.2,1.1-0.3,1.7-0.3c0.6,0,1.2,0.1,1.7,0.3c0.5,0.2,1,0.5,1.3,0.9
			c0.4,0.4,0.6,0.8,0.8,1.3C105.9,53.6,106,54.2,106,54.8z M103.9,54.8c0-0.9-0.2-1.5-0.6-2c-0.4-0.5-0.9-0.7-1.5-0.7
			c-0.4,0-0.8,0.1-1.1,0.3c-0.3,0.2-0.6,0.5-0.7,0.9c-0.2,0.4-0.3,0.9-0.3,1.4c0,0.5,0.1,1,0.2,1.4c0.2,0.4,0.4,0.7,0.7,0.9
			c0.3,0.2,0.7,0.3,1.1,0.3c0.6,0,1.1-0.2,1.5-0.7C103.7,56.3,103.9,55.6,103.9,54.8z"/>
		<path class="st4" d="M113.9,48.8V57h4.6c0.4,0,0.6,0.1,0.8,0.3c0.2,0.2,0.3,0.4,0.3,0.7c0,0.3-0.1,0.5-0.3,0.7
			c-0.2,0.2-0.5,0.3-0.8,0.3h-5.5c-0.5,0-0.8-0.1-1.1-0.3c-0.2-0.2-0.3-0.6-0.3-1.1v-8.6c0-0.5,0.1-0.8,0.3-1
			c0.2-0.2,0.5-0.3,0.8-0.3c0.3,0,0.6,0.1,0.8,0.3C113.8,48,113.9,48.4,113.9,48.8z"/>
		<path class="st4" d="M126.9,55.3h-4.1c0,0.5,0.1,0.9,0.3,1.3c0.2,0.4,0.4,0.6,0.7,0.8c0.3,0.2,0.6,0.3,1,0.3c0.2,0,0.5,0,0.7-0.1
			c0.2-0.1,0.4-0.2,0.6-0.3c0.2-0.1,0.4-0.3,0.5-0.4c0.2-0.1,0.4-0.3,0.6-0.6c0.1-0.1,0.3-0.1,0.5-0.1c0.2,0,0.4,0.1,0.5,0.2
			s0.2,0.3,0.2,0.5c0,0.2-0.1,0.4-0.2,0.7c-0.1,0.3-0.4,0.5-0.7,0.7c-0.3,0.2-0.7,0.4-1.1,0.6c-0.5,0.2-1,0.2-1.6,0.2
			c-1.3,0-2.4-0.4-3.1-1.1c-0.7-0.8-1.1-1.8-1.1-3.1c0-0.6,0.1-1.2,0.3-1.7c0.2-0.5,0.5-1,0.8-1.4c0.4-0.4,0.8-0.7,1.3-0.9
			c0.5-0.2,1.1-0.3,1.7-0.3c0.8,0,1.5,0.2,2.1,0.5c0.6,0.3,1,0.8,1.3,1.3c0.3,0.5,0.4,1.1,0.4,1.7c0,0.5-0.2,0.9-0.5,1
			C127.8,55.2,127.4,55.3,126.9,55.3z M122.8,54.1h3.8c-0.1-0.7-0.2-1.2-0.6-1.6c-0.3-0.4-0.8-0.5-1.3-0.5c-0.5,0-0.9,0.2-1.3,0.5
			C123.1,52.9,122.8,53.4,122.8,54.1z"/>
		<path class="st4" d="M137.8,52.1v6.1c0,0.7-0.1,1.3-0.2,1.8c-0.1,0.5-0.4,0.9-0.7,1.2c-0.3,0.3-0.8,0.6-1.3,0.7
			c-0.5,0.2-1.2,0.2-2,0.2c-0.7,0-1.4-0.1-1.9-0.3c-0.6-0.2-1-0.5-1.3-0.8c-0.3-0.3-0.5-0.6-0.5-1c0-0.3,0.1-0.5,0.3-0.6
			c0.2-0.2,0.4-0.2,0.6-0.2c0.3,0,0.6,0.1,0.8,0.4c0.1,0.1,0.2,0.3,0.3,0.4c0.1,0.1,0.3,0.3,0.4,0.4c0.1,0.1,0.3,0.2,0.5,0.2
			c0.2,0,0.4,0.1,0.7,0.1c0.5,0,1-0.1,1.3-0.2c0.3-0.2,0.5-0.4,0.6-0.6c0.1-0.3,0.2-0.6,0.2-0.9c0-0.3,0-0.8,0-1.5
			c-0.3,0.4-0.7,0.8-1.1,1c-0.4,0.2-0.9,0.4-1.5,0.4c-0.7,0-1.3-0.2-1.8-0.5c-0.5-0.4-0.9-0.9-1.2-1.5s-0.4-1.4-0.4-2.2
			c0-0.6,0.1-1.2,0.3-1.7c0.2-0.5,0.4-0.9,0.7-1.3c0.3-0.3,0.7-0.6,1.1-0.8c0.4-0.2,0.9-0.3,1.4-0.3c0.6,0,1.1,0.1,1.5,0.3
			c0.4,0.2,0.8,0.6,1.2,1.1v-0.3c0-0.4,0.1-0.6,0.3-0.8s0.4-0.3,0.7-0.3c0.4,0,0.7,0.1,0.8,0.4C137.7,51.2,137.8,51.6,137.8,52.1z
			 M131.8,54.7c0,0.8,0.2,1.5,0.6,1.9c0.4,0.4,0.8,0.6,1.4,0.6c0.3,0,0.7-0.1,1-0.3c0.3-0.2,0.6-0.5,0.8-0.8
			c0.2-0.4,0.3-0.8,0.3-1.4c0-0.9-0.2-1.5-0.6-2c-0.4-0.5-0.9-0.7-1.5-0.7c-0.6,0-1.1,0.2-1.4,0.7C131.9,53.2,131.8,53.9,131.8,54.7
			z"/>
		<path class="st4" d="M144.8,57.9c-0.5,0.4-1,0.7-1.5,0.9c-0.5,0.2-1,0.3-1.6,0.3c-0.5,0-1-0.1-1.4-0.3c-0.4-0.2-0.7-0.5-0.9-0.9
			c-0.2-0.4-0.3-0.8-0.3-1.2c0-0.6,0.2-1.1,0.5-1.5c0.4-0.4,0.9-0.7,1.5-0.8c0.1,0,0.5-0.1,1-0.2s1-0.2,1.3-0.3
			c0.4-0.1,0.8-0.2,1.2-0.3c0-0.6-0.1-1-0.3-1.2c-0.2-0.3-0.6-0.4-1.2-0.4c-0.5,0-0.9,0.1-1.2,0.2c-0.3,0.1-0.5,0.4-0.7,0.7
			c-0.2,0.3-0.3,0.5-0.4,0.6c-0.1,0.1-0.2,0.1-0.5,0.1c-0.2,0-0.4-0.1-0.6-0.2c-0.2-0.2-0.3-0.3-0.3-0.6c0-0.4,0.1-0.7,0.4-1.1
			c0.3-0.3,0.7-0.6,1.2-0.9c0.6-0.2,1.2-0.3,2.1-0.3c0.9,0,1.6,0.1,2.2,0.3c0.5,0.2,0.9,0.6,1.1,1c0.2,0.5,0.3,1.1,0.3,1.9
			c0,0.5,0,0.9,0,1.2c0,0.3,0,0.7,0,1.1c0,0.4,0.1,0.8,0.2,1.2c0.1,0.4,0.2,0.7,0.2,0.8c0,0.2-0.1,0.4-0.3,0.6
			c-0.2,0.2-0.4,0.3-0.7,0.3c-0.2,0-0.4-0.1-0.6-0.3C145.3,58.5,145,58.2,144.8,57.9z M144.7,54.8c-0.3,0.1-0.8,0.2-1.3,0.4
			c-0.6,0.1-1,0.2-1.2,0.3c-0.2,0.1-0.4,0.2-0.6,0.3c-0.2,0.2-0.3,0.4-0.3,0.7c0,0.3,0.1,0.6,0.4,0.8c0.2,0.2,0.6,0.3,0.9,0.3
			c0.4,0,0.8-0.1,1.1-0.3c0.3-0.2,0.6-0.4,0.8-0.7c0.2-0.3,0.3-0.8,0.3-1.6V54.8z"/>
		<path class="st4" d="M148.8,57.8v-9.1c0-0.4,0.1-0.7,0.3-0.9c0.2-0.2,0.4-0.3,0.8-0.3s0.6,0.1,0.8,0.3c0.2,0.2,0.3,0.5,0.3,1v9.1
			c0,0.4-0.1,0.7-0.3,1c-0.2,0.2-0.4,0.3-0.8,0.3c-0.3,0-0.6-0.1-0.7-0.3C148.9,58.5,148.8,58.2,148.8,57.8z"/>
	</g>
</g>
<path class="st1" d="M166.6,60.8l-33.8,3.3L4.2,62.4v8.4L20,74.2c0,0,82.2,2,84.3,2s64,0.3,64,0.3l-1.7-14.4"/>
<g>
	<path class="st5" d="M46.8,72.5c0,0.4-0.1,0.7-0.2,1s-0.3,0.6-0.6,0.8c-0.3,0.2-0.5,0.4-0.9,0.5s-0.7,0.2-1.1,0.2
		c-0.3,0-0.5,0-0.8-0.1c-0.2,0-0.4-0.1-0.6-0.2s-0.3-0.1-0.5-0.2c-0.1-0.1-0.2-0.1-0.3-0.2s-0.1-0.1-0.1-0.2c0-0.1,0-0.2,0-0.3
		c0-0.1,0-0.2,0-0.2c0-0.1,0-0.1,0-0.1c0,0,0-0.1,0.1-0.1s0.1,0,0.1,0c0.1,0,0.1,0,0.2,0.1c0.1,0.1,0.2,0.1,0.4,0.2
		c0.2,0.1,0.4,0.2,0.6,0.2c0.2,0.1,0.5,0.1,0.8,0.1c0.2,0,0.5,0,0.6-0.1c0.2-0.1,0.4-0.2,0.5-0.3c0.1-0.1,0.2-0.3,0.3-0.4
		c0.1-0.2,0.1-0.4,0.1-0.6c0-0.2-0.1-0.4-0.2-0.6c-0.1-0.2-0.2-0.3-0.4-0.4c-0.2-0.1-0.4-0.2-0.6-0.3c-0.2-0.1-0.4-0.2-0.7-0.3
		s-0.5-0.2-0.7-0.4c-0.2-0.1-0.4-0.3-0.6-0.5c-0.2-0.2-0.3-0.4-0.4-0.6C42,69.3,42,69,42,68.7c0-0.3,0.1-0.6,0.2-0.9
		c0.1-0.3,0.3-0.5,0.5-0.7c0.2-0.2,0.5-0.3,0.8-0.4s0.6-0.1,1-0.1c0.2,0,0.4,0,0.5,0s0.4,0.1,0.5,0.1c0.2,0.1,0.3,0.1,0.4,0.2
		c0.1,0.1,0.2,0.1,0.2,0.2s0.1,0.1,0.1,0.1c0,0,0,0.1,0,0.1c0,0,0,0.1,0,0.1c0,0.1,0,0.1,0,0.2c0,0.1,0,0.1,0,0.2c0,0.1,0,0.1,0,0.1
		s0,0.1-0.1,0.1c0,0,0,0-0.1,0c0,0-0.1,0-0.2-0.1c-0.1-0.1-0.2-0.1-0.4-0.2c-0.1-0.1-0.3-0.1-0.5-0.2c-0.2-0.1-0.4-0.1-0.7-0.1
		c-0.2,0-0.4,0-0.6,0.1c-0.2,0.1-0.3,0.1-0.4,0.2c-0.1,0.1-0.2,0.2-0.2,0.4s-0.1,0.3-0.1,0.4c0,0.2,0.1,0.4,0.2,0.6s0.2,0.3,0.4,0.4
		c0.2,0.1,0.4,0.2,0.6,0.3c0.2,0.1,0.5,0.2,0.7,0.3c0.2,0.1,0.5,0.2,0.7,0.4c0.2,0.1,0.4,0.3,0.6,0.5c0.2,0.2,0.3,0.4,0.4,0.6
		C46.7,71.9,46.8,72.2,46.8,72.5z"/>
	<path class="st5" d="M56.1,69c0,0,0,0.1,0,0.1c0,0,0,0.1,0,0.2l-1.7,5.4c0,0,0,0.1-0.1,0.1c0,0-0.1,0.1-0.1,0.1c0,0-0.1,0-0.2,0
		c-0.1,0-0.2,0-0.3,0c-0.1,0-0.2,0-0.3,0c-0.1,0-0.2,0-0.2,0c-0.1,0-0.1,0-0.1-0.1c0,0,0-0.1-0.1-0.1l-1.2-4.1l0-0.1l0,0.1l-1.1,4.1
		c0,0,0,0.1-0.1,0.1c0,0-0.1,0.1-0.1,0.1c-0.1,0-0.1,0-0.2,0c-0.1,0-0.2,0-0.3,0c-0.1,0-0.2,0-0.3,0c-0.1,0-0.1,0-0.2,0
		s-0.1,0-0.1-0.1s0-0.1-0.1-0.1l-1.7-5.4c0-0.1,0-0.1,0-0.2c0,0,0-0.1,0-0.1c0,0,0-0.1,0-0.1c0,0,0,0,0.1-0.1s0.1,0,0.2,0
		s0.1,0,0.2,0c0.1,0,0.2,0,0.3,0c0.1,0,0.1,0,0.2,0c0,0,0.1,0,0.1,0.1c0,0,0,0.1,0,0.1l1.4,4.7l0,0.1l0-0.1l1.3-4.7c0,0,0-0.1,0-0.1
		c0,0,0,0,0.1-0.1c0,0,0.1,0,0.2,0c0.1,0,0.2,0,0.3,0c0.1,0,0.2,0,0.2,0c0.1,0,0.1,0,0.2,0c0,0,0.1,0,0.1,0.1c0,0,0,0.1,0,0.1
		l1.4,4.7l0,0.1l0-0.1L55,69c0,0,0-0.1,0-0.1s0,0,0.1-0.1c0,0,0.1,0,0.2,0c0.1,0,0.2,0,0.3,0c0.1,0,0.2,0,0.2,0s0.1,0,0.1,0
		C56,68.8,56,68.8,56.1,69C56.1,68.9,56.1,68.9,56.1,69z"/>
	<path class="st5" d="M58.5,67.1c0,0.2,0,0.4-0.1,0.5c-0.1,0.1-0.3,0.1-0.5,0.1c-0.2,0-0.4,0-0.5-0.1c-0.1-0.1-0.1-0.2-0.1-0.5
		c0-0.2,0-0.4,0.1-0.5c0.1-0.1,0.3-0.1,0.5-0.1c0.2,0,0.4,0,0.5,0.1C58.5,66.6,58.5,66.8,58.5,67.1z M58.4,74.7
		C58.4,74.7,58.4,74.7,58.4,74.7c0,0.1-0.1,0.1-0.1,0.1c0,0-0.1,0-0.2,0c-0.1,0-0.2,0-0.3,0c-0.1,0-0.2,0-0.3,0c-0.1,0-0.1,0-0.2,0
		s-0.1,0-0.1-0.1c0,0,0-0.1,0-0.1V69c0,0,0-0.1,0-0.1s0,0,0.1-0.1s0.1,0,0.2,0c0.1,0,0.2,0,0.3,0c0.1,0,0.2,0,0.3,0
		c0.1,0,0.1,0,0.2,0c0,0,0.1,0,0.1,0.1c0,0,0,0.1,0,0.1V74.7z"/>
	<path class="st5" d="M63.3,74.2c0,0.1,0,0.2,0,0.3c0,0.1,0,0.1-0.1,0.2c0,0-0.1,0.1-0.2,0.1s-0.1,0.1-0.2,0.1c-0.1,0-0.2,0-0.3,0
		c-0.1,0-0.2,0-0.3,0c-0.3,0-0.5,0-0.8-0.1c-0.2-0.1-0.4-0.2-0.5-0.4s-0.2-0.4-0.3-0.6s-0.1-0.5-0.1-0.9v-3.3h-0.8
		c-0.1,0-0.1,0-0.2-0.1c0-0.1-0.1-0.2-0.1-0.3c0-0.1,0-0.1,0-0.2c0-0.1,0-0.1,0-0.1c0,0,0-0.1,0.1-0.1c0,0,0.1,0,0.1,0h0.8v-1.4
		c0,0,0-0.1,0-0.1c0,0,0,0,0.1-0.1c0,0,0.1,0,0.2,0c0.1,0,0.2,0,0.3,0c0.1,0,0.2,0,0.3,0c0.1,0,0.1,0,0.2,0c0,0,0.1,0,0.1,0.1
		c0,0,0,0.1,0,0.1v1.4h1.5c0,0,0.1,0,0.1,0c0,0,0,0,0.1,0.1s0,0.1,0,0.1c0,0.1,0,0.1,0,0.2c0,0.2,0,0.3-0.1,0.3
		c0,0.1-0.1,0.1-0.2,0.1h-1.5v3.2c0,0.4,0.1,0.7,0.2,0.9s0.3,0.3,0.6,0.3c0.1,0,0.2,0,0.3,0c0.1,0,0.1,0,0.2-0.1
		c0.1,0,0.1,0,0.2-0.1s0.1,0,0.1,0c0,0,0,0,0.1,0c0,0,0,0,0,0.1c0,0,0,0.1,0,0.1C63.3,74.1,63.3,74.2,63.3,74.2z"/>
	<path class="st5" d="M68.3,74.4c0,0.1,0,0.1,0,0.2c0,0.1,0,0.1,0,0.1c0,0,0,0.1-0.1,0.1c0,0-0.1,0-0.1,0h-3.5c-0.1,0-0.2,0-0.2-0.1
		c-0.1-0.1-0.1-0.2-0.1-0.3v-0.2c0-0.1,0-0.1,0-0.2s0-0.1,0-0.1c0,0,0-0.1,0.1-0.1c0-0.1,0.1-0.1,0.1-0.2l2.5-3.9h-2.4
		c-0.1,0-0.1,0-0.2-0.1s-0.1-0.2-0.1-0.3c0-0.1,0-0.1,0-0.2s0-0.1,0-0.1s0-0.1,0.1-0.1c0,0,0.1,0,0.1,0h3.3c0,0,0.1,0,0.1,0
		c0,0,0.1,0,0.1,0.1s0,0.1,0.1,0.1c0,0,0,0.1,0,0.2v0.2c0,0.1,0,0.1,0,0.2c0,0.1,0,0.1,0,0.1c0,0,0,0.1-0.1,0.2
		c0,0.1-0.1,0.1-0.1,0.2l-2.5,3.9h2.7c0,0,0.1,0,0.1,0s0.1,0,0.1,0.1c0,0,0,0.1,0,0.1C68.3,74.2,68.3,74.3,68.3,74.4z"/>
	<path class="st5" d="M74.3,71.6c0,0.2,0,0.3-0.1,0.4S74,72,73.9,72h-3.7c0,0.3,0,0.6,0.1,0.9c0.1,0.3,0.2,0.5,0.3,0.7
		c0.1,0.2,0.3,0.3,0.6,0.4c0.2,0.1,0.5,0.1,0.9,0.1c0.3,0,0.5,0,0.7-0.1c0.2,0,0.4-0.1,0.5-0.1c0.2-0.1,0.3-0.1,0.4-0.1
		c0.1,0,0.2-0.1,0.2-0.1c0,0,0.1,0,0.1,0c0,0,0,0,0.1,0.1s0,0.1,0,0.1s0,0.1,0,0.2c0,0.1,0,0.1,0,0.1s0,0.1,0,0.1s0,0.1,0,0.1
		s0,0-0.1,0.1c0,0-0.1,0.1-0.2,0.1s-0.3,0.1-0.4,0.2c-0.2,0.1-0.4,0.1-0.6,0.1s-0.5,0.1-0.8,0.1c-0.5,0-0.9-0.1-1.2-0.2
		c-0.4-0.1-0.6-0.3-0.9-0.6c-0.2-0.3-0.4-0.6-0.5-1s-0.2-0.8-0.2-1.4c0-0.5,0.1-0.9,0.2-1.3c0.1-0.4,0.3-0.7,0.5-1
		c0.2-0.3,0.5-0.5,0.9-0.6s0.7-0.2,1.1-0.2c0.4,0,0.8,0.1,1.1,0.2c0.3,0.1,0.6,0.3,0.8,0.6c0.2,0.2,0.4,0.5,0.4,0.9
		c0.1,0.3,0.1,0.7,0.1,1V71.6z M73.3,71.3c0-0.5-0.1-1-0.4-1.3s-0.6-0.5-1.1-0.5c-0.3,0-0.5,0-0.7,0.1s-0.4,0.2-0.5,0.4
		c-0.1,0.2-0.2,0.3-0.3,0.6c-0.1,0.2-0.1,0.4-0.1,0.7H73.3z"/>
	<path class="st5" d="M79.2,69.3c0,0.1,0,0.2,0,0.2c0,0.1,0,0.1,0,0.1c0,0,0,0.1,0,0.1c0,0,0,0-0.1,0s-0.1,0-0.1,0
		c0,0-0.1,0-0.2-0.1c-0.1,0-0.1,0-0.2-0.1c-0.1,0-0.2,0-0.2,0c-0.1,0-0.2,0-0.3,0.1c-0.1,0-0.2,0.1-0.3,0.2
		c-0.1,0.1-0.2,0.2-0.4,0.4c-0.1,0.2-0.3,0.4-0.4,0.6v3.7c0,0,0,0.1,0,0.1c0,0,0,0-0.1,0.1c0,0-0.1,0-0.2,0c-0.1,0-0.2,0-0.3,0
		c-0.1,0-0.2,0-0.3,0c-0.1,0-0.1,0-0.2,0s-0.1,0-0.1-0.1c0,0,0-0.1,0-0.1V69c0,0,0-0.1,0-0.1c0,0,0,0,0.1-0.1c0,0,0.1,0,0.1,0
		c0.1,0,0.1,0,0.2,0c0.1,0,0.2,0,0.2,0c0.1,0,0.1,0,0.1,0c0,0,0.1,0,0.1,0.1c0,0,0,0.1,0,0.1v0.8c0.2-0.2,0.3-0.4,0.4-0.6
		s0.3-0.3,0.4-0.3c0.1-0.1,0.2-0.1,0.4-0.2c0.1,0,0.2,0,0.4,0c0.1,0,0.1,0,0.2,0c0.1,0,0.1,0,0.2,0s0.1,0,0.2,0.1
		c0.1,0,0.1,0,0.1,0.1c0,0,0,0,0.1,0.1c0,0,0,0,0,0.1s0,0.1,0,0.1C79.2,69.2,79.2,69.2,79.2,69.3z"/>
	<path class="st5" d="M81.5,74.7C81.5,74.7,81.5,74.7,81.5,74.7c0,0.1-0.1,0.1-0.1,0.1c0,0-0.1,0-0.2,0c-0.1,0-0.2,0-0.3,0
		c-0.1,0-0.2,0-0.3,0c-0.1,0-0.1,0-0.2,0s-0.1,0-0.1-0.1c0,0,0-0.1,0-0.1v-8.4c0,0,0-0.1,0-0.1s0,0,0.1-0.1s0.1,0,0.2,0
		c0.1,0,0.2,0,0.3,0c0.1,0,0.2,0,0.3,0c0.1,0,0.1,0,0.2,0c0,0,0.1,0,0.1,0.1c0,0,0,0.1,0,0.1V74.7z"/>
	<path class="st5" d="M87.7,74.7c0,0.1,0,0.1-0.1,0.1c0,0-0.1,0-0.1,0.1c-0.1,0-0.1,0-0.3,0c-0.1,0-0.2,0-0.3,0
		c-0.1,0-0.1,0-0.1-0.1s0-0.1,0-0.1v-0.6c-0.2,0.3-0.5,0.5-0.8,0.6c-0.3,0.1-0.6,0.2-1,0.2c-0.3,0-0.6,0-0.8-0.1
		c-0.2-0.1-0.4-0.2-0.6-0.3c-0.2-0.1-0.3-0.3-0.4-0.5S83,73.5,83,73.2c0-0.3,0.1-0.6,0.2-0.8c0.1-0.2,0.3-0.4,0.6-0.6
		c0.2-0.2,0.5-0.3,0.9-0.4s0.8-0.1,1.2-0.1h0.8v-0.4c0-0.2,0-0.4-0.1-0.6c0-0.2-0.1-0.3-0.2-0.4c-0.1-0.1-0.2-0.2-0.4-0.3
		s-0.4-0.1-0.6-0.1c-0.3,0-0.5,0-0.7,0.1c-0.2,0.1-0.4,0.1-0.5,0.2c-0.2,0.1-0.3,0.1-0.4,0.2c-0.1,0.1-0.2,0.1-0.2,0.1
		c0,0-0.1,0-0.1,0c0,0,0,0-0.1-0.1c0,0,0-0.1,0-0.1s0-0.1,0-0.2c0-0.1,0-0.2,0-0.2c0-0.1,0.1-0.1,0.1-0.2s0.2-0.1,0.3-0.2
		c0.1-0.1,0.3-0.1,0.5-0.2c0.2-0.1,0.4-0.1,0.6-0.2s0.4-0.1,0.7-0.1c0.4,0,0.8,0,1,0.1s0.5,0.2,0.7,0.4c0.2,0.2,0.3,0.4,0.4,0.7
		c0.1,0.3,0.1,0.6,0.1,0.9V74.7z M86.6,72.1h-0.9c-0.3,0-0.5,0-0.7,0.1c-0.2,0-0.4,0.1-0.5,0.2s-0.2,0.2-0.3,0.3
		c-0.1,0.1-0.1,0.3-0.1,0.5c0,0.3,0.1,0.5,0.3,0.7s0.4,0.3,0.8,0.3c0.3,0,0.5-0.1,0.8-0.2c0.2-0.1,0.5-0.4,0.7-0.6V72.1z"/>
	<path class="st5" d="M94.5,74.7C94.5,74.7,94.5,74.7,94.5,74.7c0,0.1-0.1,0.1-0.1,0.1c0,0-0.1,0-0.2,0c-0.1,0-0.2,0-0.3,0
		c-0.1,0-0.2,0-0.3,0c-0.1,0-0.1,0-0.2,0c0,0-0.1,0-0.1-0.1c0,0,0-0.1,0-0.1v-3.3c0-0.3,0-0.6-0.1-0.8c-0.1-0.2-0.1-0.4-0.2-0.5
		c-0.1-0.1-0.2-0.3-0.4-0.3c-0.2-0.1-0.3-0.1-0.5-0.1c-0.3,0-0.5,0.1-0.8,0.3c-0.3,0.2-0.5,0.5-0.8,0.8v4c0,0,0,0.1,0,0.1
		c0,0,0,0-0.1,0.1c0,0-0.1,0-0.2,0c-0.1,0-0.2,0-0.3,0c-0.1,0-0.2,0-0.3,0c-0.1,0-0.1,0-0.2,0s-0.1,0-0.1-0.1c0,0,0-0.1,0-0.1V69
		c0,0,0-0.1,0-0.1c0,0,0,0,0.1-0.1c0,0,0.1,0,0.1,0c0.1,0,0.1,0,0.2,0c0.1,0,0.2,0,0.2,0c0.1,0,0.1,0,0.1,0c0,0,0.1,0,0.1,0.1
		c0,0,0,0.1,0,0.1v0.8c0.3-0.4,0.6-0.6,1-0.8c0.3-0.2,0.6-0.2,1-0.2c0.4,0,0.7,0.1,1,0.2c0.3,0.1,0.5,0.3,0.6,0.5s0.3,0.5,0.3,0.8
		s0.1,0.6,0.1,1V74.7z"/>
	<path class="st5" d="M101.2,74.7C101.2,74.7,101.2,74.7,101.2,74.7c0,0.1-0.1,0.1-0.1,0.1c0,0-0.1,0-0.1,0c-0.1,0-0.1,0-0.2,0
		c-0.1,0-0.2,0-0.2,0c-0.1,0-0.1,0-0.1,0s-0.1,0-0.1-0.1s0-0.1,0-0.1v-0.8c-0.3,0.3-0.6,0.6-0.9,0.8c-0.3,0.2-0.7,0.3-1.1,0.3
		c-0.4,0-0.8-0.1-1.1-0.2s-0.5-0.4-0.7-0.7c-0.2-0.3-0.3-0.6-0.4-1c-0.1-0.4-0.1-0.8-0.1-1.2c0-0.5,0.1-0.9,0.2-1.3
		c0.1-0.4,0.3-0.7,0.5-1c0.2-0.3,0.5-0.5,0.8-0.6c0.3-0.1,0.7-0.2,1.1-0.2c0.3,0,0.6,0.1,0.9,0.2c0.3,0.1,0.5,0.4,0.8,0.6v-3.3
		c0,0,0-0.1,0-0.1s0,0,0.1-0.1s0.1,0,0.2,0c0.1,0,0.1,0,0.2,0c0.1,0,0.2,0,0.3,0c0.1,0,0.1,0,0.2,0s0.1,0,0.1,0.1c0,0,0,0.1,0,0.1
		V74.7z M100.2,70.7c-0.3-0.3-0.6-0.6-0.8-0.8c-0.3-0.2-0.5-0.3-0.8-0.3c-0.3,0-0.5,0.1-0.7,0.2c-0.2,0.1-0.3,0.3-0.5,0.5
		c-0.1,0.2-0.2,0.4-0.3,0.7c-0.1,0.3-0.1,0.5-0.1,0.8c0,0.3,0,0.6,0.1,0.8c0,0.3,0.1,0.5,0.2,0.7s0.3,0.4,0.4,0.5
		C98,74,98.2,74,98.5,74c0.1,0,0.3,0,0.4-0.1s0.3-0.1,0.4-0.2c0.1-0.1,0.3-0.2,0.4-0.3c0.1-0.1,0.3-0.3,0.5-0.5V70.7z"/>
	<path class="st5" d="M111,74.3c0,0.1,0,0.1,0,0.2c0,0.1,0,0.1,0,0.1c0,0,0,0.1-0.1,0.1c0,0-0.1,0-0.1,0h-4.5c-0.1,0-0.1,0-0.2,0
		c0,0-0.1,0-0.1-0.1c0,0-0.1-0.1-0.1-0.1c0-0.1,0-0.1,0-0.2c0-0.1,0-0.2,0-0.2c0-0.1,0-0.1,0-0.2c0,0,0-0.1,0.1-0.1
		c0,0,0.1-0.1,0.1-0.2l1.6-1.7c0.4-0.4,0.7-0.7,0.9-1c0.2-0.3,0.4-0.6,0.5-0.8c0.1-0.3,0.2-0.5,0.2-0.7c0-0.2,0.1-0.4,0.1-0.6
		c0-0.2,0-0.4-0.1-0.5c-0.1-0.2-0.1-0.3-0.3-0.4s-0.3-0.2-0.4-0.3c-0.2-0.1-0.4-0.1-0.6-0.1c-0.3,0-0.5,0-0.7,0.1
		c-0.2,0.1-0.4,0.1-0.6,0.2c-0.2,0.1-0.3,0.2-0.4,0.2c-0.1,0.1-0.2,0.1-0.2,0.1c0,0-0.1,0-0.1,0c0,0,0,0-0.1-0.1c0,0,0-0.1,0-0.2
		s0-0.1,0-0.2c0-0.1,0-0.1,0-0.2s0-0.1,0-0.1c0,0,0-0.1,0-0.1c0,0,0-0.1,0.1-0.1s0.1-0.1,0.3-0.2c0.1-0.1,0.3-0.2,0.5-0.2
		s0.4-0.1,0.6-0.2c0.2-0.1,0.5-0.1,0.7-0.1c0.4,0,0.7,0.1,1,0.2s0.5,0.3,0.7,0.5c0.2,0.2,0.3,0.4,0.4,0.7s0.1,0.5,0.1,0.8
		c0,0.3,0,0.5-0.1,0.8c0,0.3-0.1,0.5-0.3,0.8c-0.1,0.3-0.4,0.6-0.6,1c-0.3,0.4-0.7,0.8-1.1,1.3l-1.3,1.4h3.6c0,0,0.1,0,0.1,0
		c0,0,0.1,0,0.1,0.1c0,0,0,0.1,0,0.1C111,74.2,111,74.3,111,74.3z"/>
	<path class="st5" d="M117.8,70.7c0,0.6,0,1.2-0.1,1.7c-0.1,0.5-0.3,1-0.5,1.3c-0.2,0.4-0.5,0.7-0.9,0.9c-0.4,0.2-0.8,0.3-1.4,0.3
		c-0.5,0-0.9-0.1-1.3-0.3c-0.4-0.2-0.6-0.5-0.8-0.8c-0.2-0.4-0.4-0.8-0.5-1.3c-0.1-0.5-0.1-1.1-0.1-1.8c0-0.6,0-1.2,0.2-1.7
		c0.1-0.5,0.3-1,0.5-1.3c0.2-0.4,0.5-0.7,0.9-0.9c0.4-0.2,0.8-0.3,1.4-0.3c0.5,0,1,0.1,1.3,0.3c0.4,0.2,0.6,0.5,0.8,0.8
		c0.2,0.4,0.4,0.8,0.5,1.3C117.7,69.4,117.8,70,117.8,70.7z M116.7,70.8c0-0.4,0-0.8,0-1.1s-0.1-0.6-0.1-0.9
		c-0.1-0.2-0.1-0.5-0.2-0.6c-0.1-0.2-0.2-0.3-0.3-0.4c-0.1-0.1-0.3-0.2-0.4-0.3s-0.3-0.1-0.5-0.1c-0.4,0-0.6,0.1-0.9,0.3
		c-0.2,0.2-0.4,0.4-0.5,0.7c-0.1,0.3-0.2,0.6-0.3,1s-0.1,0.8-0.1,1.3c0,0.6,0,1.1,0.1,1.6c0.1,0.4,0.2,0.8,0.3,1s0.3,0.5,0.5,0.6
		c0.2,0.1,0.5,0.2,0.8,0.2c0.2,0,0.4,0,0.6-0.1c0.2-0.1,0.3-0.2,0.5-0.3c0.1-0.1,0.2-0.3,0.3-0.5c0.1-0.2,0.2-0.4,0.2-0.7
		c0-0.2,0.1-0.5,0.1-0.8C116.7,71.4,116.7,71.1,116.7,70.8z"/>
	<path class="st5" d="M124.1,74.3c0,0.1,0,0.1,0,0.2c0,0.1,0,0.1,0,0.1c0,0,0,0.1-0.1,0.1c0,0-0.1,0-0.1,0h-4.5c-0.1,0-0.1,0-0.2,0
		c0,0-0.1,0-0.1-0.1c0,0-0.1-0.1-0.1-0.1c0-0.1,0-0.1,0-0.2c0-0.1,0-0.2,0-0.2c0-0.1,0-0.1,0-0.2c0,0,0-0.1,0.1-0.1
		c0,0,0.1-0.1,0.1-0.2l1.6-1.7c0.4-0.4,0.7-0.7,0.9-1c0.2-0.3,0.4-0.6,0.5-0.8c0.1-0.3,0.2-0.5,0.2-0.7c0-0.2,0.1-0.4,0.1-0.6
		c0-0.2,0-0.4-0.1-0.5c-0.1-0.2-0.1-0.3-0.3-0.4s-0.3-0.2-0.4-0.3c-0.2-0.1-0.4-0.1-0.6-0.1c-0.3,0-0.5,0-0.7,0.1
		c-0.2,0.1-0.4,0.1-0.6,0.2c-0.2,0.1-0.3,0.2-0.4,0.2c-0.1,0.1-0.2,0.1-0.2,0.1c0,0-0.1,0-0.1,0c0,0,0,0-0.1-0.1c0,0,0-0.1,0-0.2
		s0-0.1,0-0.2c0-0.1,0-0.1,0-0.2s0-0.1,0-0.1c0,0,0-0.1,0-0.1c0,0,0-0.1,0.1-0.1s0.1-0.1,0.3-0.2c0.1-0.1,0.3-0.2,0.5-0.2
		s0.4-0.1,0.6-0.2c0.2-0.1,0.5-0.1,0.7-0.1c0.4,0,0.7,0.1,1,0.2s0.5,0.3,0.7,0.5c0.2,0.2,0.3,0.4,0.4,0.7s0.1,0.5,0.1,0.8
		c0,0.3,0,0.5-0.1,0.8c0,0.3-0.1,0.5-0.3,0.8c-0.1,0.3-0.4,0.6-0.6,1c-0.3,0.4-0.7,0.8-1.1,1.3l-1.3,1.4h3.6c0,0,0.1,0,0.1,0
		c0,0,0.1,0,0.1,0.1c0,0,0,0.1,0,0.1C124.1,74.2,124.1,74.3,124.1,74.3z"/>
	<path class="st5" d="M130.9,70.7c0,0.6,0,1.2-0.1,1.7c-0.1,0.5-0.3,1-0.5,1.3c-0.2,0.4-0.5,0.7-0.9,0.9c-0.4,0.2-0.8,0.3-1.4,0.3
		c-0.5,0-0.9-0.1-1.3-0.3c-0.4-0.2-0.6-0.5-0.8-0.8c-0.2-0.4-0.4-0.8-0.5-1.3c-0.1-0.5-0.1-1.1-0.1-1.8c0-0.6,0-1.2,0.2-1.7
		c0.1-0.5,0.3-1,0.5-1.3c0.2-0.4,0.5-0.7,0.9-0.9c0.4-0.2,0.8-0.3,1.4-0.3c0.5,0,1,0.1,1.3,0.3c0.4,0.2,0.6,0.5,0.8,0.8
		c0.2,0.4,0.4,0.8,0.5,1.3C130.9,69.4,130.9,70,130.9,70.7z M129.8,70.8c0-0.4,0-0.8,0-1.1s-0.1-0.6-0.1-0.9
		c-0.1-0.2-0.1-0.5-0.2-0.6c-0.1-0.2-0.2-0.3-0.3-0.4c-0.1-0.1-0.3-0.2-0.4-0.3s-0.3-0.1-0.5-0.1c-0.4,0-0.6,0.1-0.9,0.3
		c-0.2,0.2-0.4,0.4-0.5,0.7c-0.1,0.3-0.2,0.6-0.3,1s-0.1,0.8-0.1,1.3c0,0.6,0,1.1,0.1,1.6c0.1,0.4,0.2,0.8,0.3,1s0.3,0.5,0.5,0.6
		c0.2,0.1,0.5,0.2,0.8,0.2c0.2,0,0.4,0,0.6-0.1c0.2-0.1,0.3-0.2,0.5-0.3c0.1-0.1,0.2-0.3,0.3-0.5c0.1-0.2,0.2-0.4,0.2-0.7
		c0-0.2,0.1-0.5,0.1-0.8C129.8,71.4,129.8,71.1,129.8,70.8z"/>
</g>
<path class="st4" d="M170.3,88.5c0-2.5,0-5,0-7.5c-1.1,0-2.3,0-3.4,0c-53.8,0-107.6,0-161.3,0c-1,0-2,0-3.1-0.1
	c-0.8,0-1.6,0.1-2.4,0.1c0,4.1,0.1,8.3,0,12.4c0,1.2,0.2,1.6,1.5,1.6c53.7,0,107.5,0,161.2,0c2.2,0,4.4,0,6.6,0
	c0.7,0,0.9-0.1,0.9-0.9C170.3,92.2,170.3,90.4,170.3,88.5z"/>
<g>
	<path class="st6" d="M60,91.1h-0.9L58,89.2c-0.1-0.2-0.2-0.3-0.3-0.4s-0.2-0.2-0.3-0.3c-0.1-0.1-0.2-0.1-0.3-0.2
		c-0.1,0-0.2-0.1-0.4-0.1h-0.6v2.7h-0.8v-6.4h1.9c0.3,0,0.5,0,0.8,0.1s0.4,0.2,0.6,0.3c0.2,0.1,0.3,0.3,0.4,0.5s0.1,0.5,0.1,0.8
		c0,0.2,0,0.4-0.1,0.6c-0.1,0.2-0.2,0.4-0.3,0.5s-0.3,0.3-0.4,0.4c-0.2,0.1-0.4,0.2-0.6,0.2v0c0.1,0,0.2,0.1,0.3,0.2
		s0.2,0.1,0.2,0.2c0.1,0.1,0.1,0.2,0.2,0.3c0.1,0.1,0.1,0.2,0.2,0.4L60,91.1z M56.1,85.3v2.3h1c0.2,0,0.4,0,0.5-0.1
		c0.2-0.1,0.3-0.1,0.4-0.2s0.2-0.2,0.3-0.4c0.1-0.2,0.1-0.3,0.1-0.5c0-0.3-0.1-0.6-0.3-0.8c-0.2-0.2-0.5-0.3-1-0.3H56.1z"/>
	<path class="st6" d="M64.2,88.9h-3.2c0,0.5,0.1,0.9,0.4,1.2s0.6,0.4,1.1,0.4c0.5,0,1-0.2,1.4-0.5v0.7c-0.4,0.3-0.9,0.4-1.6,0.4
		c-0.6,0-1.2-0.2-1.5-0.6c-0.4-0.4-0.6-1-0.6-1.8c0-0.7,0.2-1.3,0.6-1.7c0.4-0.5,0.9-0.7,1.5-0.7c0.6,0,1.1,0.2,1.4,0.6
		s0.5,0.9,0.5,1.6V88.9z M63.4,88.3c0-0.4-0.1-0.8-0.3-1c-0.2-0.2-0.5-0.4-0.8-0.4c-0.3,0-0.6,0.1-0.9,0.4s-0.4,0.6-0.4,1H63.4z"/>
	<path class="st6" d="M68.4,90.8c-0.4,0.2-0.8,0.3-1.3,0.3c-0.7,0-1.2-0.2-1.6-0.6c-0.4-0.4-0.6-1-0.6-1.7c0-0.8,0.2-1.4,0.7-1.8
		c0.4-0.5,1-0.7,1.7-0.7c0.4,0,0.8,0.1,1.1,0.2v0.8c-0.3-0.2-0.7-0.4-1.1-0.4c-0.5,0-0.9,0.2-1.2,0.5c-0.3,0.3-0.5,0.8-0.5,1.3
		c0,0.5,0.1,1,0.4,1.3c0.3,0.3,0.7,0.5,1.1,0.5c0.4,0,0.8-0.1,1.1-0.4V90.8z"/>
	<path class="st6" d="M71.5,91.2c-0.7,0-1.2-0.2-1.6-0.6c-0.4-0.4-0.6-1-0.6-1.7c0-0.8,0.2-1.4,0.6-1.8c0.4-0.4,1-0.7,1.7-0.7
		c0.7,0,1.2,0.2,1.6,0.6s0.6,1,0.6,1.8c0,0.7-0.2,1.3-0.6,1.8C72.7,90.9,72.2,91.2,71.5,91.2z M71.5,87c-0.5,0-0.8,0.2-1.1,0.5
		c-0.3,0.3-0.4,0.8-0.4,1.3c0,0.5,0.1,1,0.4,1.3c0.3,0.3,0.7,0.5,1.1,0.5c0.5,0,0.8-0.2,1.1-0.5c0.3-0.3,0.4-0.7,0.4-1.3
		c0-0.6-0.1-1-0.4-1.3C72.4,87.1,72,87,71.5,87z"/>
	<path class="st6" d="M78.9,90.7c0,1.7-0.8,2.5-2.4,2.5c-0.6,0-1.1-0.1-1.5-0.3v-0.7c0.5,0.3,1,0.4,1.5,0.4c1.1,0,1.7-0.6,1.7-1.8
		v-0.5h0c-0.4,0.6-0.9,0.9-1.6,0.9c-0.6,0-1-0.2-1.4-0.6s-0.5-1-0.5-1.6c0-0.8,0.2-1.4,0.6-1.9c0.4-0.5,0.9-0.7,1.5-0.7
		c0.6,0,1.1,0.2,1.4,0.7h0v-0.6h0.7V90.7z M78.1,89v-0.7c0-0.4-0.1-0.7-0.4-0.9c-0.2-0.3-0.6-0.4-0.9-0.4c-0.5,0-0.8,0.2-1.1,0.5
		c-0.3,0.3-0.4,0.8-0.4,1.4c0,0.5,0.1,0.9,0.4,1.2c0.2,0.3,0.6,0.5,1,0.5c0.4,0,0.7-0.1,1-0.4S78.1,89.4,78.1,89z"/>
	<path class="st6" d="M84.2,91.1h-0.7v-2.6c0-1-0.4-1.5-1.1-1.5c-0.4,0-0.7,0.1-0.9,0.4c-0.2,0.3-0.4,0.6-0.4,1v2.6h-0.7v-4.6h0.7
		v0.8h0c0.3-0.6,0.8-0.9,1.5-0.9c0.5,0,0.9,0.2,1.2,0.5s0.4,0.8,0.4,1.4V91.1z"/>
	<path class="st6" d="M85.9,85.3c-0.1,0-0.2,0-0.3-0.1s-0.1-0.2-0.1-0.3s0-0.3,0.1-0.3c0.1-0.1,0.2-0.1,0.3-0.1c0.1,0,0.2,0,0.3,0.1
		c0.1,0.1,0.1,0.2,0.1,0.3c0,0.1,0,0.2-0.1,0.3C86.2,85.2,86.1,85.3,85.9,85.3z M86.3,91.1h-0.7v-4.6h0.7V91.1z"/>
	<path class="st6" d="M87.5,90.9v-0.8c0.4,0.3,0.8,0.4,1.3,0.4c0.6,0,1-0.2,1-0.6c0-0.1,0-0.2-0.1-0.3s-0.1-0.2-0.2-0.2
		c-0.1-0.1-0.2-0.1-0.3-0.2c-0.1-0.1-0.3-0.1-0.4-0.2c-0.2-0.1-0.4-0.2-0.5-0.2c-0.2-0.1-0.3-0.2-0.4-0.3c-0.1-0.1-0.2-0.2-0.2-0.4
		c-0.1-0.1-0.1-0.3-0.1-0.5c0-0.2,0-0.4,0.1-0.6s0.2-0.3,0.4-0.4c0.2-0.1,0.4-0.2,0.6-0.3c0.2-0.1,0.4-0.1,0.7-0.1
		c0.4,0,0.8,0.1,1.1,0.2v0.7C90,87.1,89.6,87,89.2,87c-0.1,0-0.3,0-0.4,0s-0.2,0.1-0.3,0.1s-0.1,0.1-0.2,0.2c0,0.1-0.1,0.2-0.1,0.3
		c0,0.1,0,0.2,0.1,0.3c0,0.1,0.1,0.2,0.2,0.2c0.1,0.1,0.2,0.1,0.3,0.2c0.1,0.1,0.3,0.1,0.4,0.2c0.2,0.1,0.4,0.2,0.5,0.2
		c0.2,0.1,0.3,0.2,0.4,0.3c0.1,0.1,0.2,0.2,0.3,0.4s0.1,0.3,0.1,0.5c0,0.2,0,0.4-0.2,0.6c-0.1,0.2-0.2,0.3-0.4,0.4
		c-0.2,0.1-0.4,0.2-0.6,0.2c-0.2,0.1-0.4,0.1-0.7,0.1C88.2,91.2,87.8,91.1,87.5,90.9z"/>
	<path class="st6" d="M95.4,88.9h-3.2c0,0.5,0.1,0.9,0.4,1.2s0.6,0.4,1.1,0.4c0.5,0,1-0.2,1.4-0.5v0.7c-0.4,0.3-0.9,0.4-1.6,0.4
		c-0.6,0-1.2-0.2-1.5-0.6c-0.4-0.4-0.6-1-0.6-1.8c0-0.7,0.2-1.3,0.6-1.7s0.9-0.7,1.5-0.7s1.1,0.2,1.4,0.6s0.5,0.9,0.5,1.6V88.9z
		 M94.6,88.3c0-0.4-0.1-0.8-0.3-1c-0.2-0.2-0.5-0.4-0.8-0.4c-0.3,0-0.6,0.1-0.9,0.4s-0.4,0.6-0.4,1H94.6z"/>
	<path class="st6" d="M100.4,91.1h-0.7v-0.8h0c-0.3,0.6-0.9,0.9-1.6,0.9c-0.6,0-1-0.2-1.4-0.6c-0.3-0.4-0.5-1-0.5-1.7
		c0-0.8,0.2-1.4,0.6-1.8c0.4-0.5,0.9-0.7,1.5-0.7c0.6,0,1.1,0.2,1.4,0.7h0v-2.8h0.7V91.1z M99.7,89v-0.7c0-0.4-0.1-0.7-0.4-0.9
		C99,87.1,98.7,87,98.4,87c-0.4,0-0.8,0.2-1.1,0.5c-0.3,0.3-0.4,0.8-0.4,1.4c0,0.5,0.1,0.9,0.4,1.3s0.6,0.5,1,0.5
		c0.4,0,0.7-0.1,1-0.4C99.5,89.8,99.7,89.4,99.7,89z"/>
	<path class="st6" d="M104.8,85.3c-0.1,0-0.2,0-0.3-0.1s-0.1-0.2-0.1-0.3s0-0.3,0.1-0.3c0.1-0.1,0.2-0.1,0.3-0.1
		c0.1,0,0.2,0,0.3,0.1c0.1,0.1,0.1,0.2,0.1,0.3c0,0.1,0,0.2-0.1,0.3C105,85.2,104.9,85.3,104.8,85.3z M105.1,91.1h-0.7v-4.6h0.7
		V91.1z"/>
	<path class="st6" d="M110.4,91.1h-0.7v-2.6c0-1-0.4-1.5-1.1-1.5c-0.4,0-0.7,0.1-0.9,0.4c-0.2,0.3-0.4,0.6-0.4,1v2.6h-0.7v-4.6h0.7
		v0.8h0c0.3-0.6,0.8-0.9,1.5-0.9c0.5,0,0.9,0.2,1.2,0.5c0.3,0.3,0.4,0.8,0.4,1.4V91.1z"/>
</g>
</svg>
