<svg xmlns="http://www.w3.org/2000/svg" width="24" height="24" viewBox="0 0 24 24">
  <path id="FontAwsome_expand_" data-name="FontAwsome (expand)" d="M0,39.929V33.286A1.283,1.283,0,0,1,1.286,32H7.929a.645.645,0,0,1,.643.643v2.143a.645.645,0,0,1-.643.643h-4.5v4.5a.645.645,0,0,1-.643.643H.643A.645.645,0,0,1,0,39.929Zm15.429-7.286v2.143a.645.645,0,0,0,.643.643h4.5v4.5a.645.645,0,0,0,.643.643h2.143A.645.645,0,0,0,24,39.929V33.286A1.283,1.283,0,0,0,22.714,32H16.071A.645.645,0,0,0,15.429,32.643Zm7.929,14.786H21.214a.645.645,0,0,0-.643.643v4.5h-4.5a.645.645,0,0,0-.643.643v2.143a.645.645,0,0,0,.643.643h6.643A1.283,1.283,0,0,0,24,54.714V48.071A.645.645,0,0,0,23.357,47.429ZM8.571,55.357V53.214a.645.645,0,0,0-.643-.643h-4.5v-4.5a.645.645,0,0,0-.643-.643H.643A.645.645,0,0,0,0,48.071v6.643A1.283,1.283,0,0,0,1.286,56H7.929A.645.645,0,0,0,8.571,55.357Z" transform="translate(0 -32)" fill="#fff"/>
</svg>
