<?xml version="1.0" encoding="utf-8"?>
<!-- Generator: Adobe Illustrator 22.1.0, SVG Export Plug-In . SVG Version: 6.00 Build 0)  -->
<svg version="1.1" id="Layer_1" xmlns="http://www.w3.org/2000/svg" xmlns:xlink="http://www.w3.org/1999/xlink" x="0px" y="0px"
	 viewBox="0 0 352 36" style="enable-background:new 0 0 352 36;" xml:space="preserve">
<style type="text/css">
	.st0{fill:#8F969F;}
	.st1{fill:#9098A0;}
	.st2{fill:#CF0F3D;}
	.st3{fill:#CE013F;}
</style>
<g>
	<path class="st0" d="M1,4.2c0.1-0.1,0.3-0.1,0.4-0.1c2.8,0,5.5-0.2,8.3-0.1c1.3,0,2.5,0.2,3.7,0.7c1.9,0.9,3.1,2.4,3.2,4.5
		c0.1,2.3-0.9,4.1-2.9,5.2c-0.5,0.3-1,0.5-1.6,0.7c0.4,0.2,0.8,0.1,1.1,0.2c2.1,0.4,3.7,1.5,4.4,3.6c0.7,2.3,0.3,4.4-1.3,6.2
		c-1.5,1.6-3.4,2.3-5.5,2.5c-3.1,0.2-6.2,0.1-9.2,0.1c-0.4,0-0.5-0.2-0.5-0.6c0.1-2.3,0.1-4.7,0.1-7.1c0-4,0-8,0-12
		c0-0.8,0-1.7-0.2-2.5C1,5.1,1,4.6,1,4.2z M4.9,19.4L4.9,19.4C5,21.1,5,22.8,5,24.5c0,0.4,0.1,0.4,0.5,0.4c0.8,0,1.6,0,2.3,0
		c1.1-0.1,2.2,0,3.2-0.4c1.9-0.6,3-2,2.9-3.9c0-1.8-1.1-3.1-3.1-3.5c-1.9-0.4-3.8-0.2-5.6-0.2c-0.3,0-0.4,0.1-0.4,0.4
		C4.9,18.1,4.9,18.7,4.9,19.4z M4.9,10.5c0,0.9,0,1.8,0,2.7c0,1,0,1.1,1.1,1c1.5,0,3,0,4.4-0.5c1.6-0.5,2.7-2.1,2.6-3.8
		s-1.2-2.8-3.1-3.1c-1.5-0.2-3-0.1-4.5-0.1C5,6.7,4.9,6.9,4.9,7.2C4.9,8.3,4.9,9.4,4.9,10.5z"/>
	<path class="st1" d="M138,36c-0.7-0.2-1.3-0.3-2-0.5c-0.9-0.3-1.6-0.7-2.3-1.3c-2.1-1.9-2.2-4.7-0.2-6.9c0.5-0.5,1-0.9,1.6-1.4
		c-0.4-0.2-0.8-0.4-1.2-0.6s-0.5-0.4-0.2-0.8c0.6-0.9,1.3-1.9,1.9-2.8c0.1-0.2,0.2-0.3-0.1-0.5c-3.5-1.6-3.7-6.6-1.3-9.1
		c1.1-1.2,2.5-1.7,4.1-1.9c2.1-0.3,4.1,0,6.2,0c1,0,2.1,0,3.1,0c0.4,0,0.6,0.1,0.5,0.5c-0.1,0.5-0.1,1.1-0.1,1.6
		c0,0.3-0.2,0.5-0.5,0.4c-0.4,0-0.9-0.1-1.3-0.1c-0.3,0-0.7,0-1.1,0c0.6,0.7,1,1.4,1.2,2.2c0.8,3.3-1.2,6.4-4.6,7
		c-0.9,0.2-1.8,0.3-2.8,0.1c-0.3-0.1-0.6,0-0.7,0.4c-0.2,0.4-0.7,0.7-0.6,1c0.1,0.3,0.7,0.3,1.1,0.4c1.5,0.4,3.1,0.8,4.6,1.2
		c1.2,0.3,2.3,0.8,3.1,1.8c1.6,1.8,1.5,4.7-0.1,6.6c-1.2,1.5-2.9,2.1-4.7,2.4c-0.1,0-0.2,0-0.3,0.1C140.1,36,139.1,36,138,36z
		 M139.8,33.8c0.8,0,1.5-0.1,2.2-0.4c1.1-0.5,1.9-1.3,1.9-2.7c0-1.2-0.6-2-1.9-2.5c-1-0.4-2-0.6-3-0.9c-1.8-0.5-1.9-0.4-2.9,1.1
		c-0.1,0.2-0.2,0.4-0.3,0.6c-0.8,1.6-0.2,3.4,1.4,4.2C138,33.6,138.9,33.8,139.8,33.8z M139.5,12.5c-0.3,0-0.6,0-0.9,0.1
		c-1.5,0.3-2.4,1.4-2.6,3.2c-0.3,2.2,0.9,3.9,3.1,4.2c1.7,0.2,3.2-0.5,3.7-2.5c0.2-0.8,0.2-1.7-0.1-2.5
		C142.3,13.4,141.2,12.5,139.5,12.5z"/>
	<path class="st1" d="M154,27.6c-0.1,0-0.3,0.1-0.4,0.1c-1,0-2,0.1-3,0.1c-0.4,0-0.6-0.1-0.5-0.6c0.1-1.9,0.2-3.8,0.2-5.7
		c0-3.1,0-6.2-0.2-9.4V12c-0.2-1.6-0.1-1.2,1.2-1.5c0.7-0.1,1.4-0.2,2-0.4c0.3-0.1,0.5-0.1,0.8,0.1c0,0.7,0,1.4,0,2
		c-0.2,0.7-0.1,1.4-0.2,2c-0.1,3.7-0.1,7.4,0.1,11c0,0.3-0.1,0.5,0.1,0.8C154,26.6,154,27.1,154,27.6z"/>
	<path class="st1" d="M74.2,1.3c0,0,0,0.4,0,0.7c0,7.1,0,14.1,0,21.2c0,0.7,0,0.7-0.7,0.6c-0.9,0-0.8,0.1-0.8-0.8c0-7,0-14.1,0-21.1
		c0-0.2,0-0.4,0-0.6C73.3,1.3,74.2,1.3,74.2,1.3z"/>
	<path class="st1" d="M154,26.1c-0.2-0.2-0.1-0.5-0.1-0.8c-0.1-3.7-0.1-7.4-0.1-11c0-0.7-0.1-1.4,0.2-2C154,16.9,154,21.5,154,26.1z
		"/>
	<path class="st1" d="M93.5,15.2c0.5,0.2,0.9,0.2,1.3,0.2c2.8,0.5,4.5,2.6,4.5,5.4c0.1,3.1-2,5.7-5.3,6.5c-1.2,0.3-2.3,0.4-3.5,0.4
		c-2.4,0-4.7,0-7.1,0c-0.9,0-0.9,0-0.9-0.9c0-2.2,0-4.5,0-6.7c0-3.4,0.1-6.8,0-10.1c0-1.8-0.1-3.6-0.2-5.4c0-0.4,0.1-0.5,0.5-0.6
		c2.7,0,5.4-0.2,8.2-0.1c1.7,0,3.3,0.3,4.7,1.2c3.2,2.2,3,7.2-0.4,9.1C94.8,14.7,94.2,14.9,93.5,15.2z M86.3,20.4
		c0,1.1,0.1,2.5,0.1,4c0,0.5,0.2,0.7,0.7,0.6c0.7,0,1.3,0,2,0c1-0.1,2.1,0,3.1-0.3c2-0.5,3.2-2,3.2-3.9s-1.1-3.2-3.2-3.6
		c-1.8-0.4-3.7-0.2-5.5-0.2c-0.3,0-0.4,0.1-0.4,0.4C86.3,18.3,86.3,19.2,86.3,20.4z M86.3,10.4c0,1.1,0,2.2,0,3.3
		c0,0.4,0.1,0.5,0.5,0.5c0.5,0,1.1,0,1.6,0c1.2-0.1,2.5-0.1,3.7-0.6c1.5-0.6,2.5-2.2,2.3-3.8s-1.2-2.6-3-2.9c-1.5-0.3-3-0.1-4.5-0.1
		c-0.4,0-0.5,0.1-0.5,0.5C86.3,8.3,86.3,9.4,86.3,10.4z"/>
	<path class="st1" d="M113.9,18.2c0-2.1,0-4.2-0.1-6.3c0-0.4-0.1-0.8-0.1-1.2c0-0.3,0.1-0.5,0.5-0.5c1,0,2-0.1,3-0.1
		c0.4,0,0.5,0.2,0.4,0.5c0,0.9-0.1,1.8-0.1,2.7c0,3.1,0,6.2,0,9.3c0,1.5,0.1,2.9,0.2,4.4c0,0.5-0.1,0.6-0.6,0.6
		c-0.9,0-1.7,0-2.6,0.1c-0.5,0-0.6-0.2-0.6-0.6c0-0.3,0.2-0.6-0.1-0.8c-0.2-0.1-0.5,0.2-0.7,0.4c-1.7,1.1-3.6,1.6-5.7,1.2
		c-2.5-0.4-4-1.9-4.5-4.5c-0.2-1.3-0.2-2.6-0.3-3.9c-0.1-2.4,0-4.8-0.1-7.1c0-0.6,0-1.1-0.1-1.7c0-0.4,0.1-0.6,0.5-0.5
		c0.9,0,1.9-0.1,2.8-0.1c0.4,0,0.6,0.2,0.6,0.6c-0.1,1.5-0.1,3.1-0.1,4.6c-0.1,1.9-0.1,3.8-0.1,5.7c0,0.7,0.1,1.4,0.3,2.1
		c0.6,1.8,2,2.2,3.4,2.2c1.4-0.1,2.5-0.6,3.6-1.4c0.3-0.2,0.4-0.4,0.4-0.8C113.9,21.5,113.9,19.8,113.9,18.2z"/>
	<path class="st1" d="M32.3,26.3c-0.5,0.3-0.9,0.6-1.4,0.8c-1.7,0.9-3.5,1.2-5.3,0.8c-2.3-0.4-3.8-2-4.2-4.4
		c-0.2-1.1-0.2-2.2-0.3-3.3c-0.1-2.4,0-4.9-0.1-7.3c0-0.7,0-1.4-0.1-2.1c0-0.3,0.1-0.5,0.5-0.5c1,0,1.9-0.1,2.9-0.1
		c0.3,0,0.5,0.1,0.5,0.4c0,1.4,0,2.9-0.1,4.3c-0.1,2.1-0.1,4.2-0.1,6.3c0,0.6,0.1,1.3,0.3,1.9c0.6,1.8,1.9,2.3,3.4,2.2
		c1.4-0.1,2.5-0.7,3.6-1.5c0.2-0.2,0.3-0.3,0.3-0.6c0-3.8,0.1-7.6-0.1-11.4c0-0.3,0-0.6-0.1-0.9c0.1-0.4,0.2-0.6,0.7-0.6
		c0.9,0,1.8,0,2.7-0.1c0.5,0,0.6,0.2,0.6,0.6c0,1.4-0.1,2.8-0.1,4.2c0,2.7,0,5.3,0,8c0,1.3,0.1,2.6,0.2,4c0,0.7,0,0.7-0.7,0.7
		c-0.8,0-1.7,0-2.5,0.1c-0.4,0-0.6-0.1-0.6-0.5C32.4,26.9,32.3,26.7,32.3,26.3z"/>
	<path class="st1" d="M53.8,28.1c-1.7,0-3.3-0.3-4.8-0.9c-0.4-0.1-0.5-0.4-0.5-0.7c0.1-0.7,0.1-1.4,0.1-2.1c0-0.5,0.2-0.6,0.7-0.3
		c1.6,1.2,3.5,1.6,5.4,1.3c1.1-0.2,2-0.7,2.4-1.9c0.3-0.8,0-1.5-0.7-2.1c-0.5-0.3-1-0.6-1.5-0.8c-1.2-0.4-2.4-0.8-3.5-1.2
		c-1.7-0.7-2.8-1.9-3-3.8c-0.2-2.3,0.9-4.2,3.1-5.1c2.5-1,5-0.8,7.5-0.1c1.2,0.4,1.2,0.4,1,1.7c-0.1,0.4-0.1,0.8-0.1,1.3
		c0,0.4-0.2,0.5-0.6,0.3c-1.2-0.8-2.5-1.2-3.9-1.2c-1,0-2.1,0.1-2.9,0.9c-0.8,0.8-0.7,2,0.3,2.6c0.8,0.6,1.8,0.8,2.7,1.1
		c1,0.3,2,0.6,2.9,1.1C62,20,61.8,25,58.5,27C57,27.8,55.4,28.1,53.8,28.1z"/>
	<path class="st1" d="M126,12.6c0.3-0.4,0.6-0.9,0.9-1.3c1-1.2,2.3-1.5,3.8-1.4c0.3,0,0.5,0.2,0.4,0.5c-0.2,1-0.4,2-0.5,3
		c-0.1,0.3-0.2,0.4-0.5,0.3c-1.9-0.7-3.6,0.5-3.7,2.6c-0.2,2.9-0.1,5.7,0,8.6c0,0.8,0.1,1.5,0.1,2.3c0,0.3-0.1,0.5-0.4,0.5
		c-1,0-1.9,0-2.9,0.1c-0.4,0-0.5-0.1-0.5-0.6c0-4.4,0.1-8.7,0-13.1c0-0.9-0.1-1.9-0.2-2.8c0-0.4,0.1-0.6,0.4-0.6
		c1-0.2,1.9-0.4,2.9-0.6c0.4-0.1,0.6,0.1,0.5,0.5C126.1,11.3,126.1,11.9,126,12.6z"/>
	<path class="st1" d="M42,27.7c-1,0.1-1,0.3-0.9-0.9c0.2-4.2,0.1-8.4,0.1-12.6c0-1-0.1-2-0.2-2.9c-0.1-0.4,0.1-0.5,0.4-0.6
		c1-0.2,2-0.4,3.1-0.6c0.5-0.1,0.7,0.1,0.6,0.6c-0.3,4.5-0.2,9-0.2,13.6c0,0.9,0.1,1.9,0.2,2.8c0,0.5-0.1,0.7-0.6,0.6
		C43.7,27.6,42.8,27.7,42,27.7z"/>
	<path class="st2" d="M69.7,21.3c0-3.6,0-7.2,0-10.8c0-0.4,0.1-0.6,0.5-0.5c0.9,0,0.9,0,0.9,0.9c0,7,0,14,0,21.1
		c0,0.4-0.1,0.6-0.6,0.6c-0.9,0-0.9,0-0.9-0.9C69.7,28.2,69.7,24.8,69.7,21.3z"/>
	<path class="st1" d="M43.1,3.4c0.5,0,1,0,1.4,0c0.3,0,0.4,0.1,0.4,0.3c0,1,0,2,0,3c0,0.3-0.1,0.4-0.4,0.4c-1,0-2,0-3,0
		c-0.3,0-0.4-0.1-0.4-0.4c0-1,0-2,0-3c0-0.3,0.1-0.4,0.4-0.3C42.1,3.4,42.6,3.4,43.1,3.4z"/>
	<path class="st1" d="M111,5.2c0-0.5,0-1,0-1.4c0-0.2,0-0.4,0.3-0.4c1,0,2,0,3,0c0.2,0,0.3,0.1,0.3,0.3c0,1,0,2,0,3
		c0,0.2-0.1,0.3-0.3,0.3c-1,0-2,0-3,0c-0.2,0-0.3-0.1-0.3-0.3C111,6.2,111,5.7,111,5.2z"/>
	<path class="st1" d="M107.2,3.4c0.5,0,1,0,1.4,0c0.2,0,0.4,0,0.4,0.3c0,1,0,2,0,3c0,0.3-0.1,0.4-0.3,0.4c-1,0-1.9,0-2.9,0
		c-0.3,0-0.4-0.1-0.4-0.4c0-1,0-1.9,0-2.9c0-0.3,0.1-0.4,0.4-0.4C106.2,3.4,106.7,3.4,107.2,3.4z"/>
</g>
<rect x="41.2" y="3.4" class="st1" width="3.7" height="3.7"/>
<rect x="105.3" y="3.4" class="st1" width="3.7" height="3.7"/>
<rect x="150.2" y="3.4" class="st1" width="3.7" height="3.7"/>
<rect x="111" y="3.4" class="st1" width="3.7" height="3.7"/>
<rect x="69.7" y="10" class="st2" width="1.4" height="1.8"/>
<rect x="72.8" y="22.1" class="st1" width="1.4" height="1.8"/>
<rect x="69.7" y="30.8" class="st2" width="1.4" height="1.8"/>
<path class="st3" d="M169.7,27.6h-1.3l-1.5-2.6c-0.1-0.2-0.3-0.4-0.4-0.6s-0.3-0.3-0.4-0.4s-0.3-0.2-0.4-0.2c-0.2,0-0.3-0.1-0.5-0.1
	h-0.9v3.9h-1.1v-9.1h2.7c0.4,0,0.8,0,1.1,0.1s0.6,0.3,0.9,0.5c0.2,0.2,0.4,0.5,0.6,0.8c0.1,0.3,0.2,0.7,0.2,1.1c0,0.3,0,0.6-0.1,0.9
	s-0.2,0.5-0.4,0.7s-0.4,0.4-0.6,0.5c-0.2,0.1-0.5,0.3-0.8,0.3l0,0c0.2,0.1,0.3,0.1,0.4,0.2s0.2,0.2,0.3,0.3c0.1,0.1,0.2,0.3,0.3,0.4
	s0.2,0.3,0.3,0.5L169.7,27.6z M164.3,19.4v3.3h1.4c0.3,0,0.5,0,0.7-0.1s0.4-0.2,0.6-0.3c0.2-0.2,0.3-0.3,0.4-0.6s0.1-0.5,0.1-0.7
	c0-0.5-0.2-0.9-0.5-1.1c-0.3-0.3-0.8-0.4-1.4-0.4L164.3,19.4L164.3,19.4z"/>
<path class="st3" d="M176.1,24.6h-4.6c0,0.7,0.2,1.3,0.6,1.7c0.4,0.4,0.9,0.6,1.5,0.6c0.7,0,1.4-0.2,2-0.7v1
	c-0.6,0.4-1.3,0.6-2.3,0.6c-0.9,0-1.6-0.3-2.2-0.9c-0.5-0.6-0.8-1.4-0.8-2.5c0-1,0.3-1.8,0.9-2.5s1.3-1,2.1-1s1.5,0.3,2,0.8
	S176,23,176,24v0.6H176.1z M175,23.7c0-0.6-0.1-1.1-0.4-1.4c-0.3-0.3-0.7-0.5-1.2-0.5s-0.9,0.2-1.3,0.5c-0.3,0.4-0.6,0.8-0.6,1.4
	H175z"/>
<path class="st3" d="M182.4,27.3c-0.5,0.3-1.1,0.5-1.8,0.5c-0.9,0-1.7-0.3-2.2-0.9c-0.6-0.6-0.9-1.4-0.9-2.3c0-1.1,0.3-1.9,0.9-2.6
	c0.6-0.6,1.4-1,2.5-1c0.6,0,1.1,0.1,1.5,0.3v1.1c-0.5-0.3-1-0.5-1.5-0.5c-0.7,0-1.2,0.2-1.6,0.7c-0.4,0.5-0.6,1.1-0.6,1.9
	s0.2,1.4,0.6,1.8c0.4,0.4,0.9,0.7,1.6,0.7c0.6,0,1.1-0.2,1.6-0.6v0.9H182.4z"/>
<path class="st3" d="M189.7,27.6h-1v-3.7c0-1.4-0.5-2-1.5-2c-0.5,0-0.9,0.2-1.3,0.6s-0.5,0.9-0.5,1.5v3.7h-1v-9.6h1v4.2l0,0
	c0.5-0.8,1.2-1.2,2.1-1.2c1.5,0,2.2,0.9,2.2,2.6V27.6z"/>
<path class="st3" d="M195,27.5c-0.2,0.1-0.6,0.2-1,0.2c-1.1,0-1.7-0.6-1.7-1.9V22h-1.1v-0.9h1.1v-1.6l1-0.3v1.9h1.6V22h-1.6v3.7
	c0,0.4,0.1,0.7,0.2,0.9s0.4,0.3,0.7,0.3s0.5-0.1,0.7-0.2v0.8C194.9,27.5,195,27.5,195,27.5z"/>
<path class="st3" d="M196.4,27.3v-1.1c0.6,0.4,1.2,0.6,1.9,0.6c0.9,0,1.4-0.3,1.4-0.9c0-0.2,0-0.3-0.1-0.4s-0.2-0.2-0.3-0.3
	c-0.1-0.1-0.3-0.2-0.5-0.3s-0.4-0.2-0.6-0.2c-0.3-0.1-0.5-0.2-0.8-0.3s-0.4-0.2-0.5-0.4c-0.1-0.1-0.3-0.3-0.3-0.5
	c-0.1-0.2-0.1-0.4-0.1-0.7c0-0.3,0.1-0.6,0.2-0.8c0.1-0.2,0.3-0.4,0.6-0.6c0.2-0.2,0.5-0.3,0.8-0.4s0.6-0.1,0.9-0.1
	c0.6,0,1.1,0.1,1.5,0.3v1.1c-0.5-0.3-1-0.5-1.7-0.5c-0.2,0-0.4,0-0.5,0.1c-0.2,0-0.3,0.1-0.4,0.2s-0.2,0.2-0.3,0.3s-0.1,0.2-0.1,0.4
	c0,0.2,0,0.3,0.1,0.4s0.2,0.2,0.3,0.3c0.1,0.1,0.3,0.2,0.4,0.2c0.2,0.1,0.4,0.1,0.6,0.2c0.3,0.1,0.5,0.2,0.8,0.3s0.4,0.2,0.6,0.4
	c0.2,0.1,0.3,0.3,0.4,0.5c0.1,0.2,0.1,0.4,0.1,0.7c0,0.3-0.1,0.6-0.2,0.8s-0.3,0.4-0.6,0.6c-0.2,0.2-0.5,0.3-0.8,0.3
	c-0.3,0.1-0.6,0.1-1,0.1C197.4,27.7,196.8,27.6,196.4,27.3z"/>
<path class="st3" d="M215,27.6h-1v-3.7c0-1.4-0.5-2.1-1.5-2.1c-0.5,0-1,0.2-1.3,0.6s-0.5,0.9-0.5,1.5v3.7h-1v-6.5h1v1.1l0,0
	c0.5-0.8,1.2-1.2,2.1-1.2c0.7,0,1.3,0.2,1.6,0.7c0.4,0.5,0.6,1.1,0.6,2L215,27.6L215,27.6z"/>
<path class="st3" d="M225.5,21.1l-1.9,6.5h-1.1l-1.3-4.7c-0.1-0.2-0.1-0.4-0.1-0.6l0,0c0,0.2-0.1,0.3-0.1,0.6l-1.5,4.7h-1l-2-6.5
	h1.1l1.3,4.9c0,0.1,0.1,0.3,0.1,0.6h0.1c0-0.2,0.1-0.4,0.1-0.6l1.5-4.9h1L223,26c0,0.2,0.1,0.4,0.1,0.6h0.1c0-0.2,0-0.4,0.1-0.6
	l1.3-4.9C224.6,21.1,225.5,21.1,225.5,21.1z"/>
<path class="st3" d="M231.7,27.6h-1v-1l0,0c-0.5,0.8-1.1,1.2-2,1.2c-0.6,0-1.2-0.2-1.5-0.5c-0.4-0.3-0.5-0.8-0.5-1.4
	c0-1.2,0.7-1.9,2.1-2.1l1.9-0.3c0-1.1-0.4-1.7-1.3-1.7c-0.8,0-1.5,0.3-2.1,0.8v-1.1c0.6-0.4,1.4-0.6,2.2-0.6c1.5,0,2.3,0.8,2.3,2.4
	L231.7,27.6L231.7,27.6z M230.6,24.3l-1.6,0.2c-0.5,0.1-0.8,0.2-1.1,0.4c-0.2,0.2-0.4,0.5-0.4,0.9c0,0.3,0.1,0.6,0.3,0.8
	s0.5,0.3,0.9,0.3c0.5,0,0.9-0.2,1.3-0.5c0.3-0.4,0.5-0.8,0.5-1.4v-0.7C230.5,24.3,230.6,24.3,230.6,24.3z"/>
<path class="st3" d="M207.7,27.6h-1v-1l0,0c-0.5,0.8-1.1,1.2-2,1.2c-0.6,0-1.2-0.2-1.5-0.5c-0.4-0.3-0.5-0.8-0.5-1.4
	c0-1.2,0.7-1.9,2.1-2.1l1.9-0.3c0-1.1-0.4-1.7-1.3-1.7c-0.8,0-1.5,0.3-2.1,0.8v-1.1c0.6-0.4,1.4-0.6,2.2-0.6c1.5,0,2.3,0.8,2.3,2.4
	L207.7,27.6L207.7,27.6z M206.6,24.3l-1.6,0.2c-0.5,0.1-0.8,0.2-1.1,0.4c-0.2,0.2-0.4,0.5-0.4,0.9c0,0.3,0.1,0.6,0.3,0.8
	s0.5,0.3,0.9,0.3c0.5,0,0.9-0.2,1.3-0.5c0.3-0.4,0.5-0.8,0.5-1.4v-0.7C206.5,24.3,206.6,24.3,206.6,24.3z"/>
<path class="st3" d="M235,27.6h-1V18h1V27.6z"/>
<path class="st3" d="M240.5,27.5c-0.2,0.1-0.6,0.2-1,0.2c-1.1,0-1.7-0.6-1.7-1.9V22h-1.1v-0.9h1.1v-1.6l1-0.3v1.9h1.6V22h-1.6v3.7
	c0,0.4,0.1,0.7,0.2,0.9s0.4,0.3,0.7,0.3s0.5-0.1,0.7-0.2v0.8C240.4,27.5,240.5,27.5,240.5,27.5z"/>
<path class="st3" d="M247.3,24.6h-4.6c0,0.7,0.2,1.3,0.6,1.7c0.4,0.4,0.9,0.6,1.5,0.6c0.7,0,1.4-0.2,2-0.7v1
	c-0.6,0.4-1.3,0.6-2.3,0.6c-0.9,0-1.6-0.3-2.2-0.9c-0.5-0.6-0.8-1.4-0.8-2.5c0-1,0.3-1.8,0.9-2.5s1.3-1,2.1-1s1.5,0.3,2,0.8
	s0.7,1.3,0.7,2.3v0.6H247.3z M246.3,23.7c0-0.6-0.1-1.1-0.4-1.4c-0.3-0.3-0.7-0.5-1.2-0.5s-0.9,0.2-1.3,0.5
	c-0.3,0.4-0.6,0.8-0.6,1.4H246.3z"/>
<path class="st3" d="M267.2,27.6H266l-1-2.6h-3.8l-0.9,2.6h-1.2l3.5-9.1h1.1L267.2,27.6z M264.7,24.1l-1.4-3.9
	c0-0.1-0.1-0.3-0.1-0.6l0,0c0,0.3-0.1,0.5-0.1,0.6l-1.4,3.9H264.7z"/>
<path class="st3" d="M271.3,27.5c-0.2,0.1-0.6,0.2-1,0.2c-1.1,0-1.7-0.6-1.7-1.9V22h-1.1v-0.9h1.1v-1.6l1-0.3v1.9h1.6V22h-1.6v3.7
	c0,0.4,0.1,0.7,0.2,0.9s0.4,0.3,0.7,0.3c0.3,0,0.5-0.1,0.7-0.2L271.3,27.5L271.3,27.5z"/>
<path class="st3" d="M275.7,27.5c-0.2,0.1-0.6,0.2-1,0.2c-1.1,0-1.7-0.6-1.7-1.9V22h-1.1v-0.9h1.1v-1.6l1-0.3v1.9h1.6V22H274v3.7
	c0,0.4,0.1,0.7,0.2,0.9s0.4,0.3,0.7,0.3c0.3,0,0.5-0.1,0.7-0.2L275.7,27.5L275.7,27.5z"/>
<path class="st3" d="M279.7,27.7c-1,0-1.7-0.3-2.3-0.9s-0.9-1.4-0.9-2.4c0-1.1,0.3-1.9,0.9-2.6c0.6-0.6,1.4-0.9,2.4-0.9
	s1.7,0.3,2.3,0.9c0.5,0.6,0.8,1.4,0.8,2.5c0,1-0.3,1.9-0.9,2.5S280.7,27.7,279.7,27.7z M279.8,21.8c-0.7,0-1.2,0.2-1.6,0.7
	s-0.6,1.1-0.6,1.9s0.2,1.4,0.6,1.8s0.9,0.7,1.6,0.7s1.2-0.2,1.6-0.7c0.4-0.4,0.5-1.1,0.5-1.9s-0.2-1.4-0.5-1.9
	C281,22,280.5,21.8,279.8,21.8z"/>
<path class="st3" d="M288,22.1c-0.2-0.1-0.4-0.2-0.8-0.2s-0.8,0.2-1.1,0.6c-0.3,0.4-0.4,1-0.4,1.7v3.3h-1V21h1v1.3l0,0
	c0.1-0.5,0.4-0.8,0.7-1.1s0.6-0.4,1-0.4c0.3,0,0.5,0,0.6,0.1L288,22.1L288,22.1z"/>
<path class="st3" d="M294.6,27.6h-1v-3.7c0-1.4-0.5-2.1-1.5-2.1c-0.5,0-1,0.2-1.3,0.6s-0.5,0.9-0.5,1.5v3.7h-1v-6.5h1v1.1l0,0
	c0.5-0.8,1.2-1.2,2.1-1.2c0.7,0,1.3,0.2,1.6,0.7c0.4,0.5,0.6,1.1,0.6,2L294.6,27.6L294.6,27.6z"/>
<path class="st3" d="M301.8,24.6h-4.6c0,0.7,0.2,1.3,0.6,1.7c0.4,0.4,0.9,0.6,1.5,0.6c0.7,0,1.4-0.2,2-0.7v1
	c-0.6,0.4-1.3,0.6-2.3,0.6c-0.9,0-1.6-0.3-2.2-0.9c-0.5-0.6-0.8-1.4-0.8-2.5c0-1,0.3-1.8,0.9-2.5s1.3-1,2.1-1s1.5,0.3,2,0.8
	s0.7,1.3,0.7,2.3L301.8,24.6L301.8,24.6z M300.7,23.7c0-0.6-0.1-1.1-0.4-1.4s-0.7-0.5-1.2-0.5s-0.9,0.2-1.3,0.5
	c-0.3,0.4-0.6,0.8-0.6,1.4H300.7z"/>
<path class="st3" d="M308.6,21.1l-3,7.5c-0.5,1.3-1.3,2-2.2,2c-0.3,0-0.5,0-0.7-0.1v-0.9c0.2,0.1,0.4,0.1,0.6,0.1
	c0.5,0,0.9-0.3,1.2-0.9l0.5-1.2l-2.5-6.5h1.2l1.8,5c0,0.1,0.1,0.2,0.1,0.5l0,0c0-0.1,0.1-0.3,0.1-0.5l1.8-5H308.6z"/>
<path class="st3" d="M309.3,27.3v-1.1c0.6,0.4,1.2,0.6,1.9,0.6c0.9,0,1.4-0.3,1.4-0.9c0-0.2,0-0.3-0.1-0.4s-0.2-0.2-0.3-0.3
	c-0.1-0.1-0.3-0.2-0.5-0.3s-0.4-0.2-0.6-0.2c-0.3-0.1-0.5-0.2-0.8-0.3s-0.4-0.2-0.5-0.4c-0.1-0.1-0.3-0.3-0.3-0.5
	c-0.1-0.2-0.1-0.4-0.1-0.7c0-0.3,0.1-0.6,0.2-0.8c0.1-0.2,0.3-0.4,0.6-0.6c0.2-0.2,0.5-0.3,0.8-0.4s0.6-0.1,0.9-0.1
	c0.6,0,1.1,0.1,1.5,0.3v1.1c-0.5-0.3-1-0.5-1.7-0.5c-0.2,0-0.4,0-0.5,0.1c-0.2,0-0.3,0.1-0.4,0.2s-0.2,0.2-0.3,0.3s-0.1,0.2-0.1,0.4
	c0,0.2,0,0.3,0.1,0.4s0.2,0.2,0.3,0.3c0.1,0.1,0.3,0.2,0.4,0.2c0.2,0.1,0.4,0.1,0.6,0.2c0.3,0.1,0.5,0.2,0.8,0.3s0.4,0.2,0.6,0.4
	c0.2,0.1,0.3,0.3,0.4,0.5s0.1,0.4,0.1,0.7c0,0.3-0.1,0.6-0.2,0.8s-0.3,0.4-0.6,0.6c-0.2,0.2-0.5,0.3-0.8,0.3c-0.3,0.1-0.6,0.1-1,0.1
	C310.4,27.7,309.8,27.6,309.3,27.3z"/>
<path class="st3" d="M323.5,27.6h-1v-1l0,0c-0.5,0.8-1.1,1.2-2,1.2c-0.6,0-1.2-0.2-1.5-0.5c-0.4-0.3-0.5-0.8-0.5-1.4
	c0-1.2,0.7-1.9,2.1-2.1l1.9-0.3c0-1.1-0.4-1.7-1.3-1.7c-0.8,0-1.5,0.3-2.1,0.8v-1.1c0.6-0.4,1.4-0.6,2.2-0.6c1.5,0,2.3,0.8,2.3,2.4
	v4.3C323.6,27.6,323.5,27.6,323.5,27.6z M322.4,24.3l-1.6,0.2c-0.5,0.1-0.8,0.2-1.1,0.4c-0.2,0.2-0.4,0.5-0.4,0.9
	c0,0.3,0.1,0.6,0.3,0.8s0.5,0.3,0.9,0.3c0.5,0,0.9-0.2,1.3-0.5c0.3-0.4,0.5-0.8,0.5-1.4v-0.7C322.3,24.3,322.4,24.3,322.4,24.3z"/>
<path class="st3" d="M328.5,27.5c-0.2,0.1-0.6,0.2-1,0.2c-1.1,0-1.7-0.6-1.7-1.9V22h-1.1v-0.9h1.1v-1.6l1-0.3v1.9h1.6V22h-1.6v3.7
	c0,0.4,0.1,0.7,0.2,0.9s0.4,0.3,0.7,0.3c0.3,0,0.5-0.1,0.7-0.2L328.5,27.5L328.5,27.5z"/>
<path class="st3" d="M334.5,27.6h-1V18h1V27.6z"/>
<path class="st3" d="M341.3,27.6h-1v-1l0,0c-0.5,0.8-1.1,1.2-2,1.2c-0.6,0-1.2-0.2-1.5-0.5c-0.4-0.3-0.5-0.8-0.5-1.4
	c0-1.2,0.7-1.9,2.1-2.1l1.9-0.3c0-1.1-0.4-1.7-1.3-1.7c-0.8,0-1.5,0.3-2.1,0.8v-1.1c0.6-0.4,1.4-0.6,2.2-0.6c1.5,0,2.3,0.8,2.3,2.4
	v4.3C341.4,27.6,341.3,27.6,341.3,27.6z M340.3,24.3l-1.6,0.2c-0.5,0.1-0.8,0.2-1.1,0.4c-0.2,0.2-0.4,0.5-0.4,0.9
	c0,0.3,0.1,0.6,0.3,0.8s0.5,0.3,0.9,0.3c0.5,0,0.9-0.2,1.3-0.5c0.3-0.4,0.5-0.8,0.5-1.4v-0.7C340.2,24.3,340.3,24.3,340.3,24.3z"/>
<path class="st3" d="M351.5,21.1l-1.9,6.5h-1.1l-1.3-4.7c-0.1-0.2-0.1-0.4-0.1-0.6l0,0c0,0.2-0.1,0.3-0.1,0.6l-1.5,4.7h-1l-2-6.5
	h1.1l1.3,4.9c0,0.1,0.1,0.3,0.1,0.6h0.1c0-0.2,0.1-0.4,0.1-0.6l1.5-4.9h1L349,26c0,0.2,0.1,0.4,0.1,0.6h0.1c0-0.2,0-0.4,0.1-0.6
	l1.3-4.9H351.5z"/>
<rect x="227.5" y="18.4" class="st3" width="0.9" height="1"/>
<rect x="252.9" y="23.6" class="st3" width="0.9" height="1"/>
<rect x="230.1" y="18.4" class="st3" width="0.9" height="1"/>
</svg>
