<svg xmlns="http://www.w3.org/2000/svg" viewBox="0 0 126.75 78.64"><defs><style>.cls-1{fill:#960048;}</style></defs><g id="Capa_2" data-name="Capa 2"><g id="Capa_1-2" data-name="Capa 1"><path class="cls-1" d="M86.5,10.89h.07a1.2,1.2,0,0,0-.52-1,1.25,1.25,0,0,0,.61-1.06,1.09,1.09,0,0,0,0-.26l-.16-1.48a1.32,1.32,0,0,0,.28-.81,1.28,1.28,0,0,0-.49-1l-.56-5h0A.27.27,0,0,0,85.43,0a.26.26,0,0,0-.26.27h0l-.56,5a1.31,1.31,0,0,0-.48,1,1.26,1.26,0,0,0,.28.81l-.17,1.48a1.09,1.09,0,0,0,0,.26,1.24,1.24,0,0,0,.52,1,1.25,1.25,0,0,0-.61,1.06h.11A3.27,3.27,0,0,0,82.09,14h6.54A3.27,3.27,0,0,0,86.5,10.89Z"/><path class="cls-1" d="M85.36,17.55a16.15,16.15,0,0,1,3.2.32v-3h-6.4v3A16.15,16.15,0,0,1,85.36,17.55Z"/><path class="cls-1" d="M95.67,22.28c0-.05,0-.1,0-.15a1.15,1.15,0,0,0,0-.26l-.16-1.48a1.32,1.32,0,0,0,.28-.8,1.28,1.28,0,0,0-.49-1l-.56-5h0a.27.27,0,0,0-.27-.27.26.26,0,0,0-.26.27h0l-.56,5a1.31,1.31,0,0,0-.48,1,1.26,1.26,0,0,0,.28.8l0,.27a15.93,15.93,0,0,0-16-.06l0-.21a1.32,1.32,0,0,0,.28-.8,1.28,1.28,0,0,0-.49-1l-.56-5h0a.27.27,0,1,0-.53,0h0l-.56,5a1.28,1.28,0,0,0-.49,1,1.32,1.32,0,0,0,.28.8l-.16,1.48a1.15,1.15,0,0,0,0,.26v.06a15.67,15.67,0,0,0-3.23,3.7H98.79A15.88,15.88,0,0,0,95.67,22.28Z"/><rect class="cls-1" x="66.4" y="27.11" width="37.93" height="5.86"/><path class="cls-1" d="M108.25,34.42H62.5V38h2.91V50.36h39.76V38h3.08ZM77.83,38h2V48.67h-2ZM74.52,48.67h-2V38h2ZM81.61,38h2V48.67h-2Zm5.33,0h2V48.67h-2Zm3.78,0h2V48.67h-2Zm5.33,0h2V48.67h-2ZM68.72,38h2V48.67h-2Zm33.13,10.72h-2V38h2Z"/><path class="cls-1" d="M68.37,25.91h2.46a1.25,1.25,0,0,0-.52-1,1.22,1.22,0,0,0,.61-1,1.24,1.24,0,0,0,0-.27l-.17-1.47A1.35,1.35,0,0,0,71,21.3a1.31,1.31,0,0,0-.48-1l-.57-5h0a.27.27,0,0,0-.53,0h0l-.56,5a1.28,1.28,0,0,0-.49,1,1.35,1.35,0,0,0,.28.81l-.16,1.47a1.24,1.24,0,0,0,0,.27,1.21,1.21,0,0,0,.52,1A1.22,1.22,0,0,0,68.37,25.91Z"/><path class="cls-1" d="M99.83,25.91h2.46a1.25,1.25,0,0,0-.52-1,1.22,1.22,0,0,0,.61-1,1.24,1.24,0,0,0,0-.27l-.17-1.47a1.29,1.29,0,0,0,.29-.81,1.32,1.32,0,0,0-.49-1l-.56-5h0a.27.27,0,0,0-.54,0h0l-.56,5a1.31,1.31,0,0,0-.48,1,1.28,1.28,0,0,0,.28.81L100,23.58a1.22,1.22,0,0,0,.49,1.27A1.22,1.22,0,0,0,99.83,25.91Z"/><path class="cls-1" d="M12.06,40.25c-.12-.12-.12-.5,0-.55.54,0,1.22,0,2,0,.52,0,1,0,1.55,0,0,1,.55,1.94,1.24,3.43l1.05,2.22c.14.32.71,1.31.93,1.71.2-.38.45-.87.88-1.8l.81-1.74a20.2,20.2,0,0,0,1.5-3.82,12.87,12.87,0,0,0,1.56,0c.52,0,1.24,0,1.81,0a.38.38,0,0,1,.05.55l-.46.08c-.64.11-1,.3-1,1.14,0,3.25,0,5,.13,7,0,.72.09,1.1.71,1.18l.5.06c.13.13.13.49,0,.56-.73,0-1.4,0-2.18,0s-1.58,0-2.33,0a.37.37,0,0,1-.05-.56l.47-.06c.73-.09.73-.28.73-1.25l0-4.1v-1.8h0c-1.16,2.52-2.43,5.16-3.47,7.83a.53.53,0,0,1-.31.11.73.73,0,0,1-.41-.1c-.62-1.95-2.56-5.87-3.45-7.92h0c-.06,1-.08,1.72-.09,2.54,0,1,0,2.61,0,3.55s.09,1,.72,1.11l.62.09a.48.48,0,0,1,0,.56c-.59,0-1.27,0-1.87,0s-1.1,0-1.73,0c-.21-.07-.21-.48-.07-.56l.29,0c.8-.15.9-.24,1-1.22.08-.77.13-2.15.22-3.65.07-1,.1-2.33.1-3.18s-.35-1.14-1-1.25Z"/><path class="cls-1" d="M27.39,43.65c0-1.17-.07-1.25-.64-1.36l-.32-.07a.3.3,0,0,1,0-.43c.6,0,1.24,0,1.84,0s1.24,0,1.85,0a.35.35,0,0,1,0,.43l-.31.05c-.57.11-.64.21-.64,1.38v2.92c0,1.48.16,3.11,2.08,3.11,1.62,0,2.11-1.42,2.11-3.15V45a8.74,8.74,0,0,0-.19-2.31c-.11-.26-.39-.34-.73-.4l-.34-.07a.38.38,0,0,1,0-.43c.68,0,1.17,0,1.69,0s.94,0,1.42,0a.39.39,0,0,1,0,.43l-.23.05c-.33.08-.57.16-.68.42A8.74,8.74,0,0,0,34.14,45v1.42a4.41,4.41,0,0,1-.81,3,3.44,3.44,0,0,1-2.5.91,3.77,3.77,0,0,1-2.5-.71,3.47,3.47,0,0,1-.94-2.85Z"/><path class="cls-1" d="M38.33,50.37a4.44,4.44,0,0,1-2.15-.48,4.12,4.12,0,0,1-.4-2,.31.31,0,0,1,.48,0c.25.82,1.1,2,2.17,2a1.26,1.26,0,0,0,1.36-1.28c0-1-1-1.63-1.71-2A2.93,2.93,0,0,1,36.17,44c0-1.42,1.1-2.41,2.93-2.41a5.18,5.18,0,0,1,1.44.2,2.41,2.41,0,0,0,.43.1,6.19,6.19,0,0,1,.23,1.81c-.07.15-.38.16-.5,0-.21-.65-.76-1.57-1.66-1.57a1.17,1.17,0,0,0-1.29,1.18,1.86,1.86,0,0,0,1.15,1.44l.83.44a2.88,2.88,0,0,1,1.78,2.54c0,1.55-1.27,2.56-3.18,2.56"/><path class="cls-1" d="M45.25,45.12c0,.35,0,.38.35.38h.87c.66,0,.81-.09.94-.7l.06-.32c.09-.1.41-.1.47,0,0,.4,0,.86,0,1.34s0,.93,0,1.33c-.06.12-.38.13-.47,0l-.06-.32c-.13-.6-.28-.71-.94-.71H45.6c-.34,0-.35,0-.35.4v1.5a2.32,2.32,0,0,0,.2,1.2c.16.23.4.33,1.33.33,1.1,0,1.52,0,2.22-1.47a.3.3,0,0,1,.47.07,7.43,7.43,0,0,1-.53,2c-.67,0-1.89,0-2.92,0H44.38c-.61,0-1.23,0-2.18,0a.37.37,0,0,1,0-.45l.6-.08c.57-.09.64-.17.64-1.33V43.64c0-1.15-.07-1.23-.64-1.34l-.32-.06a.33.33,0,0,1,0-.45c.59,0,1.21,0,1.82,0H47c.81,0,1.53,0,1.7,0,0,.21.1,1.12.16,2,0,.14-.34.17-.47,0a2.9,2.9,0,0,0-.48-1,1.7,1.7,0,0,0-1.23-.39h-1c-.41,0-.41,0-.41.5Z"/><path class="cls-1" d="M59.06,46c0,2.76-1.84,4.41-4.56,4.41a4.13,4.13,0,0,1-4.38-4.31,4.35,4.35,0,0,1,4.51-4.43A4.17,4.17,0,0,1,59.06,46m-4.53-3.75c-1.55,0-2.39,1.45-2.39,3.56,0,1.54.55,4,2.6,4,1.66,0,2.3-1.62,2.3-3.66s-.94-3.92-2.51-3.92"/><path class="cls-1" d="M12.89,56.79a14.49,14.49,0,0,0-9,2.8A10.33,10.33,0,0,0,0,67.92a9.74,9.74,0,0,0,4.1,8.22,15,15,0,0,0,8.73,2.39,23.37,23.37,0,0,0,6.15-1l.4-.11a13.71,13.71,0,0,0,1.19-4.83.79.79,0,0,0-.63-.25.58.58,0,0,0-.32.08c-1.35,3.27-3.71,5-6.82,5a7.15,7.15,0,0,1-5.45-2.55,11,11,0,0,1-2.42-7.36A10.37,10.37,0,0,1,7.38,60.3a7.19,7.19,0,0,1,5.25-2.36,6.09,6.09,0,0,1,6.31,4.64.48.48,0,0,0,.31.08.8.8,0,0,0,.63-.24,42.31,42.31,0,0,1-.39-4.81c-.3,0-.69-.11-1.17-.21a27.31,27.31,0,0,0-5.43-.61"/><path class="cls-1" d="M20.51,77.46a.69.69,0,0,0-.07.44.33.33,0,0,0,.12.22c.67,0,1.17,0,1.64,0s.79,0,1.25,0l1.06,0c.74,0,1.44,0,2.11.06A.27.27,0,0,0,26.7,78a.91.91,0,0,0-.07-.51l-.79-.13c-.91-.16-1.3-.34-1.3-.63a3.44,3.44,0,0,1,.21-1l1.11-3.22c.2-.61.36-.66,1.09-.66h3.4c1,0,1.33,0,1.51.61l.77,2.38a10.46,10.46,0,0,1,.55,1.93c0,.43-.51.57-.9.63l-.87.13a.45.45,0,0,0-.12.34.44.44,0,0,0,.15.32c1.38-.05,2.48-.08,3.81-.08,1.51,0,3,0,4.33.08a.5.5,0,0,0,.07-.25.79.79,0,0,0-.07-.41l-1-.16c-1.18-.18-1.46-1-2-2.57L32.65,63.87c-.69-1.88-1-2.95-1.29-3.8-.1-.36-.22-.44-.47-.44-.09,0-.37.25-.68.46s-1.06.73-1.67,1.12a6.47,6.47,0,0,1-.69,2.51c-.11.3-.24.63-.38,1l-2.59,6.76c-.74,1.92-1.3,3.29-1.8,4.44a2.12,2.12,0,0,1-1.87,1.48Zm9.69-6.83H27.52c-.36,0-.66,0-.8-.21s-.07-.46.05-.83l.72-2.08c.3-.91.68-1.93,1-2.68.11-.3.21-.55.27-.73l.14-.37.16.36c.2.47.6,1.57,1.17,3.28l.74,2.25c.12.36.16.62,0,.8s-.41.21-.75.21"/><path class="cls-1" d="M61.86,71.94c-.68,0-.77,0-.94.55l-1.11,3.22a3.14,3.14,0,0,0-.2,1c0,.17.37.34,1.17.47l.86.14c.17.2.22.83-.06,1-1,0-2,0-3.22-.08-1,0-1.63.08-2.94.08-.31-.16-.28-.75-.08-1l.77-.08a2,2,0,0,0,1.74-1.39c.48-1.1,1-2.43,1.79-4.43l2.59-6.76c.66-1.74,1.15-2.71,1.06-3.52,1.18-.76,2.42-1.66,2.48-1.66.37,0,.54.14.65.55.23.81.57,1.83,1.29,3.8l3.87,10.86c.6,1.66.86,2.3,1.91,2.47l1.09.16c.17.14.23.81,0,1-1.37,0-2.91-.08-4.39-.08s-2.54,0-3.85.08a.62.62,0,0,1-.06-1l.92-.14c.65-.11.77-.3.77-.47a11,11,0,0,0-.55-1.88l-.77-2.38c-.14-.45-.37-.5-1.36-.5Zm3.25-1.47c.66,0,.8-.08.57-.8l-.74-2.25c-.4-1.19-.91-2.69-1.17-3.27-.22.64-.79,2.14-1.22,3.41l-.71,2.08c-.26.75-.12.83.59.83Z"/><path class="cls-1" d="M100.83,71.94c-.68,0-.77,0-.94.55l-1.11,3.22a3.14,3.14,0,0,0-.2,1c0,.17.37.34,1.17.47l.86.14c.17.2.22.83-.06,1-1,0-2,0-3.22-.08-1,0-1.63.08-2.94.08-.31-.16-.28-.75-.08-1l.77-.08a2,2,0,0,0,1.74-1.39c.48-1.1,1-2.43,1.79-4.43l2.6-6.76c.65-1.74,1.13-2.71,1.05-3.52,1.18-.76,2.42-1.66,2.48-1.66.37,0,.54.14.66.55.22.81.56,1.83,1.28,3.8l3.87,10.86c.6,1.66.86,2.3,1.91,2.47l1.09.16c.17.14.23.81,0,1-1.37,0-2.91-.08-4.39-.08s-2.54,0-3.85.08a.62.62,0,0,1-.06-1l.92-.14c.65-.11.77-.3.77-.47a11,11,0,0,0-.55-1.88l-.77-2.38c-.14-.45-.37-.5-1.36-.5Zm3.25-1.47c.66,0,.8-.08.57-.8l-.74-2.25c-.4-1.19-.91-2.69-1.17-3.27-.22.64-.79,2.14-1.22,3.41l-.71,2.08c-.26.75-.12.83.59.83Z"/><path class="cls-1" d="M44.44,78c.4,0,.85,0,1.32,0s1.08.06,1.62.06A18.44,18.44,0,0,0,53,77.47,4.54,4.54,0,0,0,56.23,73c0-3.25-2.86-4.19-4.07-4.44-.35-.08-.52-.2-.52-.38s.38-.4.7-.46a3.55,3.55,0,0,0,2.77-3.31A3.68,3.68,0,0,0,53.23,61c-1.21-.69-3-1-5.74-1-2.94,0-5.11.12-7.09.25q-.1,0-.15.18a.72.72,0,0,0,.09.51l.73.1c1.35.19,1.39.65,1.39,3.4v9.78c0,2.5-.16,2.82-1.58,3.09l-.83.17a1.36,1.36,0,0,0,0,.29.68.68,0,0,0,.08.36c1.63-.05,3-.08,4.35-.08m4.31-.85c-2.47,0-2.67-1.66-2.67-3.67V70.25c0-1.26.14-1.3,1.72-1.3a4,4,0,0,1,4.32,4.26c0,2.46-1.29,4-3.37,4m-1-9.14c-1.48,0-1.67,0-1.67-.93V62.55c0-1.27.06-1.6,1.53-1.6a3.44,3.44,0,0,1,3.66,3.76c0,2.09-1.32,3.34-3.52,3.34"/><path class="cls-1" d="M93,73.49c0,1.8,0,3.55.06,4.46a2.3,2.3,0,0,1-1.68.64s-1-1.42-2.31-3L82.5,67.64a38.62,38.62,0,0,0-3.11-3.54,4.79,4.79,0,0,0-.14,1.77v5.38a19,19,0,0,0,.43,5.07c.26.58.91.77,1.65.88l.8.11a.86.86,0,0,1,0,1c-1.54,0-2.68-.08-3.82-.08s-2.11,0-3.19.08a.86.86,0,0,1,0-1l.48-.08c.77-.14,1.34-.33,1.57-.91a18.94,18.94,0,0,0,.4-5.07v-7a6.21,6.21,0,0,0-.2-2.36c-.23-.47-.63-.8-1.62-.94L75,60.8c-.2-.22-.17-.89.11-1,1.34.06,2.77.08,3.94.08,1,0,1.79,0,2.39-.08.29,1.25,2.14,3.35,4.7,6.32l2.4,2.74c1.25,1.44,2.08,2.41,2.73,3a3.71,3.71,0,0,0,.12-1.25V66.87a19,19,0,0,0-.43-5.07c-.26-.58-.88-.78-1.65-.89l-.77-.11a.86.86,0,0,1,0-1c1.54.06,2.65.08,3.82.08s2.08,0,3.19-.08a.86.86,0,0,1,0,1l-.51.08a1.75,1.75,0,0,0-1.54.92A18.55,18.55,0,0,0,93,66.87Z"/><path class="cls-1" d="M119.57,78.64a10.2,10.2,0,0,1-4.85-1c-.54-.61-.91-2.6-.91-4.49a.71.71,0,0,1,1.08-.08c.57,1.8,2.48,4.35,4.91,4.35a2.8,2.8,0,0,0,3.08-2.8c0-2.24-2.17-3.57-3.88-4.41-2-1-4.31-2.65-4.31-5.4,0-3.13,2.48-5.29,6.62-5.29a12,12,0,0,1,3.25.44,7.53,7.53,0,0,0,1,.23,13.36,13.36,0,0,1,.51,4c-.14.33-.86.36-1.11.08-.49-1.41-1.71-3.44-3.76-3.44a2.62,2.62,0,0,0-2.91,2.58c0,1.28,1.17,2.44,2.59,3.16l1.88,1c1.77.91,4,2.52,4,5.57,0,3.41-2.88,5.62-7.18,5.62"/><rect class="cls-1" x="81.24" y="53.62" width="8.28" height="1.87"/></g></g></svg>