<svg xmlns="http://www.w3.org/2000/svg" viewBox="0 0 1555.31 271.61"><defs><style>.cls-1{fill:none;}</style></defs><g id="Capa_2" data-name="Capa 2"><g id="Capa_1-2" data-name="Capa 1"><rect x="27.48" y="14.47" width="31.46" height="16.31"/><rect x="27.48" y="240.84" width="31.46" height="16.31"/><rect x="113.88" y="14.47" width="31.46" height="16.31"/><rect x="113.88" y="240.84" width="31.46" height="16.31"/><rect x="200.29" y="14.47" width="31.46" height="16.31"/><rect x="200.29" y="240.84" width="31.46" height="16.31"/><rect x="286.69" y="14.47" width="31.46" height="16.31"/><rect x="286.69" y="240.84" width="31.46" height="16.31"/><rect x="373.1" y="14.47" width="31.46" height="16.31"/><rect x="373.1" y="240.84" width="31.46" height="16.31"/><rect x="459.51" y="14.47" width="31.46" height="16.31"/><rect x="459.51" y="240.84" width="31.46" height="16.31"/><rect x="545.91" y="14.47" width="31.46" height="16.31"/><rect x="545.91" y="240.84" width="31.46" height="16.31"/><rect x="632.32" y="14.47" width="31.46" height="16.31"/><rect x="632.32" y="240.84" width="31.46" height="16.31"/><rect x="718.73" y="14.47" width="31.46" height="16.31"/><rect x="718.73" y="240.84" width="31.46" height="16.31"/><rect x="805.13" y="14.47" width="31.46" height="16.31"/><rect x="805.13" y="240.84" width="31.46" height="16.31"/><rect x="891.54" y="14.47" width="31.46" height="16.31"/><rect x="891.54" y="240.84" width="31.46" height="16.31"/><rect x="977.95" y="14.47" width="31.46" height="16.31"/><rect x="977.95" y="240.84" width="31.46" height="16.31"/><rect x="1064.35" y="14.47" width="31.46" height="16.31"/><rect x="1064.35" y="240.84" width="31.46" height="16.31"/><rect x="1150.76" y="14.47" width="31.46" height="16.31"/><rect x="1150.76" y="240.84" width="31.46" height="16.31"/><rect x="1237.16" y="14.47" width="31.46" height="16.31"/><rect x="1237.16" y="240.84" width="31.46" height="16.31"/><rect x="1323.57" y="14.47" width="31.46" height="16.31"/><rect x="1323.57" y="240.84" width="31.46" height="16.31"/><rect x="1409.98" y="14.47" width="31.46" height="16.31"/><rect x="1409.98" y="240.84" width="31.46" height="16.31"/><polygon class="cls-1" points="1468.91 0 1382.5 0 1296.1 0 1209.69 0 1123.28 0 1036.88 0 950.47 0 864.06 0 777.66 0 691.25 0 604.85 0 518.44 0 432.03 0 345.63 0 259.22 0 172.81 0 86.41 0 0 0 0 271.61 86.41 271.61 172.81 271.61 259.22 271.61 345.63 271.61 432.03 271.61 518.44 271.61 604.85 271.61 691.25 271.61 777.66 271.61 864.06 271.61 950.47 271.61 1036.88 271.61 1123.28 271.61 1209.69 271.61 1296.1 271.61 1382.5 271.61 1468.91 271.61 1555.32 271.61 1555.32 0 1468.91 0"/><rect x="1496.38" y="14.47" width="31.46" height="16.31"/><rect x="1496.38" y="240.84" width="31.46" height="16.31"/></g></g></svg>